<svg width="48" height="48" viewBox="0 0 48 48" fill="none" xmlns="http://www.w3.org/2000/svg">
<path d="M47.1968 38.3812C47.0962 35.7316 47.4274 33.1002 47.5618 30.4622C47.7346 27.0726 47.3925 23.6726 47.8336 20.2917C47.9072 19.7282 47.9574 19.1614 48 18.5939C47.9422 18.1297 47.8907 17.6648 47.8613 17.1975C47.8507 16.511 47.7785 15.8268 47.6456 15.1534C47.5573 14.7923 47.4736 14.4371 47.4064 14.0786C47.0542 13.7627 46.6189 13.5557 46.1528 13.4821C44.896 13.4065 43.6443 13.2603 42.4037 13.0441C41.224 12.8013 40.0213 12.6898 38.8173 12.7117C37.485 12.6632 36.1264 12.9805 34.7971 12.5193C33.8495 12.1905 33.7968 12.2442 34.0397 11.2288C34.3742 9.99482 34.4225 8.69996 34.1811 7.44414C34.0056 6.63328 33.6902 5.80633 32.8094 5.66067C30.4162 5.26493 28.014 4.85702 25.5665 5.12452C24.636 5.22105 23.6984 5.2262 22.767 5.1399C20.3858 4.91382 17.9868 4.96188 15.6165 5.28316C13.0334 5.65793 12.2346 6.66806 12.5116 9.07706C12.6102 9.68488 12.6189 10.304 12.5375 10.9144C12.134 13.1972 12.1389 13.2033 9.83871 12.9239C7.35586 12.7159 4.85701 12.8162 2.3985 13.2225C1.90026 13.2824 1.43602 13.5076 1.07897 13.8624C0.721924 14.2172 0.492374 14.6816 0.426515 15.1822C0.365665 17.5011 -0.0893338 19.7958 0.015664 22.1196C0.195076 26.0906 0.517071 30.0575 0.297904 33.4806C0.243873 35.9327 0.22942 37.8289 0.146785 39.7221C0.137046 40.4314 0.287099 41.1338 0.585678 41.7764C0.670607 42.0193 0.836348 42.2252 1.05483 42.3592C1.27331 42.4932 1.5311 42.5471 1.78453 42.5117C4.02813 42.5348 6.27048 42.6596 8.51414 42.7021C10.816 42.7457 13.12 42.6971 15.4208 42.7658C17.1109 42.8162 18.8053 42.6979 20.4844 42.7998C22.5457 42.9449 24.6129 42.985 26.6782 42.9203C28.1796 42.8589 29.6865 42.7095 31.1823 42.7813C33.8132 42.9077 36.4337 42.6668 39.0603 42.6773C39.8064 42.6548 40.5531 42.6831 41.2953 42.7621C42.6934 42.9613 44.0998 42.8959 45.4986 43.0163C46.3399 43.0886 46.6816 42.7594 47.0137 41.9044C47.3563 41.0225 47.8075 40.182 47.1985 39.218C47.073 39.0195 47.2075 38.6636 47.1968 38.3812ZM15.2661 6.36469C15.9066 6.2385 16.5756 6.2676 17.2266 6.18532C19.8923 5.84839 22.5559 6.39969 25.2136 6.20944C26.8479 6.03265 28.4978 6.06022 30.1254 6.29154C30.9487 6.43689 31.6871 6.96747 32.5818 6.79598C32.9119 6.73274 33.0268 7.03766 33.1357 7.32221C33.4132 8.03686 33.4602 8.82126 33.2702 9.56431C33.0802 10.3074 32.6627 10.9714 32.0769 11.4624C31.758 11.7047 31.8904 11.2996 31.8417 11.2207C31.4379 10.5667 31.1536 10.8587 30.8262 11.3965C30.4022 10.5878 30.5798 9.78906 30.3218 9.06499C30.2377 8.72041 30.0475 8.41138 29.7785 8.18204C29.5095 7.95271 29.1754 7.81481 28.8238 7.78803C26.6051 7.55019 24.3682 7.53746 22.147 7.75005C21.0875 7.84829 20.0325 8.01915 18.9723 8.07183C17.2296 8.15841 16.4802 9.50058 16.3576 11.0373C16.3969 11.6192 16.3322 12.2034 16.1665 12.7622C15.6561 12.4558 15.7752 11.9717 15.6321 11.6114C15.5035 11.2875 15.5642 10.8119 15.0211 10.7656C14.6257 11.3209 15.0722 11.8439 15.0855 12.3806C15.0904 12.5755 15.0626 12.7665 14.8518 12.8411C14.8078 12.8596 14.7602 12.8676 14.7126 12.8643C14.6651 12.861 14.6189 12.8467 14.5779 12.8223C14.5368 12.7979 14.502 12.7642 14.4762 12.7239C14.4504 12.6836 14.4342 12.6378 14.4291 12.5901C14.3114 11.6633 13.9691 10.7799 13.4323 10.0176C12.5701 8.60008 13.614 6.69017 15.2661 6.36469ZM29.7336 11.3522C29.5742 12.2824 29.3689 12.5125 28.4964 12.5191C27.282 12.5282 26.067 12.474 24.8523 12.4469C23.1635 12.5247 21.4887 12.716 19.8098 12.8253C19.4824 12.8465 19.1554 12.8883 18.8279 12.8921C17.1079 12.9119 16.971 12.7544 17.2143 11.0747C17.4382 9.52914 18.1874 9.01613 20.0523 8.81916C22.095 8.60342 24.1378 8.54831 26.1856 8.47498C26.9957 8.44596 27.7606 8.67672 28.5617 8.64691C28.7527 8.65296 28.9371 8.71877 29.0891 8.83519C29.2412 8.95161 29.3534 9.11284 29.4102 9.29645C29.6888 9.94323 29.8001 10.6505 29.7336 11.3522ZM13.9044 12.862C13.7406 12.7283 13.622 12.5468 13.565 12.3425C13.5079 12.1381 13.5152 11.9211 13.5858 11.7211C13.8739 12.0424 14.1193 12.3344 13.9044 12.862ZM3.51611 40.0725C3.60508 40.2376 3.74625 40.3733 3.84604 40.5335C4.05553 40.8699 4.51765 41.1759 4.14911 41.629C3.90055 41.9346 2.99141 41.6475 2.68849 41.1706C2.46186 40.8138 2.31378 40.4072 2.11916 40.0288C2.08148 39.9324 2.01617 39.8496 1.93154 39.7907C1.84692 39.7318 1.7468 39.6996 1.64394 39.6982C1.27536 40.2429 1.73769 40.6184 1.94053 41.0483C2.01902 41.2147 2.09278 41.4359 1.87391 41.544C1.59404 41.6823 1.4013 41.4712 1.34532 41.2491C1.13157 40.5247 1.0185 39.7739 1.00932 39.0182C1.09055 35.5152 1.16897 32.0106 1.14669 28.5072C1.13315 26.3818 0.936063 24.2575 0.817635 22.1329C0.684455 20.716 0.76984 19.287 1.07076 17.8964C1.1253 17.5701 1.11867 17.2364 1.05121 16.9125C0.84653 15.1759 1.80918 14.1192 3.54805 14.077C4.18192 14.0616 4.46603 14.2068 4.45453 14.9294C4.42524 16.7716 4.56726 18.6192 4.48278 20.4573C4.34976 23.3512 4.65974 26.2327 4.60038 29.1236C4.63364 30.3069 4.58668 31.4911 4.45984 32.6679C4.13267 34.747 4.45532 36.8207 4.42056 38.8959C4.41535 39.2065 4.51886 39.5561 4.21938 39.8447C3.58079 39.5989 3.56347 38.7453 2.84531 38.3718C2.74216 39.1693 3.24951 39.5776 3.51611 40.0725ZM6.31 41.8678C6.10123 41.9491 5.80383 41.9616 5.69835 41.7081C5.41838 41.1891 5.28282 40.6036 5.30598 40.0135C5.9889 40.3446 6.09158 40.8888 6.35977 41.305C6.47851 41.4893 6.63631 41.7407 6.31 41.8678ZM6.69915 38.7571C6.77174 39.4865 7.49683 39.9367 7.50426 40.6757C7.50662 40.9086 7.47185 41.1419 7.44564 41.4853C6.82379 41.0709 6.69282 40.3257 6.23644 39.9952C5.08863 39.164 5.32094 37.9981 5.21974 36.8739C4.95141 33.8933 5.51177 30.938 5.43469 27.9609C5.32852 23.8578 5.31289 19.7523 5.26113 15.6478C5.24927 15.3644 5.25878 15.0804 5.28957 14.7984C5.30006 14.5941 5.3615 14.3958 5.46822 14.2217C5.57494 14.0476 5.7235 13.9034 5.90019 13.8023C6.07689 13.7012 6.27603 13.6465 6.47925 13.6433C6.68247 13.6401 6.88322 13.6884 7.06299 13.7839C7.38202 13.9088 7.41596 14.1921 7.40727 14.4883C7.27626 18.9751 7.5343 23.4587 7.53331 27.9458C7.53259 31.2496 7.51868 34.5633 7.6982 37.8687C7.74496 38.7286 7.67794 38.7809 6.69915 38.7571ZM39.7826 27.3065C39.5506 30.649 39.0288 33.9907 39.436 37.3601C39.4811 37.7331 39.4137 38.1185 39.4293 38.4968C39.4495 38.9688 39.2936 39.4314 38.9922 39.7936C38.4959 40.4476 38.2623 39.3086 37.7625 39.7786C37.8105 40.5532 38.6841 40.947 38.8953 41.6887C37.2546 42.511 36.5943 42.3257 35.7743 40.8032C35.4888 40.367 35.2948 39.8766 35.2043 39.3623C35.1921 39.1746 35.1317 38.9933 35.029 38.8361C34.9264 38.6789 34.785 38.5512 34.6186 38.4654C34.2078 38.8228 34.3458 39.1772 34.5032 39.5139C34.7834 40.1134 35.0953 40.698 35.3716 41.2992C35.4906 41.5583 35.5797 41.891 35.2578 42.0462C35.1246 42.1013 34.9751 42.1016 34.8417 42.047C34.7083 41.9924 34.6015 41.8873 34.5443 41.7542C34.2495 41.2698 33.9427 40.7925 33.6575 40.3025C33.5396 40.0999 33.48 39.8633 33.3652 39.6585C33.2546 39.4612 33.1441 39.1677 32.8604 39.266C32.5065 39.3886 32.6376 39.7237 32.6655 39.9899C32.7344 40.3153 32.8939 40.6143 33.1254 40.8518C33.3754 41.1807 33.725 41.476 33.6334 41.9666C32.4557 42.1937 32.4216 42.1857 31.962 41.2951C31.7889 40.9597 31.6758 40.592 31.4923 40.2634C31.2976 39.9149 31.1835 39.4185 30.5987 39.9925C30.2231 40.3612 30.0215 39.8017 29.8446 39.5359C29.6926 39.3073 29.6159 38.933 29.2604 39.175C28.9654 39.3759 29.1257 39.7082 29.2827 39.9352C29.7345 40.5883 30.2171 41.2198 30.7949 42.0057C29.2641 42.3318 27.8588 42.1352 26.4784 42.2394C26.0989 42.2681 25.9711 41.85 25.7855 41.594C25.1464 40.66 24.4556 39.7629 23.7163 38.9072C23.8034 40.1317 24.9143 40.8699 25.2221 42.0555C24.6343 42.3345 24.2147 42.3364 23.9023 41.629C23.495 40.7486 22.9297 39.9514 22.2349 39.2776C21.908 39.6261 22.1114 39.8232 22.2351 39.9992C22.5066 40.3854 22.8355 40.733 23.0863 41.1312C23.2876 41.4508 23.8302 41.8179 23.3586 42.1892C23.1582 42.3222 22.9187 42.382 22.6798 42.3587C22.4409 42.3354 22.2173 42.2303 22.046 42.0611C21.754 41.7541 21.5002 41.4124 21.2902 41.0436C21.0355 40.6469 20.8364 40.2131 20.571 39.8246C20.454 39.6533 20.2483 39.4227 20.0012 39.6662C19.8379 39.8271 19.9502 40.0055 20.0623 40.1683C20.4882 40.7198 20.8269 41.3342 21.0666 41.9897C19.6366 42.2963 18.3393 41.9794 17.0486 42.0834C16.9079 42.0952 16.7674 42.0584 16.6504 41.9789C16.5333 41.8995 16.4467 41.7822 16.4049 41.6465C16.0773 40.9652 15.7346 40.2914 15.3767 39.6251C15.2366 39.3645 15.193 38.8164 14.7811 39.0215C14.3246 39.2488 14.6374 39.6754 14.8233 39.9973C15.0597 40.4067 15.3135 40.806 15.5493 41.2158C15.6225 41.3052 15.6772 41.4085 15.7102 41.5195C15.7433 41.6305 15.754 41.747 15.7418 41.8622C14.5399 42.1708 14.5584 42.1599 14.0161 41.2293C13.417 40.3811 12.9007 39.4767 12.4743 38.5286C12.4189 38.3709 12.2646 38.1657 12.0506 38.2961C11.9709 38.3479 11.9143 38.4288 11.8927 38.5217C11.8711 38.6147 11.8862 38.7125 11.9349 38.7945C12.3405 39.6486 12.8099 40.4704 13.3391 41.2529C13.513 41.5117 13.8007 41.8528 13.3716 42.0833C13.2937 42.1373 13.2043 42.172 13.1106 42.1847C13.0169 42.1974 12.9215 42.1877 12.8323 42.1563C12.743 42.125 12.6623 42.0729 12.5968 42.0043C12.5313 41.9357 12.4827 41.8525 12.4551 41.7615C11.9735 40.7445 11.4026 39.7728 10.7494 38.8578C10.473 40.1178 11.5347 40.8727 11.9981 42.0151C11.4099 42.032 10.9209 42.0636 10.4324 42.0569C8.80769 42.0347 8.58967 41.7717 8.70443 39.9312C9.29007 40.2989 9.38803 40.9841 9.81193 41.4054C9.94233 41.535 10.0845 41.6933 10.2887 41.5782C10.5165 41.4498 10.4508 41.2275 10.3264 41.0949C9.66208 40.3876 9.41648 39.4405 8.91314 38.6543C8.55348 38.0548 8.38279 37.3596 8.42358 36.6605C8.36185 30.9802 8.2647 25.3003 8.19324 19.62C8.10535 18.021 8.12549 16.4177 8.25351 14.8214C8.34231 14.0953 8.5669 13.6676 9.37231 13.7268C11.0047 13.7835 12.639 13.7424 14.2666 13.6038C16.0472 13.5217 17.8303 13.4937 19.6118 13.428C21.6789 13.3518 23.7454 13.2584 25.8124 13.177C26.1876 13.2082 26.5651 13.2001 26.9387 13.1528C28.7636 12.6726 30.5795 13.262 32.3926 13.1444C32.9783 13.1063 32.9593 13.8544 33.375 13.7556C33.7486 13.6668 33.9444 13.172 34.4665 13.2304C36.1469 13.4195 37.8383 13.4921 39.5286 13.4479C39.884 13.4383 40.2413 13.5229 40.1437 13.99C39.8474 15.4089 40.1631 16.8166 40.167 18.229C40.1756 21.2598 39.9926 24.2813 39.7826 27.3065ZM42.9821 25.0985C42.6126 29.0922 42.6388 33.1163 42.5568 37.1297C42.4926 38.5924 42.5051 40.0576 42.5943 41.519C42.1391 41.2686 41.7917 40.858 41.6186 40.3659C41.5122 40.1532 41.3217 39.9209 41.0748 40.049C40.8373 40.1723 40.8826 40.4532 41.0048 40.6759C41.3142 41.0566 41.5664 41.4811 41.7531 41.9356C41.2998 42.2255 40.9841 42.0698 40.7715 41.6323C40.501 41.0783 40.3456 40.4745 40.3148 39.8579C40.1203 36.5552 40.1492 33.2431 40.4011 29.9444C40.836 25.9022 41.0389 21.8382 41.0088 17.7725C40.9121 16.8332 40.8688 15.8891 40.8791 14.9448C40.8584 14.7099 40.8841 14.4731 40.9547 14.2482C41.0252 14.0233 41.1392 13.8146 41.2901 13.6341C43.2962 14.1395 43.2907 14.1396 43.3181 16.178C43.3637 19.1554 43.2515 22.1331 42.9821 25.0985ZM46.4454 34.0589C46.2325 35.4549 46.3459 36.8992 46.2665 38.319C46.243 38.74 46.463 39.4433 45.4882 39.1379C45.0728 39.0078 45.2861 40.0322 44.636 40.0256C44.7156 40.2264 44.8201 40.4161 44.9471 40.5904C45.0977 40.8306 45.2557 41.0663 45.3999 41.3104C45.5599 41.5811 45.877 41.9282 45.4006 42.1125C45.1136 42.2235 44.6627 42.3508 44.4385 41.8483C43.8454 40.5187 43.0531 39.2441 43.4366 37.6746C43.4734 37.451 43.4903 37.2247 43.4871 36.9981C43.4278 35.786 43.2894 34.6032 43.331 33.4268C43.3959 31.589 43.6491 29.7575 43.7031 27.9197C43.795 24.796 44.3105 21.6955 44.1724 18.5602C44.1244 17.4715 44.1122 16.3794 44.1352 15.29C44.1548 14.3567 44.4411 14.1352 45.3704 14.2006C46.5194 14.2814 46.8004 14.6231 46.8123 15.7764C46.8371 18.1827 46.9271 20.5964 46.8626 22.994C46.7635 26.6803 47.0062 30.3815 46.4454 34.0589Z" fill="black"/>
<path d="M27.7225 41.4932C27.2758 41.2916 26.915 40.9366 26.7047 40.4917C26.2484 39.7857 25.9512 38.974 25.2797 38.4124C25.2302 38.3796 25.1899 38.3345 25.1626 38.2814C25.1353 38.2284 25.1219 38.1693 25.1237 38.1096C25.1255 38.0499 25.1425 37.9917 25.173 37.9405C25.2034 37.8892 25.2464 37.8467 25.2979 37.8169C25.5428 37.6267 25.7537 37.7651 25.8795 37.9747C26.5285 39.0554 27.1616 40.1457 27.7956 41.2353C27.8111 41.262 27.7736 41.32 27.7225 41.4932Z" fill="black"/>
<path d="M18.0909 38.7882C18.9547 39.4934 19.1203 40.5813 19.8863 41.3419C18.7407 41.1672 18.0939 40.2346 18.0909 38.7882Z" fill="black"/>
<path d="M16.0764 38.2932C16.8262 39.3555 17.4436 40.2303 18.2144 41.3224C17.6152 41.0649 17.0984 40.6457 16.7211 40.1112C16.3438 39.5766 16.1207 38.9474 16.0764 38.2932Z" fill="black"/>
<path d="M37.4895 41.0194C36.5293 40.7776 36.1328 40.0165 35.6535 39.3345C35.5982 39.2564 35.5752 39.1598 35.5893 39.065C35.6034 38.9701 35.6535 38.8845 35.7291 38.8262C35.759 38.7897 35.7976 38.7615 35.8414 38.7444C35.8852 38.7272 35.9326 38.7217 35.9791 38.7283C36.0256 38.735 36.0696 38.7536 36.107 38.7823C36.1443 38.811 36.1736 38.8489 36.1921 38.8924C36.6324 39.5964 37.0583 40.3096 37.4895 41.0194Z" fill="black"/>
<path d="M27.6534 38.8719C28.3384 39.4273 28.8617 40.1586 29.1682 40.9884C28.7115 40.8662 28.3111 40.5885 28.0349 40.2026C27.7588 39.8167 27.624 39.3465 27.6534 38.8719Z" fill="black"/>
</svg>
