<svg viewBox="0 0 48 48" fill="none" xmlns="http://www.w3.org/2000/svg">
<path d="M41.3181 3.02548C41.1763 4.0097 40.7388 4.92759 40.0634 5.65745C39.6952 6.01493 39.4179 6.46156 39.0303 6.81035C38.6775 7.18257 38.2744 7.50365 37.8327 7.76426C37.3374 8.01087 37.3446 8.10087 37.7354 8.49261C38.8148 9.57472 39.792 10.7474 40.7791 11.9106C41.1118 12.3068 41.4783 12.6735 41.8743 13.0065C42.3192 13.3772 42.3346 13.3853 42.7568 12.966C43.9201 11.8599 45.2011 10.8845 46.5769 10.0575C46.9365 9.8496 47.3429 9.73621 47.7582 9.72791C47.9551 9.71349 48.0382 9.83339 47.9835 10.0258C47.9613 10.1271 47.922 10.2237 47.8671 10.3117C47.4096 11.0867 46.8604 11.8038 46.2315 12.4475C45.4464 13.1194 44.7357 13.878 43.9886 14.5946C43.7758 14.7987 43.7099 14.9347 43.9543 15.2185C44.3565 15.6854 44.652 16.2418 45.0585 16.7138C45.1489 16.793 45.22 16.8918 45.2665 17.0026C45.313 17.1134 45.3336 17.2334 45.3269 17.3533C45.3202 17.4733 45.2863 17.5902 45.2277 17.6951C45.1691 17.8 45.0874 17.8902 44.9888 17.9589C44.6958 18.1761 44.431 18.4172 44.1616 18.6571C43.9347 18.8591 43.709 18.9933 43.4084 18.7704C43.2104 18.6235 43.031 18.6962 42.8646 18.8684C41.9482 19.8168 40.899 20.6211 39.9076 21.483C38.9838 22.3454 37.9299 23.0569 36.7846 23.5913C36.1214 23.8748 35.4253 24.0741 34.7126 24.1845C34.3004 24.2394 33.8811 24.1865 33.4956 24.0309C32.6594 23.7148 31.721 23.6366 31.0136 23.005C30.9808 22.9731 30.9417 22.9484 30.8988 22.9324C30.8559 22.9164 30.8101 22.9095 30.7644 22.9122C30.7187 22.9148 30.6741 22.9269 30.6333 22.9478C30.5926 22.9686 30.5566 22.9977 30.5277 23.0332C30.388 23.1486 30.2554 23.2724 30.1307 23.4038C30.0444 23.5355 29.9131 23.6312 29.7613 23.6729C29.6096 23.7147 29.4478 23.6997 29.3063 23.6307C29.1659 23.5663 29.0084 23.5489 28.8572 23.5811C28.7061 23.6133 28.5694 23.6934 28.4674 23.8095C26.374 25.4953 24.3303 27.2421 22.4134 29.1227C21.4778 30.0406 20.5319 30.9504 19.522 31.7712C18.1045 32.9232 16.6619 34.0991 14.8273 34.5502C13.8625 34.8375 12.8704 35.0238 11.8671 35.1064C10.7279 35.179 9.62559 35.5386 8.6628 36.1518C7.68602 36.7356 6.79274 37.4488 6.00727 38.2722C5.58496 38.6907 5.12833 39.073 4.64217 39.4153C3.89183 40.0087 3.19365 40.6652 2.55529 41.3777C2.20829 41.6549 1.96513 42.0412 1.86525 42.474C1.76536 42.9068 1.8146 43.3606 2.00499 43.7619C2.07285 43.9043 2.13523 44.0738 1.91951 44.1394C1.8817 44.1498 1.84218 44.1525 1.80331 44.1473C1.76444 44.142 1.72703 44.129 1.6933 44.109C1.65957 44.089 1.63023 44.0624 1.60703 44.0308C1.58383 43.9992 1.56725 43.9632 1.55828 43.925C1.48796 43.732 1.45409 43.526 1.39717 43.3278C1.33574 43.0235 1.24325 42.7263 1.12114 42.4409C0.930958 42.1548 0.805839 41.8305 0.754604 41.4907C0.70337 41.151 0.727267 40.8042 0.824611 40.4747C0.97482 40.0296 0.670035 39.8157 0.236497 39.7721C0.107634 39.7591 -0.0293133 39.7009 0.00549435 39.532C0.0102566 39.4995 0.0215685 39.4683 0.0387434 39.4404C0.0559183 39.4124 0.078598 39.3882 0.105405 39.3693C0.132213 39.3503 0.162589 39.3371 0.194689 39.3302C0.22679 39.3234 0.259945 39.3231 0.292143 39.3295C0.998643 39.5639 1.36546 39.0856 1.69505 38.6324C2.55337 37.5991 3.51363 36.6548 4.56126 35.8139C6.06774 34.4261 7.89478 33.4335 9.87888 32.9249C10.9984 32.6406 12.138 32.4423 13.2877 32.3319C14.7842 32.1501 16.19 31.5175 17.3185 30.5181C18.6667 29.3935 19.8992 28.1356 21.3232 27.0976C21.7581 26.7309 22.1716 26.3394 22.5615 25.9252C23.6629 24.9069 24.7719 23.8969 25.8745 22.88C26.2148 22.6453 26.535 22.3828 26.8318 22.0951C26.9893 21.8941 27.1194 21.6986 26.9033 21.4846C26.6203 21.2043 26.7671 20.9593 26.9479 20.7345C27.1897 20.4336 27.463 20.158 27.7373 19.8555C26.4755 18.1498 26.442 16.1964 26.6846 14.1954C26.7861 13.6062 27.0117 13.0452 27.3465 12.5498C27.8632 11.6523 28.5048 10.8329 29.2521 10.1161C30.0879 9.34855 30.893 8.55224 31.7112 7.76798C32.0044 7.48692 32.3211 7.24376 31.8225 6.85865C31.7539 6.79634 31.7114 6.71035 31.7036 6.61797C31.6958 6.52559 31.7232 6.43367 31.7804 6.3607C32.0024 5.91874 32.3382 5.54401 32.7534 5.27516C32.9977 5.10049 33.2947 5.01542 33.5944 5.03431C33.8941 5.05319 34.1782 5.17488 34.3986 5.37883C34.8072 5.73921 35.1826 6.12916 35.5792 6.49897C35.95 6.84473 36.0347 6.84125 36.4002 6.48899C37.3305 5.5922 38.2546 4.68875 39.196 3.80381C39.4566 3.50717 39.7873 3.28052 40.158 3.14456C40.5287 3.0086 40.9275 2.96766 41.3181 3.02548ZM32.6767 22.9668C33.1901 23.1439 33.7182 23.2754 34.2547 23.3597C35.0201 23.4908 35.8069 23.3306 36.46 22.9105C37.3064 22.4224 37.9989 21.5771 39.1025 21.5881C39.1612 21.5887 39.2229 21.5032 39.2798 21.4538C40.0995 20.8068 40.8043 20.0263 41.3646 19.145C40.9444 19.1307 40.7367 19.4545 40.4218 19.617C40.5373 19.4655 40.6446 19.3078 40.7432 19.1447C40.8115 19.0174 40.6701 18.9708 40.5981 18.9122C40.5419 18.8664 40.4473 18.8088 40.3961 18.8277C40.2776 18.8714 40.2782 18.9792 40.3469 19.078C40.5322 19.3443 40.2843 19.3571 40.1422 19.446C39.6286 19.6816 39.156 19.9976 38.7421 20.3823C38.3528 20.8693 37.6035 20.683 37.3531 21.2894C36.715 21.4334 36.3394 21.9968 35.783 22.2714C35.9126 21.8949 35.8531 21.7309 35.5654 21.7893C35.1868 21.8838 34.8182 22.0145 34.4647 22.1797C34.4015 22.201 34.3492 22.2462 34.3188 22.3055C34.2884 22.3649 34.2823 22.4337 34.3018 22.4975C34.4597 22.8688 34.2432 22.8809 33.9743 22.88C33.6647 22.9012 33.3537 22.8867 33.0475 22.8366C32.9075 22.8037 32.7289 22.7595 32.6786 22.9787C32.5543 22.788 32.3837 22.6321 32.1828 22.5253C31.9818 22.4186 31.757 22.3646 31.5295 22.3683C31.8219 22.7745 32.3036 22.7695 32.6767 22.9668ZM34.3327 7.37025C34.6223 7.29593 34.877 7.46865 35.1529 7.4838C35.1901 7.48685 35.2276 7.48237 35.263 7.47062C35.2985 7.45887 35.3312 7.4401 35.3593 7.41542C35.3745 7.39487 35.3856 7.37151 35.3917 7.34668C35.3979 7.32184 35.3992 7.29603 35.3954 7.27072C35.3916 7.24542 35.3828 7.22111 35.3696 7.1992C35.3563 7.17729 35.3389 7.15821 35.3183 7.14305C34.8095 6.6002 34.2245 6.13421 33.5817 5.75969C33.4915 5.731 33.3965 5.72056 33.3022 5.72897C33.208 5.73738 33.1163 5.76448 33.0327 5.80868C32.949 5.85288 32.8749 5.9133 32.8149 5.98642C32.7548 6.05953 32.7099 6.14388 32.6827 6.23454C32.5632 6.63151 32.875 6.70754 33.1394 6.80213C33.2326 6.83548 33.4257 6.83058 33.4262 6.84738C33.4473 7.57895 33.7302 7.05016 33.9039 6.94325C34.0283 6.86671 34.1119 6.7 34.3012 6.81025C34.2799 7.00303 34.0008 7.23251 34.3727 7.37483C33.8029 7.33656 33.8084 7.33728 33.9928 7.79498C34.3222 8.46881 34.7685 9.07891 35.3108 9.59697C35.8055 10.0674 36.2377 10.5993 36.5969 11.1798C36.5475 11.1989 36.4933 11.2013 36.4424 11.1866C36.3915 11.172 36.3469 11.141 36.3152 11.0986C35.3635 10.3473 34.4714 9.52341 33.6469 8.63439C33.4349 8.37308 33.1946 8.13603 32.9304 7.92756C32.7132 7.75174 32.3282 7.88599 32.3922 8.07105C32.5494 8.52511 32.1742 8.59002 31.9789 8.75571C31.8223 8.88667 31.6848 9.03898 31.5706 9.20816C31.5102 9.2979 31.4863 9.38996 31.5965 9.47019C31.6278 9.49357 31.6667 9.50455 31.7057 9.50103C31.7447 9.49752 31.781 9.47975 31.8077 9.45114C31.958 9.31005 32.0957 9.15521 32.2362 9.00387C32.3093 8.92527 32.4368 8.83414 32.4939 8.91122C32.7567 9.26634 33.291 9.24935 33.533 9.62665C33.4814 9.68582 33.4662 9.72026 33.4471 9.72267C33.1409 9.761 32.9633 9.42545 32.6618 9.44943C32.2697 9.48062 32.4152 9.91571 32.1939 10.0752C32.1746 10.089 32.1347 10.0783 32.12 10.0938C31.5491 10.6974 30.8774 11.235 30.7651 12.1418C30.7548 12.2255 30.7124 12.3001 30.6285 12.2801C30.2414 12.1877 30.1594 12.5299 29.9864 12.7291C29.7961 12.9747 29.572 13.1922 29.3208 13.3751C29.5574 12.7938 30.019 12.4425 30.1757 11.8965C29.8025 12.1613 29.4584 12.465 29.1491 12.8024C28.8092 13.1577 28.492 13.5352 28.145 13.8831C27.8399 14.221 27.6195 14.6265 27.5019 15.0663C27.2863 15.7254 27.2098 16.4221 27.2774 17.1123C27.2946 17.6742 27.4373 18.2252 27.6949 18.725C28.4368 19.9482 29.4909 20.9519 30.7491 21.633C31.2008 21.8348 31.6743 21.9839 32.1601 22.0774C32.1471 21.8418 31.9598 21.7957 32.0238 21.6107C32.7557 21.9075 33.5434 22.0414 34.3323 22.0032C34.2232 21.6733 33.7545 21.9202 33.7738 21.4584C34.0248 21.5892 34.2984 21.6714 34.5799 21.7006C34.7236 21.6784 34.8589 21.6189 34.9724 21.5282C34.5769 21.1105 35.2066 21.0001 35.2103 20.6803C35.1145 20.6271 34.9854 20.4938 34.8972 20.5169C34.5033 20.6199 34.5666 20.2693 34.656 20.2032C34.8728 20.0427 34.8251 19.9649 34.6692 19.8205C34.5182 19.6807 34.306 19.5722 34.2748 19.3005C34.6623 19.2782 34.8126 19.5656 35.041 19.7133C35.1315 19.7717 35.2297 19.83 35.3182 19.7501C35.4549 19.6266 35.3458 19.5233 35.259 19.429C35.0701 19.2237 34.7927 19.1043 34.6674 18.8245C34.8819 18.7284 35.0139 18.8628 35.1509 18.9793C35.4963 19.2728 35.8327 19.4447 36.1834 18.9725C36.201 18.9472 36.2241 18.9262 36.2509 18.9112C36.2778 18.8962 36.3078 18.8875 36.3385 18.8859C36.3693 18.8843 36.4 18.8897 36.4283 18.9018C36.4566 18.9139 36.4818 18.9323 36.5019 18.9557C36.4785 19.2138 36.1468 19.2416 36.1301 19.4925C36.3861 19.1575 37.1005 19.158 36.8796 18.4635C36.864 18.4146 37.0212 18.325 37.0705 18.2386C37.2266 17.9654 37.6768 17.8791 37.5771 17.4442C37.5603 17.3707 37.5836 17.3456 37.6456 17.3548C38.2046 17.4376 38.3737 16.8512 38.7943 16.6793C39.0814 16.562 39.1276 16.3065 38.8302 16.0157C39.0297 16.0936 39.1677 16.1425 39.3015 16.201C39.5119 16.2929 39.5658 16.5351 39.3773 16.6327C39.238 16.7049 39.0603 16.6914 39.1633 16.9187C39.2585 17.1287 39.4114 17.0373 39.5563 16.9847C40.4178 16.6722 40.4188 16.6715 41.0239 17.2071C41.1778 17.3433 41.324 17.5442 41.5535 17.4047C41.7755 17.2697 41.652 17.0172 41.6477 16.8296C41.6412 16.5464 41.3773 16.406 41.1768 16.2486C40.9946 16.1056 40.7151 16.0272 40.618 15.8457C40.1533 15.1954 39.6224 14.595 39.0338 14.0542C38.8517 13.8343 38.5591 13.6534 38.6043 13.2337C40.0044 14.2527 41.0159 15.6265 42.3826 16.6023C41.7918 15.667 40.6774 15.154 40.2674 13.9202C40.9398 14.1959 41.5156 14.3538 41.8138 14.9582C41.9281 15.1901 42.1316 15.1874 42.328 15.0106C42.539 14.8207 42.3785 14.7274 42.2574 14.578C41.8896 14.1243 41.4297 13.7651 41.0361 13.34C39.5952 11.7844 38.1535 10.2295 36.7271 8.66063C36.3528 8.19486 35.8267 7.87538 35.2408 7.75798C34.9011 7.743 34.5784 7.60523 34.3327 7.37025ZM21.978 28.1336C23.6987 26.4578 25.2572 24.6193 27.0801 23.0322C27.3259 23.3376 26.9293 23.3766 27.0131 23.5636C27.2223 23.5982 27.2879 23.242 27.6046 23.3564C26.4757 24.293 25.4093 25.3025 24.4123 26.3784C24.8161 26.146 25.1729 25.8401 25.4643 25.4766C25.6658 25.2062 25.9064 24.9673 26.1783 24.7678C26.8456 24.2396 27.5403 23.7471 28.2597 23.2924C28.2975 23.2813 28.3316 23.2603 28.3585 23.2316C28.3853 23.2029 28.404 23.1675 28.4126 23.1291C28.4211 23.0907 28.4192 23.0507 28.4071 23.0132C28.3949 22.9758 28.3729 22.9424 28.3435 22.9163C28.2695 22.796 28.169 22.6943 28.0495 22.6189C27.9301 22.5436 27.795 22.4966 27.6546 22.4817C27.5142 22.4667 27.3722 22.4842 27.2396 22.5327C27.107 22.5812 26.9873 22.6595 26.8897 22.7615C26.8099 22.8271 26.7445 22.9107 26.663 22.9738C25.4253 23.9323 24.4709 25.1818 23.1749 26.1134C21.6991 27.2015 20.3032 28.3941 18.998 29.6819C18.1586 30.5213 17.2252 31.2611 16.2162 31.8864C15.6514 32.2525 15.0137 32.4912 14.3473 32.586C13.6302 32.6661 12.9184 32.802 12.208 32.9333C11.038 33.1496 9.90186 33.4995 8.75707 33.8179C8.13301 33.9803 7.53976 34.2439 7.00088 34.5981C6.12321 35.1884 5.27793 35.8255 4.4687 36.5066C3.67504 37.1697 2.92808 37.8867 2.23316 38.6527C1.81126 39.0059 1.53576 39.5034 1.46022 40.0484C1.46498 40.3844 1.40224 40.718 1.27572 41.0294C1.12302 41.3802 1.24259 41.6569 1.58999 41.9217C1.89538 41.3046 2.30639 40.7456 2.80444 40.2701C4.36088 38.9884 5.8634 37.6409 7.36295 36.2975C8.65601 35.2146 10.2699 34.5881 11.9549 34.5149C12.8008 34.4439 13.6408 34.3144 14.4688 34.1271C15.9583 33.7712 17.3133 32.9925 18.3708 31.8846C19.4892 30.7367 20.6859 29.6677 21.9523 28.6853C22.6679 28.1234 23.4972 27.6402 23.8848 26.6718C23.3335 27.2602 22.6893 27.754 21.978 28.1336ZM29.7995 22.1395L29.9253 22.0157C29.4446 21.535 28.968 21.0499 28.4796 20.5771C28.4292 20.5355 28.3654 20.5137 28.3001 20.5159C28.2348 20.5181 28.1725 20.5441 28.125 20.5889C27.5018 21.0169 27.4569 21.3369 27.956 21.8964C28.0765 22.0314 28.217 22.1485 28.3385 22.2828C28.5464 22.5125 28.6917 22.4682 28.8997 22.2459C29.3012 21.8169 29.3196 21.8342 29.7995 22.1395ZM45.6634 11.885C44.8768 12.4487 44.0892 13.0108 43.3054 13.5783C43.2275 13.646 43.157 13.7218 43.0953 13.8045C42.9896 13.9236 42.882 14.0542 43.0466 14.1948C43.1602 14.2918 43.2854 14.2471 43.3927 14.1539C44.2363 13.4896 44.9984 12.728 45.6634 11.885ZM38.9899 5.43091C38.0722 5.90674 37.4175 6.73288 36.5466 7.27434C36.4386 7.34147 36.5247 7.46111 36.6066 7.52488C36.6393 7.55598 36.6786 7.57934 36.7216 7.59323C36.7646 7.60712 36.8101 7.6112 36.8549 7.60515C36.8996 7.59911 36.9425 7.58311 36.9802 7.55832C37.018 7.53353 37.0497 7.50059 37.073 7.46192C37.7459 6.81779 38.3857 6.1399 38.9899 5.43091ZM38.8905 19.4469C38.9887 19.3594 38.9307 19.202 39.0842 19.1332C39.2066 19.0784 39.132 18.9573 39.0534 18.8943C38.9638 18.8224 38.8469 18.6758 38.7419 18.8396C38.5002 19.2163 38.0328 19.2792 37.7485 19.59C37.6266 19.7233 37.4654 19.8683 37.6542 20.0374C37.7155 20.105 37.8009 20.1458 37.892 20.1511C37.9832 20.1564 38.0727 20.1257 38.1414 20.0657C38.3937 19.858 38.5651 19.5516 38.8905 19.4469ZM30.7848 10.0511C30.5898 10.296 30.363 10.5764 30.1416 10.8609C30.0506 10.9779 29.9083 11.1088 30.0933 11.2482C30.1247 11.272 30.1609 11.2886 30.1993 11.2971C30.2377 11.3056 30.2775 11.3058 30.316 11.2975C30.3545 11.2893 30.3908 11.2729 30.4223 11.2494C30.4539 11.2259 30.48 11.1958 30.499 11.1613C30.7723 10.7571 31.0742 10.373 31.4024 10.0119C31.4313 9.98558 31.45 9.94994 31.4553 9.91121C31.4606 9.87249 31.4522 9.83313 31.4315 9.79998C31.402 9.75826 31.3594 9.72766 31.3104 9.71311C31.2614 9.69856 31.209 9.70091 31.1616 9.71977C31 9.75627 30.9216 9.90462 30.7848 10.0511ZM36.3757 19.6402C36.7497 19.6266 36.9046 19.0108 37.2395 19.5082C37.5595 19.3387 37.8222 19.0781 37.9942 18.7593C37.6836 18.532 37.6609 19.1077 37.3962 18.9046C37.3259 18.6908 37.8818 18.6097 37.536 18.3878C37.0083 18.0491 37.4941 18.7029 37.2652 18.6987C37.227 18.698 37.1902 18.7639 37.1483 18.7924C36.8621 19.0475 36.6032 19.3316 36.3757 19.6402ZM28.1168 13.1574C28.5488 12.5564 28.9808 11.9553 29.4971 11.2371C29.1384 11.434 28.8283 11.7086 28.5895 12.0409C28.3506 12.3732 28.1891 12.7546 28.1168 13.1574ZM28.7544 12.8936C29.1166 12.5314 29.4785 12.169 29.8402 11.8064C29.9182 11.7279 29.9558 11.6316 29.8625 11.5428C29.845 11.5236 29.8236 11.5084 29.7997 11.4982C29.7758 11.488 29.7501 11.483 29.7241 11.4835C29.6981 11.4841 29.6726 11.4903 29.6492 11.5016C29.6258 11.5128 29.6051 11.529 29.5885 11.549C29.2962 11.9865 28.8622 12.3289 28.7544 12.8936ZM42.1943 18.1476C42.2328 18.1186 42.2637 18.0805 42.2841 18.0368C42.3046 17.993 42.3141 17.9449 42.3117 17.8967C42.3093 17.8485 42.2952 17.8015 42.2705 17.76C42.2459 17.7185 42.2114 17.6837 42.1702 17.6585C42.1336 17.6216 42.0893 17.5932 42.0406 17.5752C41.9918 17.5572 41.9397 17.55 41.8879 17.5543C41.8361 17.5585 41.7859 17.574 41.7407 17.5997C41.6955 17.6254 41.6565 17.6606 41.6264 17.703C41.4834 17.8401 41.3897 18.0022 41.5907 18.1562C41.6739 18.2311 41.7823 18.2718 41.8942 18.2702C42.0061 18.2686 42.1132 18.2248 42.1943 18.1476ZM39.7297 11.2897C39.9498 11.8554 40.3582 12.3279 40.886 12.6275C40.6043 12.1015 40.2094 11.6446 39.7297 11.2897ZM30.5102 9.94025C30.0843 10.1964 29.7405 10.5689 29.5194 11.0139C30.1687 10.8238 30.221 10.2795 30.5102 9.94025ZM36.4613 21.4185C36.0928 21.1399 36.0491 21.1267 35.8571 21.2852C35.7808 21.3482 35.6931 21.4517 35.7971 21.5381C35.9793 21.6892 36.179 21.5848 36.3666 21.5222C36.4054 21.5092 36.4302 21.4543 36.4613 21.4185ZM39.7593 18.672C39.7761 18.5536 39.6935 18.4647 39.5963 18.387C39.4628 18.2801 39.3093 18.2483 39.197 18.3945C39.0935 18.5291 39.2066 18.6308 39.3197 18.6899C39.45 18.7579 39.5927 18.8419 39.7593 18.672ZM41.5518 18.5922C41.572 18.577 41.5883 18.5573 41.5994 18.5347C41.6105 18.5121 41.6162 18.4872 41.616 18.462C41.6157 18.4368 41.6095 18.412 41.5979 18.3896C41.5863 18.3673 41.5696 18.3479 41.5492 18.3332C41.4383 18.2234 41.327 18.1078 41.1543 18.1783C41.028 18.2299 41.0514 18.3353 41.1079 18.4277C41.1247 18.469 41.1498 18.5063 41.1818 18.5373C41.2138 18.5683 41.2519 18.5923 41.2936 18.6078C41.3354 18.6232 41.3799 18.6298 41.4244 18.6272C41.4688 18.6245 41.5123 18.6125 41.5518 18.5922ZM40.6719 17.6967C40.5467 17.5627 40.3984 17.4796 40.2615 17.5814C40.1471 17.6664 40.2006 17.8118 40.3005 17.9055C40.3242 17.9347 40.3537 17.9586 40.3871 17.9758C40.4205 17.993 40.4571 18.0031 40.4946 18.0055C40.5321 18.0079 40.5697 18.0025 40.605 17.9896C40.6403 17.9768 40.6726 17.9567 40.6998 17.9308C40.8133 17.8327 40.7137 17.7581 40.6719 17.6967ZM38.6544 17.405C38.7005 17.4425 38.7589 17.4612 38.8182 17.4576C38.8774 17.454 38.9331 17.4282 38.9742 17.3854C38.9962 17.3734 39.0151 17.3566 39.0295 17.3362C39.044 17.3159 39.0536 17.2925 39.0577 17.2678C39.0618 17.2432 39.0603 17.2179 39.0531 17.194C39.046 17.17 39.0336 17.148 39.0167 17.1296C38.9972 17.1054 38.9726 17.086 38.9446 17.0726C38.9166 17.0593 38.886 17.0523 38.855 17.0523C38.824 17.0523 38.7934 17.0593 38.7654 17.0726C38.7374 17.086 38.7128 17.1054 38.6933 17.1296C38.6712 17.144 38.6525 17.1629 38.6384 17.1852C38.6243 17.2074 38.6151 17.2324 38.6114 17.2585C38.6077 17.2845 38.6097 17.3111 38.6171 17.3364C38.6245 17.3616 38.6373 17.385 38.6544 17.405ZM42.673 16.8194C42.7629 17.0759 42.7964 17.2722 43.0423 17.2946C43.0602 17.2969 43.0785 17.2951 43.0957 17.2894C43.1129 17.2837 43.1285 17.2742 43.1415 17.2616C43.1545 17.2489 43.1645 17.2336 43.1707 17.2165C43.1769 17.1995 43.1792 17.1814 43.1775 17.1633C43.1451 16.9388 42.9889 16.8463 42.673 16.8194ZM29.9166 22.4678C29.8621 22.4792 29.8107 22.502 29.7657 22.5346C29.7207 22.5672 29.683 22.609 29.6552 22.6571C29.6035 22.7274 29.6222 22.7913 29.711 22.8018C29.856 22.819 29.9255 22.7126 29.9865 22.605C30.0167 22.5517 29.9988 22.5084 29.9166 22.4678ZM40.3106 18.2117C40.1807 18.0587 40.1091 17.8634 39.8591 17.9208C39.8406 17.9341 39.8257 17.9519 39.816 17.9726C39.8062 17.9932 39.8019 18.016 39.8033 18.0389C39.8187 18.0888 39.8457 18.1345 39.8821 18.172C39.9185 18.2095 39.9633 18.2379 40.0128 18.2547C40.0623 18.2716 40.1151 18.2765 40.1669 18.269C40.2186 18.2615 40.2679 18.2419 40.3106 18.2117ZM35.6459 20.9118C35.423 20.821 35.2556 20.8699 35.1745 21.1085C35.173 21.1313 35.1774 21.1542 35.1872 21.1748C35.1971 21.1954 35.2122 21.2132 35.2309 21.2263C35.4501 21.2986 35.5385 21.1372 35.6284 20.9866C35.6378 20.9627 35.6437 20.9375 35.6459 20.9118ZM38.4224 17.7995C38.4926 17.7324 38.5842 17.6606 38.5117 17.5562C38.4344 17.4449 38.328 17.4974 38.2612 17.5714C38.1971 17.6422 38.1388 17.7448 38.2355 17.8336C38.2975 17.8904 38.3678 17.8542 38.4224 17.7995ZM38.8031 18.1022C38.8386 18.021 38.9604 17.9457 38.8225 17.8573C38.7915 17.8364 38.7546 17.8262 38.7173 17.8283C38.68 17.8303 38.6444 17.8445 38.616 17.8687C38.5298 17.9355 38.478 18.018 38.5467 18.1188C38.6347 18.2482 38.7169 18.1248 38.8031 18.1022ZM38.0671 17.9905C38.0267 17.9606 37.9762 17.9478 37.9265 17.9548C37.8767 17.9618 37.8318 17.988 37.8012 18.0279C37.7758 18.0531 37.7566 18.084 37.7452 18.118C37.7339 18.152 37.7307 18.1882 37.7359 18.2236C37.788 18.3419 37.8888 18.328 37.9747 18.245C38.043 18.179 38.1333 18.1173 38.0671 17.9905ZM44.2474 17.1261C44.2636 17.1058 44.2752 17.0823 44.2815 17.0572C44.2879 17.0321 44.2889 17.0059 44.2843 16.9804C44.2798 16.9549 44.2699 16.9307 44.2552 16.9093C44.2406 16.8879 44.2216 16.8699 44.1995 16.8564C44.1865 16.8427 44.1705 16.8322 44.1528 16.8257C44.1351 16.8191 44.1161 16.8167 44.0974 16.8186C44.0786 16.8206 44.0605 16.8268 44.0445 16.8368C44.0285 16.8468 44.015 16.8603 44.005 16.8764C43.9878 16.895 43.9752 16.9174 43.9682 16.9418C43.9613 16.9662 43.9602 16.9919 43.965 17.0168C43.9699 17.0417 43.9805 17.0652 43.9961 17.0852C44.0117 17.1052 44.0318 17.1213 44.0548 17.1321C44.1163 17.1697 44.1911 17.2032 44.2474 17.1261ZM38.1516 18.3303C38.1498 18.3853 38.1224 18.467 38.1501 18.5197C38.2299 18.6719 38.3086 18.5468 38.3681 18.4926C38.4209 18.4446 38.4484 18.3669 38.3681 18.311C38.3354 18.2885 38.2958 18.2781 38.2563 18.2817C38.2168 18.2852 38.1798 18.3024 38.1516 18.3303ZM30.53 11.4823C30.6424 11.402 30.8483 11.3976 30.7769 11.1742C30.7176 11.215 30.6625 11.2615 30.6122 11.3129C30.5781 11.3659 30.5506 11.4228 30.53 11.4823Z" fill="black"/>
<path d="M32.6779 15.4072C32.8814 15.1886 33.1484 15.0394 33.4412 14.9805C33.734 14.9217 34.0379 14.9563 34.31 15.0793C34.4054 15.1171 34.4948 15.1698 34.5895 15.2095C35.674 15.6645 35.9624 16.3375 35.5384 17.4257C35.4662 17.6068 35.3491 17.7667 35.1982 17.8901C35.0473 18.0136 34.8674 18.0967 34.6756 18.1316C34.1584 18.2366 33.6207 18.1421 33.1704 17.8671C32.72 17.592 32.3905 17.1567 32.2478 16.6487C32.1886 16.4224 32.1978 16.1837 32.2744 15.9627C32.351 15.7417 32.4914 15.5484 32.6779 15.4072ZM35.0851 16.2173C34.7832 15.8319 34.5515 15.6162 34.275 15.6532C33.8798 15.6377 33.484 15.6521 33.0909 15.6963C33.0172 15.7252 32.9569 15.7804 32.9216 15.8513C32.8864 15.9222 32.8788 16.0037 32.9003 16.0799C32.9424 16.2412 33.0914 16.2234 33.2144 16.2236C33.7726 16.2246 34.3308 16.2204 35.0851 16.2173ZM32.9783 16.9362C33.1016 17.0792 33.2566 17.1912 33.431 17.2634C33.6054 17.3356 33.7943 17.3659 33.9825 17.3519C34.1707 17.3379 34.353 17.28 34.5148 17.1828C34.6766 17.0857 34.8134 16.9519 34.9141 16.7923C34.2703 16.6292 33.5909 16.6797 32.9783 16.9362Z" fill="black"/>
<path d="M27.6547 17.0568C27.9596 17.5617 28.2139 18.0954 28.4138 18.6502C28.1544 18.4787 27.9467 18.2397 27.813 17.959C27.6792 17.6782 27.6245 17.3663 27.6547 17.0568Z" fill="black"/>
<path d="M8.32132 34.6432C7.80539 35.1593 7.30313 35.69 6.76952 36.1871C6.24495 36.6757 5.68854 37.1302 5.12081 37.6216C5.83186 36.567 7.75994 34.7792 8.32132 34.6432Z" fill="black"/>
<path d="M11.6614 34.0724C12.7211 33.8803 13.802 33.8137 14.9828 33.547C14.402 33.9547 13.2841 34.1362 11.6614 34.0724Z" fill="black"/>
<path d="M4.38382 38.1222C3.68894 38.5584 3.1073 39.153 2.68659 39.8574C2.96891 38.996 3.37975 38.259 4.38382 38.1222Z" fill="black"/>
<path d="M18.0925 31.2921L20.2351 29.1494C19.8398 30.1632 18.9395 30.6995 18.2303 31.4162L18.0925 31.2921Z" fill="black"/>
<path d="M16.7386 32.497C16.5486 32.6833 16.3207 32.8264 16.0705 32.9167C15.8202 33.007 15.5535 33.0424 15.2883 33.0205C15.728 32.7427 16.2229 32.5641 16.7386 32.497Z" fill="black"/>
</svg>
