<svg viewBox="0 0 48 48" fill="none" xmlns="http://www.w3.org/2000/svg">
<path d="M36.4068 1.37208C33.6922 1.37208 30.9776 1.37208 28.263 1.93071C27.472 2.0844 26.681 1.97767 25.8789 1.86946C25.3556 1.79885 24.8275 1.72759 24.2917 1.72759C24.2533 1.72759 24.2149 1.7243 24.1757 1.71941C24.1434 1.71534 24.1105 1.71023 24.0766 1.70493C23.99 1.69138 23.8967 1.67678 23.7889 1.67678C23.3868 1.72759 22.9343 1.62601 23.0349 1.11815C23.1354 0.661069 23.5376 0.356367 24.0403 0.508718C26.0511 1.11815 28.0619 1.11815 30.0727 0.661069C31.2456 0.390247 32.463 0.345084 33.6805 0.299921H33.681C34.2899 0.277355 34.8987 0.254789 35.502 0.204016C35.7198 0.187092 35.9377 0.18145 36.1555 0.175809C36.591 0.164495 37.027 0.153181 37.4625 0.051634C37.8647 -0.0499127 38.3674 -0.0499127 38.3674 0.508718C38.4176 1.01658 38.116 1.16893 37.6133 1.11815C37.3117 1.11815 37.01 1.20386 36.7084 1.28957L36.7055 1.2904L36.6559 1.30451L36.6132 1.31654C36.5802 1.3258 36.5471 1.33498 36.5141 1.34394C36.4783 1.35364 36.4426 1.36306 36.4068 1.37208Z" fill="black"/>
<path d="M10.3668 25.2414C10.4672 24.8355 10.5676 24.4803 10.6681 24.1252L10.6684 24.1241C10.6349 24.0225 10.6349 23.9153 10.6349 23.8137C10.6349 23.6106 10.6349 23.43 10.3668 23.3623C10.0202 23.3234 9.96862 23.5526 9.91825 23.7762C9.90286 23.8445 9.88758 23.9123 9.86405 23.9717C9.52708 24.7455 9.45146 25.5569 9.37554 26.3716C9.32687 26.8938 9.27809 27.4173 9.16027 27.933C9.10999 28.0854 9.10999 28.2885 9.26081 28.3901C9.43581 28.5227 9.57273 28.4245 9.70473 28.3299C9.7244 28.3157 9.74396 28.3017 9.76352 28.2885C10.2662 27.933 10.3668 27.4759 10.2662 26.9173C10.1657 26.3587 10.2159 25.8 10.3668 25.2414Z" fill="black"/>
<path d="M39.8755 23.8194C39.8755 24.0225 39.8755 24.2764 39.7749 24.4796C39.6241 24.8859 39.3728 25.2414 38.8701 25.1398C38.4176 25.0382 38.3171 24.5812 38.4176 24.2257C38.4787 23.9479 38.4284 23.6889 38.3796 23.4373C38.348 23.2748 38.3171 23.1154 38.3171 22.956C38.3171 22.8901 38.2747 22.8188 38.2313 22.7457C38.1408 22.5934 38.0455 22.433 38.3171 22.2958C38.669 22.1434 39.1214 22.0927 39.2722 22.4482C39.299 22.4842 39.3261 22.5202 39.3533 22.5563C39.6331 22.9277 39.9213 23.3103 39.8755 23.8194Z" fill="black"/>
<path d="M8.36154 37.9773C8.21632 38.5416 8.07108 39.1059 8.10459 39.7153C8.12418 39.8143 8.11324 39.9209 8.1015 40.0353C8.08312 40.2144 8.06281 40.4125 8.15486 40.6295C8.30568 40.8834 8.45649 41.0357 8.70784 40.985C8.95919 40.985 9.10999 40.731 9.05974 40.5279C8.90171 39.9212 9.04174 39.3346 9.18001 38.7555C9.26166 38.4135 9.34269 38.0741 9.36135 37.7347C9.36135 37.5315 9.36135 37.3284 9.31109 37.176C9.26081 36.9729 9.16027 36.719 8.90892 36.719C8.65756 36.719 8.55703 36.9729 8.55703 37.1252C8.50676 37.413 8.43415 37.6951 8.36154 37.9773Z" fill="black"/>
<path d="M32.4857 44.6416C32.6607 44.6416 32.8205 44.6568 32.9716 44.6712C33.2982 44.7024 33.584 44.7296 33.8933 44.5907C34.2452 44.4384 34.4965 44.7431 34.396 45.1494C34.2452 45.708 33.7927 45.9112 33.2398 45.8096C32.6365 45.6573 32.0333 45.6065 31.4301 45.8096C31.1787 45.9112 30.7765 45.9112 30.7263 45.5049C30.676 45.0986 30.9776 44.997 31.2792 44.997C31.483 44.997 31.6664 44.894 31.8432 44.7946C32.0589 44.6734 32.2647 44.5578 32.4857 44.6416Z" fill="black"/>
<path d="M9.6127 33.9765C9.46189 32.8592 9.6127 31.7927 9.81379 30.7262C9.81379 30.4723 9.71324 30.1676 9.41162 30.066C9.21685 30.066 9.21074 30.1931 9.20378 30.3378C9.19996 30.4172 9.19589 30.5019 9.16027 30.5739C8.87983 31.2349 8.85048 31.9155 8.8208 32.6035C8.8026 33.0255 8.78428 33.4502 8.70784 33.875C8.70494 33.8954 8.70172 33.9159 8.6983 33.9363C8.69323 33.9666 8.68774 33.9968 8.68231 34.0266L8.68213 34.0275C8.62769 34.3265 8.57911 34.5933 9.00946 34.6368C9.46189 34.7383 9.66297 34.2812 9.6127 33.9765Z" fill="black"/>
<path d="M36.7084 18.1314C36.6068 18.4051 36.3911 18.5636 36.1843 18.7155C36.0842 18.7891 35.9861 18.8611 35.9041 18.9439C35.7533 19.1471 35.5522 19.0455 35.4014 18.8932C34.9992 18.4869 34.5468 18.233 34.0441 18.0298C33.8933 17.979 33.5917 17.8266 33.8933 17.5727C33.9846 17.4989 34.056 17.3582 34.1243 17.2235C34.2442 16.9872 34.3547 16.7692 34.5468 16.9633C34.8059 17.1989 35.1184 17.286 35.4224 17.3708C35.7082 17.4506 35.9865 17.5282 36.2057 17.7251C36.4068 17.8266 36.5576 17.979 36.7084 18.1314Z" fill="black"/>
<path d="M28.7154 45.1494H25.4981C25.2468 45.1494 25.0457 45.2002 24.9954 45.4541C24.9452 45.708 25.1965 45.8096 25.3976 45.8604C26.2036 46.0454 27.0363 46.0147 27.8568 45.9844L27.8594 45.9843C28.1639 45.9731 28.4666 45.962 28.7657 45.962C29.0171 45.962 29.1679 45.708 29.1679 45.5049C29.1679 45.251 28.9668 45.1494 28.7154 45.1494Z" fill="black"/>
<path d="M38.5182 41.8991C38.7193 40.9342 38.8701 40.0708 38.8701 39.2075C38.8701 38.852 39.1214 38.5473 39.4733 38.598C39.9257 38.6996 39.9257 39.1059 39.8252 39.4614C39.7247 39.7661 39.7247 40.0708 39.7749 40.3248C39.7749 41.3405 39.6744 41.4928 38.5182 41.8991Z" fill="black"/>
<path d="M9.80135 20.3406C9.80218 20.6704 9.80301 20.9972 9.66297 21.2801C9.66297 21.6356 9.66297 21.8895 10.0651 21.9403C10.3668 21.9911 10.5176 21.788 10.5678 21.534C10.6504 21.242 10.6737 20.9414 10.6967 20.6429C10.7298 20.2145 10.7626 19.7901 10.97 19.401C11.0706 19.2487 10.97 18.7916 10.6181 18.69C10.2762 18.6132 10.1927 18.8266 10.1072 19.045C10.0795 19.1155 10.0517 19.1866 10.0149 19.2487C9.79942 19.5752 9.80038 19.96 9.80135 20.3406Z" fill="black"/>
<path d="M25.9003 15.7444C26.403 15.6429 26.7046 15.846 26.6544 16.1507C26.6041 16.557 26.2522 16.9125 25.9003 16.8617C25.7487 16.849 25.5939 16.8426 25.4384 16.8362C24.975 16.8172 24.5046 16.7979 24.0906 16.6078C24.0665 16.5956 24.0424 16.5842 24.0187 16.573C23.8449 16.4904 23.6944 16.4189 23.7387 16.1507C23.7889 15.8968 23.99 15.7952 24.1911 15.7952C24.3657 15.7952 24.5403 15.8037 24.7125 15.8121H24.713C25.1355 15.8328 25.5433 15.8527 25.9003 15.7444Z" fill="black"/>
<path d="M19.9181 45.4033C20.5214 45.708 21.1246 45.9112 21.8284 45.8604C21.8741 45.8604 21.9243 45.865 21.9792 45.8701C22.1056 45.8818 22.2564 45.8958 22.4316 45.8604L22.4623 45.8553C22.7597 45.8057 23.1338 45.7435 23.0852 45.3018C23.0457 44.9031 22.7894 44.9425 22.5594 44.9779C22.4964 44.9876 22.4354 44.997 22.3814 44.997C22.1937 44.9844 22.0091 44.9812 21.8269 44.978C21.277 44.9685 20.7483 44.9593 20.2197 44.6923C20.0689 44.6416 19.7673 44.54 19.6668 44.7939C19.516 45.0478 19.717 45.251 19.9181 45.4033Z" fill="black"/>
<path d="M19.3149 17.0141H18.9127C18.5608 17.0141 18.2089 16.9125 18.2089 16.557C18.2089 16.1774 18.4864 16.1481 18.7533 16.12L18.7885 16.1163L18.8193 16.1128C18.837 16.1108 18.8545 16.1086 18.8717 16.1062C18.8856 16.1043 18.8992 16.1022 18.9127 16.1C19.1641 16.0745 19.4156 16.0618 19.667 16.0491C19.9183 16.0364 20.1696 16.0238 20.4208 15.9984C20.4457 15.9984 20.4713 15.9976 20.4972 15.9968C20.681 15.9913 20.8795 15.9853 20.9235 16.2523C20.9618 16.4845 20.8542 16.5692 20.7341 16.6639C20.6966 16.6934 20.6578 16.7239 20.6219 16.7602C20.3711 17.0136 20.0691 17.0089 19.7343 17.0038C19.5994 17.0017 19.4592 16.9995 19.3149 17.0141Z" fill="black"/>
<path d="M14.7502 43.965C14.608 43.934 14.4702 43.904 14.3381 43.8798C13.9862 43.829 13.7349 43.8798 13.6343 44.1845C13.5338 44.3368 13.6846 44.4384 13.7851 44.4892C13.8879 44.5238 13.9906 44.5593 14.0934 44.5949C14.7456 44.8205 15.4028 45.0478 16.0976 45.0478C16.4495 45.0478 16.6003 44.7939 16.6003 44.4892C16.6003 44.286 16.3992 44.1337 16.1981 44.1337C15.7007 44.1723 15.2033 44.0639 14.7502 43.965Z" fill="black"/>
<path d="M30.3744 16.4555H30.9273C30.9517 16.4555 30.9765 16.455 31.0016 16.4545H31.0034C31.2361 16.4499 31.4853 16.445 31.5306 16.8109C31.5306 17.1664 31.3798 17.4712 30.9776 17.4712C30.4749 17.4712 29.9722 17.4712 29.4695 17.3188C29.1679 17.2172 29.0673 17.0649 29.0673 16.7602C29.0673 16.4047 29.369 16.4047 29.57 16.4047C29.8717 16.4555 30.123 16.4555 30.3744 16.4555Z" fill="black"/>
<path d="M15.4283 16.4079C15.3223 16.4247 15.2157 16.4417 15.1424 16.4047C15.0016 16.4224 14.8545 16.434 14.7034 16.4459C14.4233 16.4679 14.1294 16.491 13.8354 16.557C13.8129 16.5616 13.7896 16.5653 13.7657 16.5686C13.7403 16.5722 13.7143 16.5752 13.6881 16.5783C13.4657 16.6047 13.2322 16.6323 13.2322 16.9633C13.2322 17.3696 13.6343 17.4712 13.936 17.4204C14.3381 17.3188 14.7403 17.268 15.1424 17.268C15.5949 17.268 15.796 16.9125 15.796 16.6078C15.796 16.3496 15.6132 16.3786 15.4283 16.4079Z" fill="black"/>
<path d="M38.669 20.3152C38.4679 20.7214 38.0155 20.8738 37.6636 20.8738C37.2111 20.9246 37.0101 20.3152 36.9598 20.0105C36.9095 19.655 37.4625 19.2487 37.7138 19.2994C38.2166 19.401 38.4679 19.8581 38.669 20.3152Z" fill="black"/>
<path d="M11.3722 43.2195C11.0203 42.9148 10.6181 42.7117 10.1154 42.6609C10.074 42.6748 10.0251 42.6773 9.97483 42.6798C9.84184 42.6865 9.69945 42.6937 9.66297 42.9148C9.6127 43.0672 9.71324 43.2195 9.86405 43.3211C10.1657 43.575 10.4673 43.829 10.8192 44.0321C11.0706 44.1845 11.3722 44.1337 11.523 43.8798C11.6738 43.6258 11.5733 43.3719 11.3722 43.2195Z" fill="black"/>
<path d="M35.9544 44.6923C36.1555 44.3368 36.3063 44.0321 36.4068 43.7274C36.5073 43.4227 36.7587 43.4227 37.0101 43.4735C37.1609 43.4735 37.2614 43.5243 37.3117 43.6766C37.3619 43.9305 37.1609 44.0829 37.0101 44.1845C36.9193 44.2369 36.8352 44.2926 36.7527 44.3474L36.7519 44.348C36.5146 44.5054 36.2897 44.6547 35.9544 44.6923Z" fill="black"/>
<path fill-rule="evenodd" clip-rule="evenodd" d="M34.6831 31.9935C34.7304 31.7896 34.7746 31.5991 34.7479 31.4373C34.7479 30.8786 34.7479 30.4723 34.5971 30.066C34.2452 28.898 33.3906 28.5932 32.4355 29.4058C31.8825 29.8629 31.3295 32.453 31.7317 33.0624C32.0836 33.5702 32.536 33.9765 33.1392 33.875C33.843 33.7734 34.5971 33.5702 34.5971 32.5545C34.5971 32.364 34.6413 32.1735 34.6831 31.9935ZM33.82 31.1442C33.8318 31.2454 33.843 31.3414 33.843 31.4373C33.8065 31.5848 33.7965 31.739 33.7866 31.8926C33.7691 32.1621 33.7518 32.4297 33.5917 32.6561C33.3906 32.91 33.1895 33.0624 32.8376 32.91C32.536 32.8084 32.2344 32.6561 32.4355 32.199C32.5863 31.8181 32.6523 31.4372 32.7182 31.0563C32.7402 30.9293 32.7622 30.8024 32.7873 30.6755C32.8376 30.32 33.0387 29.9645 33.3906 30.0152C33.7425 30.066 33.7927 30.4215 33.7927 30.777C33.7927 30.911 33.8068 31.0309 33.82 31.1442Z" fill="black"/>
<path fill-rule="evenodd" clip-rule="evenodd" d="M17.9576 14.424C18.3955 14.4732 18.5508 14.2844 18.7883 13.996L18.8122 13.9669C19.5854 13.0036 20.2396 11.9601 20.8969 10.9118C21.5217 9.91543 22.1492 8.91468 22.8841 7.97423C23.4873 7.21244 24.0906 6.50143 24.7441 5.79045C24.7658 5.74653 24.8063 5.71212 24.8453 5.67898C24.8965 5.63546 24.9452 5.59418 24.9452 5.53652C25.4545 3.99286 26.6461 4.2157 27.7345 4.41923L27.7403 4.42034C27.7843 4.42856 27.8281 4.43671 27.8717 4.44474C27.9186 4.45339 27.9653 4.46185 28.0117 4.47C28.6451 4.59188 29.2785 4.60409 29.9119 4.61628C30.3342 4.6244 30.7564 4.63252 31.1787 4.67316C31.7006 4.69343 32.2145 4.69752 32.7268 4.70158H32.728C33.4982 4.70769 34.2648 4.71376 35.0495 4.77473C36.3563 4.87628 37.663 4.84243 38.9697 4.80858H38.9706C39.6241 4.79166 40.2776 4.77473 40.9312 4.77473C41.6349 4.77473 41.8863 5.07944 41.5344 5.73965C41.2644 6.20333 40.9364 6.63773 40.6127 7.06642C40.3337 7.43593 40.0579 7.8012 39.8252 8.17735C39.372 8.93375 38.8648 9.65896 38.358 10.3835L38.3576 10.384C37.5715 11.5079 36.7864 12.6303 36.2057 13.8654C36.1031 14.0728 35.9539 14.2331 35.7739 14.4264C35.6895 14.5172 35.5983 14.6152 35.502 14.7287C36.1451 14.8417 36.6949 15.1433 37.2379 15.4411C37.6711 15.6787 38.1 15.9139 38.5684 16.0491C38.6119 16.0638 38.6553 16.0742 38.6963 16.084C38.7977 16.1084 38.8845 16.1292 38.9203 16.2015L38.9746 16.2691C40.4632 18.1234 41.8827 19.8916 41.5847 22.6513C41.3836 24.7505 41.4506 26.8947 41.5176 29.039L41.5177 29.0404C41.5512 30.1121 41.5847 31.1838 41.5847 32.2498C41.5847 33.4616 41.4655 34.6562 41.346 35.8535C41.2602 36.7135 41.1743 37.5754 41.1322 38.4457C41.0317 40.6802 40.3279 42.7117 39.5236 44.7431C38.8701 46.4191 37.4625 47.0285 35.8538 47.2824C35.8282 47.2871 35.8025 47.2917 35.7767 47.2962C35.7413 47.3024 35.7057 47.3084 35.67 47.3143L35.6058 47.3248L35.5391 47.3354C35.4991 47.3417 35.459 47.348 35.4189 47.3543L35.418 47.3545L35.4173 47.3545C34.9955 47.4204 34.5676 47.4873 34.1949 47.6379C32.8879 48.095 31.5306 48.0442 30.1733 47.8918C28.8079 47.7419 27.4601 47.8221 26.1092 47.9025C25.172 47.9583 24.2333 48.0142 23.2862 47.9934C21.376 47.9934 19.516 47.9934 17.656 47.6379C17.103 47.5363 16.55 47.4348 15.9468 47.4348C13.8354 47.4855 11.7241 47.13 9.71324 46.4191C8.70784 46.0635 7.95378 45.1494 7.35053 44.286C6.04351 42.3562 5.84242 40.1724 6.09377 37.887C6.34512 35.5509 6.49594 33.2148 6.54622 30.8278C6.55291 30.4557 6.55783 30.0827 6.56276 29.7092L6.5628 29.704C6.59474 27.2753 6.62699 24.8234 7.14945 22.4482C7.25753 21.9646 7.35137 21.4763 7.44557 20.9861L7.44589 20.9845C7.65828 19.8792 7.87246 18.7646 8.25541 17.6743C8.95919 15.6937 9.76352 15.0842 11.7743 14.7795C12.4872 14.6687 13.2001 14.6486 13.913 14.6284H13.914C14.5078 14.6116 15.1016 14.5948 15.6954 14.5256C15.7374 14.515 15.7772 14.5066 15.8152 14.4986C15.9594 14.4682 16.0788 14.443 16.1981 14.3224C16.5215 13.9277 16.8666 13.5402 17.213 13.1512C18.1589 12.089 19.1148 11.0156 19.6668 9.75173C20.3581 8.24474 21.2073 6.84417 22.0621 5.43451L22.064 5.43144C22.3896 4.89435 22.7161 4.35593 23.0349 3.80979C23.1354 3.60664 23.2862 3.45429 23.4873 3.35271C23.7387 3.25116 24.0906 3.14958 24.3419 3.40351C24.4991 3.60193 24.3799 3.76931 24.2484 3.95415C24.2363 3.97107 24.2242 3.98815 24.2122 4.00538C24.1874 4.04088 24.163 4.07714 24.1408 4.11449C23.8239 4.67957 23.4724 5.21669 23.1222 5.75176C22.5281 6.65942 21.9379 7.56125 21.5268 8.58366C20.9235 10.0057 20.0689 11.4277 18.963 12.5449C18.9226 12.6011 18.8816 12.6573 18.8406 12.7136C18.4729 13.218 18.0932 13.7388 17.9576 14.424ZM40.1268 37.9378C39.6576 38.1353 39.1885 38.1178 38.7193 38.1002C38.5852 38.0952 38.4512 38.0902 38.3171 38.0902C38.0221 38.0902 37.7271 38.0488 37.4367 38.0081C37.0838 37.9585 36.7378 37.91 36.4068 37.9378C34.5971 38.1918 32.8376 37.9378 31.1284 37.4807C29.9219 37.176 28.8663 36.5158 28.9165 34.9415C28.9165 34.5859 28.816 34.1797 28.7154 33.8242C28.1122 31.8435 28.3636 30.0152 29.369 28.187C30.1733 26.765 31.229 25.9524 32.8879 25.9524C33.7046 25.9524 34.5056 26.0321 35.2996 26.1111L35.3002 26.1112L35.3014 26.1113C35.924 26.1732 36.5424 26.2348 37.1609 26.2571C37.3875 26.268 37.6142 26.274 37.8404 26.2799H37.842L37.8438 26.28L37.8457 26.2801L37.8476 26.2802L37.8557 26.2806L37.862 26.2809C38.6818 26.3028 39.495 26.3246 40.2776 26.5618C40.8308 26.6908 40.6996 26.3103 40.6158 26.0672C40.6006 26.0231 40.587 25.9836 40.5793 25.9524C40.3782 24.8859 40.3279 23.7178 40.3782 22.6005C40.3782 22.5497 40.3783 22.4992 40.3785 22.4489L40.379 22.3374C40.3832 21.4776 40.3869 20.6977 39.976 19.9597C39.8674 19.7646 39.7617 19.5608 39.6547 19.3546C39.316 18.7015 38.9646 18.0237 38.4679 17.5219C36.8592 15.8968 34.7479 15.3382 32.5863 15.2366C31.8993 15.2027 31.2123 15.152 30.5253 15.1012C29.1512 14.9996 27.7771 14.898 26.403 14.9319C24.4425 14.9319 22.4819 15.0842 20.5214 15.3382C20.282 15.3727 20.0426 15.4308 19.8052 15.4883C19.3447 15.6 18.8915 15.7099 18.4603 15.6429C16.2484 15.3382 14.0868 15.3889 11.9251 15.7952C11.0203 15.9476 10.417 16.4047 9.9646 17.1664C8.70784 19.2487 8.30568 21.6864 8.00406 24.0225C7.60188 26.9173 7.55162 29.9137 7.60188 32.8592C7.64211 34.0375 7.55363 35.2158 7.46516 36.3941C7.44304 36.6886 7.42092 36.9831 7.4008 37.2776C7.37434 37.5984 7.33048 37.9191 7.28662 38.2399C7.1638 39.138 7.04097 40.0361 7.30027 40.9342C7.3384 41.0626 7.37581 41.1917 7.41329 41.321C7.82057 42.7266 8.23591 44.1599 9.66297 44.997C10.7689 45.6573 12.0257 45.962 13.2322 46.2159C14.1823 46.4292 15.1602 46.4885 16.1439 46.5482C17.0338 46.6022 17.9288 46.6565 18.8122 46.8253C19.7673 47.0285 20.7225 47.0793 21.7279 47.0793C22.6504 47.1032 23.573 47.0371 24.4956 46.971C25.5336 46.8967 26.5715 46.8223 27.6095 46.8761C27.9034 46.8896 28.1973 46.9049 28.4913 46.9202C30.4101 47.02 32.3339 47.1201 34.2955 46.7238C36.5073 46.2667 38.5182 45.6065 39.3728 43.2703C39.9257 41.5436 40.2776 39.8169 40.1268 37.9378ZM33.7425 6.80616C33.6616 6.87427 33.588 6.93505 33.5196 6.99147L33.519 6.99193L33.5178 6.99286C33.3321 7.1462 33.1854 7.26737 33.0387 7.41557C33.0069 7.43699 32.9707 7.45614 32.9342 7.47542C32.7976 7.54759 32.6577 7.62148 32.7371 7.82188C32.7706 7.95727 32.8711 7.95727 32.9791 7.95731C33.0331 7.95731 33.089 7.95731 33.1392 7.97423C33.4911 8.07581 33.7927 8.22816 33.6419 8.63444C33.4911 9.09152 33.1392 9.04072 32.7873 8.93914C32.7544 8.92962 32.721 8.91834 32.6873 8.9061C32.6528 8.89354 32.6179 8.88 32.5828 8.86636L32.5803 8.86543C32.2848 8.75059 31.9754 8.63029 31.7317 9.04072C31.0279 10.2088 30.9776 10.5135 31.5809 11.1737C32.3349 11.9863 32.2846 12.3418 31.4301 13.002C31.0279 13.3067 30.6257 13.5099 30.0727 13.5607C29.6706 13.5607 29.2684 13.6622 28.9165 13.9162C29.1732 14.1323 29.4299 14.1645 29.7175 14.2005C29.7496 14.2046 29.7821 14.2087 29.8151 14.2131C29.8338 14.2155 29.8527 14.2181 29.8717 14.2209C31.3295 14.2716 32.7873 14.3224 34.2452 14.5256C34.5468 14.5764 34.6976 14.424 34.7982 14.1701C35.483 12.9346 36.2749 11.7593 37.0698 10.5796L37.0702 10.579C37.9088 9.33448 38.7508 8.08489 39.4733 6.75536C39.8252 6.14592 39.7247 5.9428 39.0209 5.9428C38.6187 5.9428 38.2291 5.95548 37.8395 5.96816C37.4499 5.98087 37.0603 5.99357 36.6582 5.99357C36.096 5.96016 35.5285 5.91577 34.9591 5.87123L34.9574 5.87113H34.9537L34.953 5.87104C33.793 5.78025 32.6254 5.68887 31.4803 5.68887C31.3038 5.68887 31.1281 5.68968 30.953 5.69048H30.9524C29.7312 5.696 28.5388 5.70139 27.3079 5.43494C26.8554 5.33336 26.403 5.43494 26.0511 5.79045C25.9376 5.91555 25.8219 6.04069 25.7055 6.16669L25.7049 6.16725C25.2543 6.65477 24.7915 7.15547 24.3922 7.7203C23.6399 8.7141 22.971 9.74153 22.299 10.7736C21.8034 11.5347 21.3062 12.2983 20.7727 13.0528L20.3203 13.8146C20.0689 14.2209 20.1695 14.424 20.6722 14.3224C22.8841 14.0177 25.096 13.8654 27.3079 14.0685C27.6095 14.0685 27.8106 13.9669 28.0619 13.8146C27.9111 13.8146 27.8106 13.8146 27.71 13.7638C27.6223 13.7106 27.504 13.7008 27.3871 13.691C27.169 13.6728 26.956 13.655 26.956 13.3575C26.956 13.002 27.4587 12.9005 27.71 12.9005C28.4148 12.9005 28.7364 12.4304 29.0585 11.9595C29.173 11.7922 29.2875 11.6249 29.4192 11.4784C29.6706 11.2245 29.57 11.0214 29.3187 10.869C28.6652 10.3612 28.5144 9.70093 28.816 9.04072C29.1679 8.27893 29.7711 7.61872 30.7765 7.7203C31.0279 7.7203 31.2792 7.7203 31.4803 7.46637C32.1338 6.39985 32.3852 6.34908 33.7425 6.80616ZM40.6295 30.0152C40.6295 29.8779 40.6238 29.7463 40.6181 29.6166C40.607 29.3627 40.5963 29.1161 40.6295 28.8472C40.7301 28.0346 40.3782 27.6283 39.6241 27.4252C38.9203 27.222 38.2668 27.0697 37.563 27.1712C37.0101 27.222 36.5073 27.222 35.9544 27.1205C35.6935 27.0954 35.4327 27.061 35.1711 27.0265L35.1704 27.0264C34.3735 26.9212 33.5695 26.8152 32.7371 26.9681C32.6501 26.9846 32.5637 26.9999 32.4782 27.015C31.7731 27.1398 31.1298 27.2536 30.7263 27.933C30.61 28.1239 30.4811 28.3105 30.3518 28.4978C30.0338 28.9583 29.713 29.423 29.57 29.9645C29.1333 31.5086 29.4933 32.9761 29.859 34.4669L29.8595 34.4691L29.8619 34.4785C29.9162 34.7 29.9706 34.9219 30.0225 35.1446C30.123 35.5509 30.3241 35.754 30.6257 35.9572C31.9328 36.8205 33.5414 37.0745 34.8987 36.9221C35.6823 36.829 36.4553 36.8532 37.2274 36.8775C38.1395 36.9061 39.0504 36.9348 39.976 36.7698C40.3782 36.6682 40.4787 36.6174 40.529 36.2111C40.529 35.4537 40.5709 34.6893 40.6131 33.9204C40.684 32.6272 40.7556 31.321 40.6295 30.0152ZM30.6257 8.88837C30.6257 8.73602 30.5252 8.63444 30.3744 8.68521C30.0225 8.83759 29.6706 8.98995 29.7208 9.447C29.7208 9.65015 29.8214 9.90408 30.0225 9.85331C30.3327 9.73577 30.4335 9.43699 30.5326 9.14335C30.562 9.05628 30.5912 8.96967 30.6257 8.88837Z" fill="black"/>
<path d="M26.9666 2.85561H26.9602C26.6114 2.85015 26.2732 2.84485 25.9506 2.84485C25.4981 2.7433 25.2468 2.89565 24.9954 3.20036C24.8949 3.35271 24.8949 3.50509 24.9954 3.65744C25.1965 3.91137 25.4479 4.01295 25.7998 3.96214C27.1571 3.65744 28.5144 3.65744 29.8214 3.70821C31.634 3.70821 33.3989 3.85291 35.209 4.00132L35.3511 4.01295C35.935 4.06013 36.508 3.96481 37.0803 3.86962C37.7397 3.75992 38.3984 3.65028 39.0711 3.75902C39.3728 3.80979 39.7749 3.55586 39.7247 2.99723C39.6744 2.43857 39.423 2.43857 38.9706 2.48938C36.4068 2.94643 33.843 2.94643 31.2792 2.84485C30.5754 2.79408 29.9219 2.79408 29.2684 2.84485C28.4855 2.87926 27.7027 2.86708 26.9666 2.85561Z" fill="black"/>
<path d="M23.1857 2.18464C23.1736 2.19685 23.1616 2.2149 23.1488 2.23743C23.1435 2.24679 23.138 2.25693 23.1324 2.26775L23.1227 2.28684L23.116 2.30011L23.1041 2.32425C23.0726 2.38777 23.0349 2.46396 22.9846 2.54015C22.3453 3.62204 21.6805 4.68853 21.0162 5.75431C19.5912 8.0405 18.1682 10.3234 17.0024 12.7481C16.8591 13.0377 16.6647 13.2499 16.4739 13.4582L16.473 13.4591C16.3964 13.5428 16.3203 13.6258 16.2484 13.713C15.997 13.9669 15.6954 14.0685 15.3938 13.7638C15.1834 13.5088 15.29 13.3605 15.4482 13.1402L15.4739 13.1043L15.4896 13.0823C15.5077 13.0566 15.5261 13.03 15.5446 13.002C16.0138 12.291 16.4384 11.5348 16.8629 10.7785C17.0751 10.4005 17.2874 10.0225 17.5052 9.65015C18.6605 7.67095 19.8661 5.69179 21.0716 3.71259L21.0744 3.70821C21.1863 3.51436 21.2829 3.31536 21.3789 3.11778L21.3792 3.11722C21.5849 2.69383 21.7874 2.27689 22.13 1.93071C22.3814 1.67678 22.6327 1.62601 22.9343 1.67678C23.0852 1.72759 23.1857 1.87994 23.1857 2.18464Z" fill="black"/>
</svg>
