<svg width="48" height="48" viewBox="0 0 48 48" fill="none" xmlns="http://www.w3.org/2000/svg">
<path d="M45.8697 38.8741C40.5389 32.2798 35.2079 25.6853 29.8769 19.091C34.58 12.3629 30.6656 3.35752 22.9454 0.794268C17.5045 -1.01225 11.2727 1.29539 6.94305 4.65611C1.02193 9.25213 -0.628216 16.7548 3.32181 23.3C6.56402 28.6722 12.1493 28.7942 17.4892 27.3158C18.4287 28.97 19.1556 30.6682 20.721 31.5884C21.6412 32.1293 24.4785 32.0718 24.9173 32.9586C25.2444 33.6194 24.3442 36.2846 24.2111 37.0242C24.2603 37.107 24.3354 37.1497 24.4363 37.1523C28.6672 37.748 28.5146 37.5323 28.1265 41.7659C28.1757 41.8488 28.2507 41.8915 28.3517 41.894C29.3513 42.0266 32.2136 41.876 32.6752 42.6399C33.115 43.368 32.2226 46.2055 32.0989 47.1799C32.148 47.2628 32.2231 47.3055 32.324 47.308C37.2831 48.1905 51.5098 47.8322 45.8697 38.8741ZM35.8603 46.5648C34.3462 45.7008 35.1751 46.8681 34.8874 45.0588C34.7305 44.0717 35.189 42.6826 35.3169 41.6748C35.2678 41.592 35.1927 41.5492 35.0918 41.5467C30.7198 40.9669 30.7129 41.3025 31.1137 36.93C31.0646 36.8471 30.9895 36.8044 30.8886 36.8018C26.5499 36.191 26.8114 36.3684 27.5831 32.0803C27.534 31.9974 27.4589 31.9547 27.358 31.9522C22.9827 30.6638 22.1995 30.1427 19.8931 26.2596C19.6477 25.8464 18.4347 26.2719 18.1525 26.3659C6.50477 30.2444 0.127057 16.4521 5.88953 7.9085C15.8741 -6.89499 36.1977 7.08987 27.2633 19.659C27.2318 19.7034 27.2423 19.734 27.285 19.7535C27.2719 19.756 27.2588 19.7586 27.2457 19.7611C32.5844 26.365 37.9231 32.969 43.2617 39.5729C43.6879 40.2498 44.0883 41.0491 44.2389 41.8382C44.4077 42.722 44.2082 43.5375 43.7815 44.2554C38.3394 36.3534 31.753 29.0807 25.5247 21.8129C25.0218 21.2261 23.3672 21.9139 23.9311 22.572C30.3118 30.0175 37.0748 37.4629 42.5913 45.5901C40.7241 47.0709 37.7492 47.6428 35.8603 46.5648ZM20.4143 12.4702C20.3152 9.60157 18.2133 7.83094 15.4117 7.76209C12.8239 7.69852 9.97528 8.95638 9.41446 11.7045C8.16927 17.8064 19.9715 18.3642 20.421 12.6814C20.425 12.6308 20.3982 12.5998 20.3925 12.5551C20.3954 12.5256 20.4154 12.5006 20.4143 12.4702ZM12.1164 11.0947C12.6413 9.4137 14.6186 8.95982 16.1015 9.78116C17.2793 10.4335 17.7162 11.7226 17.7934 12.9894C17.4628 16.6393 10.9618 14.7932 12.1164 11.0947Z" fill="black"/>
</svg>
