<svg width="48" height="48" viewBox="0 0 48 48" fill="none" xmlns="http://www.w3.org/2000/svg">
<path d="M6.71974 5.11014C7.66396 5.07329 8.60728 4.99491 9.55258 5.00714C12.7457 5.04847 15.9396 5.12904 19.1329 5.17924C20.2401 5.19665 21.3462 5.14729 22.4534 5.16791C23.7686 5.1924 25.085 5.28561 26.3998 5.30276C29.328 5.34094 32.2557 5.36241 35.1831 5.36717C36.8658 5.37043 38.5467 5.32477 40.229 5.31539C40.5472 5.31078 40.8647 5.3465 41.1739 5.4217C41.4745 5.48055 41.7427 5.64779 41.9272 5.89138C42.1117 6.13498 42.1994 6.4378 42.1736 6.74183C42.2121 8.70818 42.2722 10.6748 42.3137 12.6412C42.3752 15.5592 42.4152 18.477 42.4882 21.3952C42.5598 24.2608 42.656 27.1268 42.753 29.9926C42.742 30.6999 42.7976 31.4066 42.9191 32.1036C43.0844 32.6857 43.3347 33.2405 43.662 33.7501C44.5267 35.2447 45.3674 36.7587 46.337 38.187C46.907 39.0195 47.4065 39.8978 47.8304 40.8127C48.174 41.5603 47.9998 42.0231 47.2692 42.3001C46.4295 42.5912 45.5428 42.724 44.6543 42.6918C41.6821 42.6731 38.7069 42.5392 35.7398 42.6935C34.8478 42.7399 33.947 42.6805 33.0506 42.6808C30.6567 42.6815 28.263 42.6854 25.8694 42.6924C23.6023 42.6957 21.3352 42.6985 19.068 42.7007C17.7777 42.7041 16.4864 42.6948 15.1981 42.7314C12.6183 42.8047 10.0414 42.9235 7.46113 42.9874C6.14811 43.0199 4.83055 42.9817 3.51475 42.9608C2.75249 42.9487 1.98837 42.9323 1.22781 42.8659C0.940478 42.824 0.666857 42.7162 0.428564 42.5509C-0.0121354 42.268 -0.104663 42.022 0.112867 41.5511C0.589601 40.5192 1.08959 39.497 1.62171 38.4938C2.19161 37.4193 2.84006 36.3875 3.39662 35.3062C3.86834 34.3897 4.27832 33.4383 4.67575 32.4846C4.89573 31.9558 4.95977 31.3755 4.86035 30.8117C4.75713 29.9572 4.71509 29.0963 4.73455 28.2358C4.70498 26.003 4.7289 23.7708 4.66779 21.5379C4.5866 18.5708 4.44362 15.6032 4.33002 12.6358C4.26503 10.938 4.19864 9.24021 4.14839 7.54249C4.13877 7.07364 4.15515 6.60461 4.19746 6.13755C4.21863 5.94153 4.30282 5.75756 4.43748 5.61305C4.57214 5.46854 4.75007 5.37122 4.94477 5.33558C5.51445 5.17885 6.11059 5.1076 6.69549 5L6.71974 5.11014ZM47.1659 41.3504C46.8824 40.7771 46.6765 40.2847 46.4067 39.8283C45.121 37.6539 43.8022 35.4979 42.5349 33.3134C42.4572 33.1331 42.3264 32.9804 42.1598 32.8756C41.9933 32.7707 41.7987 32.7186 41.6018 32.7262C40.5232 32.718 39.4437 32.6734 38.365 32.6614C34.6186 32.62 30.8723 32.5831 27.1261 32.5508C22.5843 32.5134 18.0425 32.4804 13.5008 32.4517C11.9202 32.4396 10.3388 32.4054 8.75857 32.4033C7.70618 32.4019 6.65512 32.4397 5.66195 32.4588C4.79397 34.1512 3.97132 35.7919 3.11364 37.4134C2.62105 38.3447 2.04724 39.2315 1.55698 40.164C1.17881 40.7154 0.951846 41.3557 0.89856 42.0213C1.20802 42.1006 1.52373 42.1532 1.84222 42.1788C2.78796 42.1744 3.73137 42.1118 4.67711 42.1068C8.26201 42.0879 11.8472 42.0768 15.4328 42.0735C17.8587 42.0692 20.2852 42.08 22.711 42.0743C24.5296 42.07 26.3475 42.0448 28.1661 42.0387C30.3272 42.0315 32.4892 42.0448 34.6499 42.0299C36.2061 42.0192 37.7609 41.974 39.3165 41.9502C39.7907 41.9429 40.2669 41.9714 40.7403 41.9561C42.0287 41.9144 43.3161 41.7916 44.6041 41.834C45.2816 41.801 45.9569 41.7328 46.6272 41.6296C46.7867 41.6189 46.9327 41.4761 47.1659 41.3504ZM42.2113 31.6537C42.1584 31.4139 42.1223 31.1708 42.103 30.926C42.1126 29.5922 42.1691 28.2596 42.1466 26.9254C42.1102 24.7708 42.0276 22.6154 41.9592 20.4603C41.8651 17.4925 41.7751 14.5247 41.6652 11.557C41.6079 10.0093 41.5047 8.46183 41.4378 6.91414C41.4199 6.50111 41.2318 6.35105 40.8364 6.36849C40.5201 6.38074 40.2033 6.37559 39.8875 6.35307C38.6255 6.26947 37.3637 6.13731 36.1021 6.09941C34.8906 6.06303 33.6802 6.14704 32.4683 6.13173C30.2798 6.10407 28.0904 6.03754 25.9016 5.99656C25.2314 5.98401 24.5617 6.00187 23.8166 6.00625C24.1019 6.36549 24.3174 6.63981 23.9932 6.96887C23.871 7.1239 23.7005 7.23403 23.5086 7.2819C23.3166 7.32977 23.1141 7.31266 22.933 7.23327C22.492 7.01959 22.4972 6.6868 22.6273 6.32068L23.2755 6.06354C23.0777 5.96676 22.8582 5.92221 22.6382 5.93417C20.9741 5.91564 19.3102 5.90398 17.646 5.87795C16.2734 5.85647 14.9004 5.84238 13.528 5.78072C12.1382 5.71826 10.764 5.90164 9.3688 5.81046C8.26772 5.77684 7.16561 5.80619 6.0679 5.89837C5.80903 5.90603 5.55728 5.98458 5.3403 6.1254C5.2552 6.19546 5.18514 6.28188 5.13431 6.3795C5.08348 6.47713 5.05292 6.58395 5.04445 6.69359C5.01371 7.54838 5.02563 8.40653 5.03628 9.26376C5.05748 10.9703 5.07432 12.6769 5.11831 14.3837C5.17234 16.4803 5.26144 18.5773 5.31891 20.6741C5.40678 23.8799 5.477 27.0855 5.5643 30.2913C5.57698 30.7565 5.64288 31.2222 5.68545 31.7024C6.43972 31.7189 7.11333 31.7428 7.78633 31.7464C9.36108 31.755 10.9353 31.7462 12.5102 31.7581C16.7335 31.7899 20.9569 31.8259 25.1804 31.866C27.2666 31.8853 29.3542 31.9438 31.439 31.9315C34.651 31.9126 37.8613 31.852 41.0718 31.7972C41.4539 31.7698 41.8343 31.7219 42.2113 31.6537Z" fill="black"/>
<path d="M41.8822 38.7366C40.4907 38.7062 39.0401 38.6206 37.5963 38.6533C33.5421 38.7451 29.4806 38.5369 25.4253 38.5704C22.7105 38.5928 19.9931 38.5558 17.2777 38.5662C13.9895 38.5788 10.7017 38.6041 7.41449 38.6421C6.47005 38.652 5.5274 38.703 4.58431 38.7403C3.90563 38.7671 3.62125 38.4076 3.89638 37.8154C4.05655 37.4706 4.3023 37.1686 4.49019 36.836C4.78174 36.3199 5.05675 35.7942 5.33886 35.2726C5.55961 34.8645 5.7566 34.4402 6.01232 34.0557C6.06991 33.9627 6.14602 33.8824 6.23597 33.8198C6.32591 33.7572 6.42778 33.7136 6.53529 33.6918C7.97836 33.6447 9.42312 33.623 10.8695 33.6265C12.6882 33.63 14.5084 33.6777 16.3271 33.6816C21.4704 33.6924 26.6136 33.6958 31.7564 33.6919C33.7576 33.6909 35.7589 33.6843 37.7586 33.6516C38.9389 33.6322 40.116 33.552 41.2952 33.5094C41.5743 33.4993 41.8332 33.5707 41.8875 33.9125C42.1031 35.2691 42.8704 36.3948 43.5295 37.5659C43.6753 37.7885 43.8039 38.0219 43.9141 38.264C44.0761 38.6979 43.9096 38.8952 43.4403 38.863C42.9397 38.8285 42.4395 38.7823 41.8822 38.7366ZM29.1184 36.9523L18.151 37.0552C18.122 37.2124 18.103 37.3714 18.094 37.531C18.1059 37.6959 18.1264 37.86 18.1552 38.0228L29.2281 37.9997L29.1184 36.9523ZM8.36464 38.0303L10.8582 38.0848C10.8082 37.6895 10.767 37.3635 10.7288 37.0617L8.09054 37.0041C8.19538 37.3966 8.27407 37.6912 8.36464 38.0303ZM17.306 37.1313L14.723 37.0748C14.6858 37.29 14.66 37.5069 14.6456 37.7248C14.6402 37.7785 14.6467 37.8327 14.6645 37.8837C14.6823 37.9346 14.7111 37.9811 14.7488 38.0198C14.7866 38.0586 14.8323 38.0887 14.8829 38.108C14.9335 38.1273 14.9877 38.1355 15.0417 38.1318C15.8189 38.1351 16.5956 38.1188 17.4396 38.1093L17.306 37.1313ZM30.2363 37.9562L32.7545 38.0112L32.6919 37.0347L30.0922 36.978L30.2363 37.9562ZM11.4843 38.0512L13.9693 38.1055C13.8836 37.6864 13.8197 37.3738 13.7579 37.0717L11.5164 37.0227C11.5049 37.3911 11.495 37.71 11.4843 38.0512ZM33.536 36.9951C33.4624 37.7799 33.5141 37.9969 33.8325 38.011C34.5843 38.0443 35.3367 38.0169 36.1753 38.0137L35.9748 37.0484L33.536 36.9951ZM36.8658 37.9102L39.5378 37.9685L39.4278 37.1103L36.8546 37.0541L36.8658 37.9102ZM7.27371 38.086L7.26046 37.0695C6.75504 37.0585 6.33613 37.0506 5.91717 37.0399C5.78643 37.0238 5.65378 37.0337 5.52691 37.0691C5.40004 37.1044 5.28148 37.1645 5.1781 37.2458C5.07471 37.3271 4.98855 37.4281 4.92462 37.5428C4.86069 37.6575 4.82025 37.7837 4.80565 37.9141C5.62421 38.0199 6.44833 38.0773 7.27371 38.086ZM23.1041 36.4823L23.0256 35.8549L20.0562 35.7901C19.9352 36.2075 19.9885 36.4828 20.4464 36.4876C21.3109 36.4965 22.175 36.4853 23.1041 36.4823ZM25.252 35.2857C25.3487 34.3243 25.2826 34.2418 24.4786 34.2554C24.1134 34.2616 23.7493 34.291 23.3932 34.3094C23.2875 35.1761 23.3266 35.2291 24.1 35.2594C24.4884 35.2746 24.8767 35.2775 25.252 35.2857ZM40.3568 38.0133L42.6252 37.8986C42.6399 37.4862 42.5718 37.1421 42.1977 37.0987C41.5884 37.028 40.971 37.0564 40.3441 37.0427L40.3568 38.0133ZM12.6127 36.4405C12.6619 36.0232 12.618 35.7634 12.2045 35.7703C11.4677 35.7826 10.7307 35.7998 9.99651 35.8435C9.88687 35.8501 9.79201 36.012 9.69032 36.1021C9.79578 36.1959 9.90031 36.3665 10.0069 36.3715C10.8698 36.412 11.7331 36.4213 12.6127 36.4405ZM5.52125 36.4679C6.69516 36.4318 7.75467 36.4229 8.80753 36.3503C9.06991 36.3323 9.0277 36.0637 8.89111 35.8717C7.124 35.7197 6.0708 35.8756 5.52125 36.4679ZM19.2481 36.4596C19.346 35.9764 19.2309 35.7542 18.7892 35.7548C18.2627 35.7555 17.7347 35.7207 17.2085 35.7265C16.656 35.7326 16.65 35.756 16.7935 36.406L19.2481 36.4596ZM13.4051 35.7897C13.2289 36.2493 13.3808 36.4451 13.8066 36.4551C14.3851 36.4686 14.964 36.489 15.5419 36.4858C16.0166 36.4833 16.0248 36.4534 15.8808 35.8438L13.4051 35.7897ZM29.8214 36.4523C29.8228 36.0869 29.7532 35.8412 29.4079 35.8273C28.7788 35.8019 28.1494 35.7964 27.5204 35.7911C27.1139 35.7877 27.0326 36.0018 27.1896 36.3948L29.8214 36.4523ZM36.672 36.3533C36.8077 35.9066 36.7121 35.6734 36.2588 35.6855C35.681 35.7009 35.1036 35.7238 34.5254 35.7303C34.2425 35.7334 33.9667 35.7486 33.9792 36.1129C33.9912 36.464 34.2867 36.4303 34.5129 36.4259C35.2176 36.4122 35.9214 36.38 36.672 36.3533ZM26.3679 36.4316C26.3416 35.8038 26.3406 35.7673 25.9005 35.7649C25.2231 35.7613 24.5473 35.8136 23.848 35.8432L23.8192 36.3759L26.3679 36.4316ZM30.4847 35.2274L32.2545 35.266C32.2449 34.4261 32.1504 34.3192 31.4242 34.3199C31.1172 34.3202 30.8114 34.3537 30.4932 34.3728C30.4705 34.4884 30.4553 34.6054 30.4478 34.723C30.4495 34.8779 30.4694 35.0332 30.4847 35.2274ZM9.73897 34.4392C9.66322 34.3978 9.58283 34.3655 9.49945 34.3429C9.21222 34.3354 8.92507 34.3366 8.63786 34.3334C7.84841 34.3247 7.74479 34.4982 8.11936 35.2715L9.74897 35.2078L9.73897 34.4392ZM22.7291 35.2195C22.6469 34.1953 22.254 34.0156 21.0578 34.4133L21.1953 35.186L22.7291 35.2195ZM33.2785 36.4359L33.2171 35.876C32.4126 35.8584 31.6842 35.8323 30.9566 35.8307C30.557 35.8298 30.5928 36.0754 30.6871 36.3794L33.2785 36.4359ZM27.636 34.3716L26.0381 34.3367L26.0487 35.1551L27.885 35.1953L27.636 34.3716ZM39.562 35.7381C38.949 35.7247 38.4257 35.7105 37.9025 35.7028C37.4896 35.6967 37.3239 35.8788 37.4817 36.3152L39.5702 36.3608L39.562 35.7381ZM12.082 35.1662C12.0097 34.2246 11.895 34.1706 10.4346 34.3397L10.4461 35.2236L12.082 35.1662ZM37.3243 35.1003L39.2963 35.1433C39.1769 34.4325 39.1689 34.408 38.6129 34.3821C38.2278 34.3642 37.8422 34.3971 37.4591 34.4072L37.3243 35.1003ZM32.9257 35.2683L34.6653 35.179L34.4106 34.3954L32.9672 34.3638L32.9257 35.2683ZM18.8801 34.2628L18.8915 35.1361L20.448 35.1701L20.3561 34.295L18.8801 34.2628ZM14.7648 35.1515L16.1629 35.182L16.0223 34.3143L14.7536 34.2866L14.7648 35.1515ZM14.0103 34.3192C12.8698 34.1176 12.688 34.2407 12.7739 35.0995L14.0834 35.1281C14.055 34.8132 14.0341 34.5827 14.0103 34.3192ZM35.3016 35.1893C35.6161 35.1961 35.8959 35.2123 36.1745 35.2063C36.788 35.1931 36.8256 35.1205 36.5901 34.4119L35.187 34.3813L35.3016 35.1893ZM16.827 35.2513L18.2752 35.1898L17.983 34.3159L16.8145 34.2904L16.827 35.2513ZM28.5323 35.2063L29.9913 35.2382L29.5234 34.3068L28.5215 34.3743L28.5323 35.2063ZM7.36137 34.3829C6.60098 34.3473 6.60098 34.3473 6.38492 35.1384L7.37149 35.16L7.36137 34.3829ZM41.9884 36.2327C41.8194 36.0511 41.6078 35.9141 41.3725 35.8341C41.1372 35.754 40.8857 35.7334 40.6404 35.7741C40.4209 35.7819 40.2672 36.0144 40.3546 36.3197C40.6622 36.3264 40.9474 36.3446 41.2306 36.3347C41.432 36.3277 41.6308 36.2828 41.9884 36.2327ZM41.266 35.0325C40.764 34.4089 40.5072 34.2725 40.1834 34.4321C39.9178 34.563 39.9433 34.7803 40.1109 35.0653L41.266 35.0325Z" fill="black"/>
<path d="M16.4279 41.5505C16.6157 40.9283 16.7337 40.4266 16.9206 39.9538C17.0627 39.5944 17.4333 39.5594 17.7848 39.5492C18.8114 39.5196 19.8388 39.5005 20.8645 39.4585C22.809 39.3788 24.7508 39.2595 26.697 39.209C27.7747 39.1811 28.859 39.2587 29.9403 39.2909C30.0199 39.2903 30.0991 39.3029 30.1746 39.3282C30.7154 39.5356 30.9119 40.078 31.2551 40.4719C31.4016 40.7385 31.5023 41.0276 31.553 41.3272C30.4314 41.3555 29.4408 41.3826 28.4499 41.4046C28.0296 41.4139 27.6086 41.4084 27.1883 41.4172C24.8239 41.4668 22.4592 41.5126 20.0955 41.5734C19.3366 41.5929 18.5814 41.6759 17.8224 41.687C17.3554 41.6665 16.8899 41.621 16.4279 41.5505ZM17.5453 40.4672L17.5874 40.6945C21.7726 40.8643 25.9415 40.6254 30.1982 40.6373C29.7666 40.1176 29.7666 40.1108 29.4647 40.0992C28.8849 40.0767 28.3042 40.0426 27.7255 40.0497C26.7283 40.0619 25.7305 40.1758 24.7365 40.1152C22.5393 39.9812 20.3742 40.2573 18.1922 40.3033C17.9709 40.3328 17.7538 40.3878 17.5453 40.4672Z" fill="black"/>
<path d="M6.08425 7.27832C6.71754 7.29215 7.18357 7.29893 7.64961 7.31336C8.25603 7.33214 8.8626 7.36498 9.46891 7.37772C11.1273 7.41257 12.786 7.45185 14.444 7.4667C15.763 7.47853 17.0808 7.43454 18.4 7.45414C23.6278 7.53184 28.8561 7.63343 34.0838 7.70682C35.6383 7.72864 37.1913 7.68656 38.7451 7.67611C38.8502 7.6754 38.956 7.69611 39.0615 7.70405C39.7479 7.75566 39.8178 7.81897 39.8902 8.50571C39.9123 8.71515 39.9085 8.9264 39.9164 9.13683C40.0363 12.3417 40.1712 15.5466 40.2716 18.7514C40.3587 21.5312 40.3954 24.3107 40.4792 27.0905C40.5012 27.8774 40.5741 28.6621 40.6974 29.4397C40.8085 30.1297 40.7723 30.2336 40.0745 30.2175C38.3588 30.1779 36.6426 30.1127 34.9276 30.0968C31.1788 30.062 27.4307 30.0517 23.6822 30.0308C20.7553 30.0144 17.8284 29.9978 14.9015 29.9808C12.6063 29.9688 10.311 29.9559 8.01618 29.9553C7.75744 29.9785 7.5004 30.0177 7.24656 30.0727C6.81661 30.127 6.58903 29.9917 6.49862 29.5583C6.42044 29.1723 6.37827 28.78 6.37265 28.3863C6.35273 27.3445 6.3745 26.3035 6.3525 25.2617C6.3004 22.7939 6.23348 20.3259 6.17064 17.8579C6.12854 16.2039 6.09044 14.5498 6.03722 12.8957C5.98417 11.2471 5.92424 9.59829 5.84372 7.94988C5.82188 7.82678 5.83257 7.70014 5.87474 7.5824C5.91691 7.46466 5.98911 7.35987 6.08425 7.27832ZM7.24251 29.2352C7.40925 29.2694 7.57796 29.2932 7.74767 29.3064C11.1548 29.337 14.5618 29.365 17.9688 29.3906C23.0675 29.4338 28.1665 29.4866 33.265 29.5203C35.2185 29.5332 37.1709 29.5089 39.1235 29.4926C39.7303 29.4875 39.8277 29.4018 39.8202 28.8184C39.7885 26.3477 39.756 23.8768 39.6973 21.4056C39.6286 18.5149 39.5386 15.624 39.4451 12.7331C39.4068 11.5506 39.3494 10.3681 39.2729 9.18561C39.2357 8.60465 39.1187 8.51791 38.5264 8.50155C37.5001 8.47318 36.4739 8.45573 35.4476 8.42789C33.4445 8.37356 31.441 8.29918 29.4381 8.262C25.6857 8.19237 21.9336 8.14418 18.1814 8.08552C14.5377 8.02854 10.8939 7.97238 7.25021 7.91705C7.0997 7.93485 6.95242 7.97345 6.81261 8.03172C6.55172 9.08413 7.03957 27.9105 7.24251 29.2352Z" fill="black"/>
</svg>
