<svg width="48" height="48" viewBox="0 0 48 48" fill="none" xmlns="http://www.w3.org/2000/svg">
<path d="M18.1033 6.39117C18.641 4.70869 19.1788 3.12519 20.1566 1.73962C21.0855 0.453022 22.161 -0.289246 23.8722 0.10663C24.6055 0.304568 25.3877 0.205599 26.1699 0.601475C27.881 1.4922 28.8099 2.87776 29.3477 4.65921C29.4944 5.10457 29.5433 5.40147 30.081 5.35199C32.5255 5.20354 34.481 6.49013 36.4855 7.52931C37.561 8.07364 38.3433 9.1623 38.9299 10.251C40.2499 12.6757 41.2766 15.1994 41.961 17.9211C42.3522 19.4056 42.3033 20.8901 42.1566 22.3747C42.0588 23.2159 42.0099 24.0571 42.1077 24.8984C42.3033 26.6798 42.3522 28.4613 42.401 30.2427C42.401 30.985 42.6944 31.6283 43.281 32.0736C43.7699 32.4695 44.2588 32.8654 44.7966 33.1623C45.481 33.5087 45.5788 34.053 45.4322 34.7458C45.2366 35.4386 44.4544 36.2798 43.9655 36.3293C43.721 36.3293 43.5744 36.1809 43.4766 35.9334C43.3788 35.587 43.4277 35.1417 42.8899 34.8448C42.841 36.3788 43.1344 37.8138 43.2322 39.2489C43.3299 40.2386 43.5255 41.2283 43.3788 42.1685C43.0855 44.0984 42.4988 44.9396 40.3477 45.2365C37.3166 45.6324 34.2855 46.2757 31.2544 46.82C30.9122 46.8695 30.521 46.919 30.2277 47.1169C29.6899 47.5128 29.1033 47.6118 28.5166 47.2654C28.1255 47.0675 27.7344 47.2159 27.3433 47.3644C26.6099 47.6613 25.8277 47.7108 24.9966 47.7108C24.7522 47.7108 24.5566 47.6613 24.361 47.7108C22.1122 48.2056 19.9122 47.8592 17.6633 47.5128C15.6588 47.1664 13.7522 46.6221 11.7477 46.2757C10.721 46.0778 10.3788 45.4345 10.1344 44.5932C10.0855 44.3458 9.40105 43.4056 9.25438 43.2571C9.10771 43.1582 8.91216 43.1087 8.81438 42.9602C8.08105 41.4262 6.76105 40.3376 6.27216 38.6551C5.92994 37.5664 5.48994 36.4778 5.04994 35.4386C4.26771 33.5087 3.8766 31.5293 3.68105 29.5004C3.53438 27.719 3.4366 26.185 3.09438 24.651C3.04549 24.453 3.09438 24.1561 2.84994 24.0571C2.50771 23.9087 2.01882 23.8592 2.06771 23.3149C2.06771 22.3252 1.82327 21.2365 2.26327 20.2963C2.45882 19.851 2.60549 19.4551 2.5566 19.0592C2.1166 15.7437 2.65438 12.5272 3.58327 9.31075C3.77882 8.61797 3.8766 7.92519 4.07216 7.2324C4.60994 5.59941 5.48993 4.16436 6.61438 2.87776C7.44549 1.93756 8.52105 1.44271 9.5966 0.997351C10.7699 0.502506 11.7966 0.848898 12.8722 1.39323C13.361 1.64065 13.8499 1.7891 14.3388 1.98704C15.4144 2.33343 16.1477 3.02622 16.7344 3.96642C17.1744 4.75818 17.6633 5.59941 18.1033 6.39117ZM25.9255 3.0757C26.2188 3.0757 26.6099 3.02622 26.9522 3.02622C27.1477 3.02622 27.2944 3.02622 27.2944 3.37261C27.2455 4.51075 27.441 4.60972 28.5166 4.26333C28.321 4.65921 28.1255 5.0056 27.881 5.40147C28.2722 5.50044 28.5166 5.50044 28.5655 5.15405C28.5655 4.85714 28.5166 4.56024 28.5166 4.26333C28.1255 3.57055 27.6855 2.92725 27.1966 2.33343C26.4633 1.4922 26.2677 1.4922 25.3388 2.08601C24.7522 2.4324 24.1655 2.97673 23.3833 2.63034C23.4322 2.33343 23.5299 2.03653 23.5788 1.73962C23.6277 1.69013 23.7255 1.59117 23.7744 1.54168C23.921 1.39323 24.4099 1.19529 23.9699 0.997351C23.1877 0.65096 22.2588 1.09632 21.8677 1.7891C21.7699 2.03653 21.4766 2.28395 21.7699 2.48189C22.0633 2.72931 22.3077 2.4324 22.5522 2.23446C22.4544 3.27364 23.2366 3.27364 24.2633 3.42209C23.1388 3.86745 24.3122 4.90663 23.3344 5.30251C22.9922 5.15405 23.041 4.85714 22.8944 4.60972C22.6988 4.31281 22.6499 3.81797 22.2099 3.96642C21.8677 4.06539 21.7699 4.51075 21.721 4.85714C21.6722 5.30251 21.8188 5.99529 22.2588 5.89632C23.2855 5.6489 24.361 5.89632 25.3388 5.45096C25.4855 5.40147 25.4855 5.35199 25.3877 5.30251C25.0944 5.15405 24.7033 5.35199 24.4099 5.10457C24.6055 4.80766 24.7522 4.60972 24.8988 4.41178C24.9966 4.31282 25.0455 4.26333 25.1433 4.16436C25.3388 3.81797 25.6322 3.42209 25.9255 3.0757ZM16.3433 8.17261C15.8544 8.27158 15.561 8.61797 15.121 8.91488C15.7077 9.31075 16.2944 9.60766 16.7344 10.053C17.321 10.6468 17.761 10.5479 18.3477 10.152C18.4455 10.1025 18.4455 10.0035 18.3966 9.95405C18.1033 9.75611 17.6144 10.152 17.321 9.70663C17.5166 9.65715 17.6633 9.55818 17.761 9.55818C18.9344 9.85508 19.9122 8.91488 21.0855 9.06333C21.1833 9.06333 21.3788 8.96436 21.4277 8.86539C21.9166 8.02416 22.6988 7.43034 23.4322 6.83653C23.1877 6.53962 22.9433 6.53962 22.7477 6.63859C21.7699 6.98498 20.7922 7.03446 19.8144 7.18292C18.5922 7.33137 17.321 7.28189 16.3433 8.17261ZM15.5122 3.86745C15.3655 3.32312 14.8277 3.12519 14.3877 2.87776C13.8988 2.63034 13.5566 2.77879 13.4099 3.37261C13.2144 4.11488 13.2144 4.85714 13.3122 5.59941C13.4099 6.5891 13.9966 7.2324 14.6322 7.77673C15.0233 8.12312 15.4144 7.52931 15.7566 7.2324C15.7566 7.2324 15.8544 7.2324 15.9033 7.2324C17.6633 6.83653 17.6633 6.83653 16.6855 5.35199C16.5877 5.20354 16.4899 5.05508 16.2455 5.15405C16.1477 5.45096 16.0988 5.79735 15.9522 6.34168C15.8544 5.69838 15.8055 5.25302 16.001 4.85714C16.2944 4.31281 16.001 4.01591 15.5122 3.86745ZM40.8366 25.6901C40.9833 24.3541 40.9833 24.354 40.2988 23.8592C40.8855 24.4035 40.641 25.0963 40.8366 25.6901C41.081 26.5314 40.5922 26.8778 39.9077 27.1252C38.6366 27.5211 38.2944 27.2242 38.4899 25.9376C38.5388 25.5417 38.7833 25.0963 38.441 24.651C38.001 24.7499 37.561 24.7499 37.1699 24.9479C35.0188 25.7396 32.8188 25.8386 30.5699 25.8386C29.3477 25.8386 28.1744 25.6901 27.001 25.0963C25.6322 24.4035 24.0677 24.0571 22.9433 22.9685C22.5033 22.5231 22.0144 22.4242 21.3788 22.4242C21.3788 22.8695 21.3788 23.2654 21.3788 23.6613C21.3788 25.0468 21.3788 25.0468 22.6499 25.3437C22.5033 25.7396 22.1122 25.5912 21.8677 25.6406C21.6233 25.6901 21.4766 25.8386 21.5255 26.1355C21.5744 26.3334 21.721 26.4819 21.8677 26.4324C22.4544 26.2839 22.5033 26.8283 22.7477 27.0757C22.3077 27.4221 22.0633 27.0262 21.6722 26.9272C21.7699 27.3726 21.4766 27.818 22.0144 28.1149C22.4055 28.3128 22.3077 28.4118 21.9655 28.6097C21.4766 28.9066 21.4277 29.3025 21.8677 29.5004C22.0633 29.5994 22.3566 29.5004 22.1122 29.7973C21.0366 30.985 21.3788 32.3211 21.6233 33.6571C21.6722 33.8056 21.8188 33.9541 21.721 34.152C20.9388 35.1912 22.1122 34.5479 22.3077 34.8448C22.3566 35.2407 22.0633 35.3891 21.8188 35.587C21.4277 35.8839 21.3299 36.2303 21.6233 36.8242C21.9655 36.1314 22.5522 35.6365 22.3077 34.8448C23.0899 34.7953 23.1877 34.1025 23.5788 33.6077C25.0455 31.8262 26.561 30.1932 28.7122 29.352C30.0322 28.8077 31.4499 28.4118 32.9166 28.1644C34.0899 27.9664 35.3122 27.9169 36.4366 28.2633C37.6588 28.6592 38.8322 28.5108 40.0055 28.1149C40.2499 28.0159 40.4944 27.9664 40.641 28.2633C40.2988 28.8571 39.4677 28.3623 39.1744 29.0551C39.9566 29.0551 40.3966 29.8468 41.2277 29.8468C41.3744 28.5108 41.2277 27.2242 41.1788 25.9376C41.1299 25.7396 40.9833 25.7396 40.8366 25.6901ZM19.081 21.2365C18.3477 20.7417 18.7388 20.2963 19.1788 19.851C19.8633 19.0592 20.0099 18.1685 19.7655 16.8324C19.3744 17.9211 19.081 18.6633 18.1522 18.9602C18.1033 18.5149 18.2988 18.2675 18.5922 18.02C19.0322 17.6242 19.1788 17.0303 19.4722 16.5355C19.6188 16.2881 19.521 16.0901 19.3744 15.9417C19.1788 15.5953 19.0322 15.9912 18.8366 16.0406C18.6899 16.0406 18.4944 16.1396 18.3477 15.8427C18.8855 15.2489 18.9344 14.6056 18.4455 13.9128C18.0544 14.0613 18.2499 14.6551 17.6144 14.9025C18.0055 13.2695 18.0055 11.8839 16.2455 11.1417C16.1966 11.3891 16.1477 11.5376 16.0988 11.7355C16.0499 11.9334 16.0988 12.1809 15.7566 12.1809C15.8544 10.6468 15.8544 10.5974 14.9744 10.251C14.681 11.3396 14.1922 12.3293 13.8499 13.418C13.5077 14.4571 13.4099 15.3974 13.6055 16.486C13.7522 17.4262 13.8988 18.4654 13.361 19.3561C13.1655 17.7231 13.1655 16.0406 12.5299 14.3582C12.4322 15.1004 12.2366 15.7437 12.2366 16.387C12.1877 16.9809 11.7966 17.6736 12.7255 18.02C12.2366 18.5644 13.0677 19.5046 11.9922 19.851C12.3344 20.0489 12.481 20.1973 12.6766 20.2963C13.9966 20.7912 15.0233 21.7314 16.001 22.6221C17.9077 24.3046 18.5433 26.6303 18.6899 29.0551C18.7877 30.4901 18.6899 31.9252 18.7388 33.3108C18.7877 35.9829 18.5922 38.6551 18.0055 41.2778C17.7122 42.5149 17.1255 43.4056 15.8055 43.653C15.3166 43.752 14.8766 43.9004 14.3877 43.9499C13.7033 43.9994 13.0188 44.1479 12.2855 44.1973C12.8722 44.3458 13.2144 44.6922 13.5566 45.1376C13.7522 45.4345 14.1433 45.7809 14.4366 45.6819C15.4633 45.3355 16.2455 46.0283 17.0766 46.3252C17.6144 46.5231 18.201 46.5231 18.7877 46.4736C19.0322 46.4736 19.1788 46.4242 19.3255 46.1767C19.6677 45.6324 19.0322 45.1376 19.3255 44.5437C19.5699 43.9994 20.2055 43.851 20.1566 43.1087C20.1077 40.7829 20.1566 38.4571 20.1566 36.1809C19.7166 36.4283 19.9122 37.1705 19.2277 37.6654C19.3255 36.7252 18.9344 35.8839 19.2277 35.0427C19.3255 34.6963 19.3744 34.3499 19.2277 34.0035C18.9344 33.0138 18.9344 33.0138 19.9122 32.42C20.0588 32.618 20.0588 32.8159 19.961 33.0633C19.8144 33.5582 19.6188 34.1025 19.5699 34.5974C19.521 34.8943 19.4722 35.3891 19.961 35.4386C20.4499 35.4386 20.3033 35.0427 20.3033 34.7458C20.3522 33.0633 20.3522 31.3809 20.4499 29.6984C20.5477 27.8675 20.5966 26.086 20.6944 24.2551C20.7922 22.6716 20.7433 21.0386 20.1077 19.4551C19.4233 19.851 19.3255 20.5932 19.081 21.2365ZM30.6188 44.0489C31.1566 43.9499 31.5966 43.7025 32.1833 43.2571C31.7433 43.2571 31.5966 43.2571 31.401 43.2571C31.6944 43.0097 31.9877 42.7128 32.4277 42.8118C32.5255 43.2077 32.6722 43.6035 32.7699 44.0984C33.5033 43.6035 34.5788 44.0984 35.1655 43.1582C34.8233 43.0592 34.5299 43.4056 34.4322 42.9108C35.1166 42.4159 36.0944 42.9108 36.7299 42.3664C36.5344 42.119 36.0944 42.4159 35.9477 42.02C36.5344 41.4757 37.3166 41.4262 38.001 41.2283C38.1966 41.1788 38.3922 41.2778 38.441 41.4262C38.5877 41.7231 38.2455 41.7231 38.0988 41.8716C38.001 41.9705 37.9033 42.02 37.9522 42.218C38.0988 42.3169 38.441 42.3664 38.4899 42.5149C38.5877 43.0097 38.7344 43.2077 39.2233 42.9108C39.5655 42.7128 40.2988 42.7128 40.2499 42.4654C40.0055 41.5252 40.7877 41.8716 41.081 41.6736C41.4233 41.4262 41.8144 41.6242 42.3033 41.5252C42.2055 40.9809 42.4499 40.387 42.1077 39.8427C41.081 40.1891 40.0055 40.0901 39.0766 40.7829C38.5877 41.1293 37.8544 41.1293 37.2677 40.8324C37.3655 40.486 37.6099 40.4365 37.8055 40.3376C38.1477 40.1396 37.4144 39.7437 37.9522 39.5953C38.2455 39.4963 38.5877 39.5953 38.881 39.4963C39.321 39.3974 39.7122 39.2489 40.1033 39.051C40.5433 38.8035 40.9344 38.853 41.3744 38.853C41.5699 38.853 41.7655 38.952 41.6677 39.1499C41.521 39.4468 41.5699 39.5458 41.9122 39.5458C42.3033 39.5458 42.3522 39.3479 42.3033 39.051C42.2055 37.8633 42.1077 36.6757 41.8633 35.4881C41.7166 34.8943 41.4233 34.7458 40.9344 34.9437C39.9566 35.2406 38.881 35.0427 38.001 35.785C37.7566 35.9829 37.1699 35.9829 36.7299 35.5376C37.3166 35.1417 37.8055 35.0427 38.3922 35.0922C39.2722 35.1417 40.1033 34.6468 40.9344 34.4489C41.081 34.3994 41.2277 34.2015 41.1299 34.053C41.081 33.9541 40.8855 33.8551 40.8366 33.8551C39.6633 34.5974 38.5388 33.8056 37.3655 33.7066C36.8766 33.6571 36.3388 33.6571 35.801 33.5087C35.6055 33.4592 35.5566 33.2613 35.6055 33.1128C35.6055 33.0633 35.7522 32.9149 35.7522 32.9644C36.5833 33.4592 37.4144 32.618 38.2944 33.0138C38.6855 33.2118 39.2722 33.3602 39.8588 33.2118C39.4188 32.7664 38.9299 32.618 38.441 32.3705C37.5122 31.9252 36.5833 32.0736 35.6055 31.9252C33.0144 31.4303 30.6188 31.9252 28.5166 33.5087C27.1477 34.5479 26.1699 36.0324 25.2899 37.5169C24.0188 39.6448 23.1388 41.8716 22.2099 44.1479C22.1122 44.3953 21.8188 44.6427 22.0633 44.9891C22.601 45.1376 22.9922 44.6427 23.481 44.7417L23.4322 44.6922C23.6766 44.9396 23.8722 45.2365 23.481 45.4345C23.0899 45.6819 22.601 45.8798 22.1122 45.6324C21.721 45.4345 21.3788 45.6324 21.1344 45.8303C20.7433 46.1272 20.841 46.5726 21.0855 46.8695C21.281 47.1664 21.721 47.2159 21.8677 46.919C22.5033 45.8798 23.5788 46.2757 24.4588 46.0283C24.5566 46.0283 24.6544 46.0283 24.7033 46.0778C24.8499 46.2262 24.1166 46.6221 24.8499 46.6221C25.1433 46.6221 25.4855 46.5726 25.7788 46.5726C26.8055 46.4736 27.7833 46.0283 28.8588 45.9293C29.4944 45.8798 30.1299 45.9788 30.8144 45.7809C31.9877 45.4345 33.2099 45.187 34.4322 45.2365C34.8722 45.2365 35.3122 45.187 35.7033 44.7912C33.9433 44.0984 32.3788 45.0881 30.7166 45.286C30.7166 44.7417 31.0588 44.3953 30.6188 44.0489ZM41.2277 21.0386C41.4233 20.9891 41.521 20.8407 41.521 20.6427C41.6188 19.1087 41.3255 17.6736 40.6899 16.2881C40.1522 16.3376 39.6633 16.9809 39.2722 16.585C38.5877 15.9417 38.2455 16.486 37.8055 16.8324C38.2944 16.8819 38.6366 17.4757 39.1255 17.2283C40.0055 16.7334 40.1522 17.4262 40.4944 18.02C39.761 18.4654 39.0277 18.9602 38.2455 19.3561C38.001 19.4551 37.4633 19.752 37.4633 19.4551C37.3655 18.8118 36.7299 19.2077 36.4855 18.8118C36.8277 18.6138 37.121 18.4159 37.4633 18.3169C37.7566 18.2675 38.1966 18.4654 38.1966 17.8221C37.4144 17.9705 36.681 18.4159 35.801 18.3664C36.0455 17.7231 36.8277 17.9705 37.0722 17.3767C36.5833 17.1293 35.801 17.4262 35.6544 16.8324C35.5077 16.3376 36.241 16.2881 36.5344 15.9912C36.5833 15.9417 36.5344 15.8427 36.5344 15.8922C35.9477 15.4468 35.4099 16.1396 34.7744 15.5953C36.1922 15.3479 37.6588 15.051 39.0766 14.8035C38.5877 15.1499 38.0988 15.4963 37.5122 15.9417C38.3433 16.1396 38.7344 15.6448 39.1255 15.2489C39.2722 15.1004 39.4677 15.1499 39.6144 15.1994C39.8588 15.3479 39.6633 15.4963 39.6144 15.5953C39.5166 15.6943 39.4188 15.7932 39.5166 15.8922C39.6144 15.9417 39.761 15.9912 39.8588 15.9417C40.1522 15.8427 40.4944 15.6943 40.2988 15.2984C40.1522 15.051 40.1522 14.5066 39.6144 14.8035C39.4188 14.9025 39.2233 15.051 39.0766 14.8035C39.2233 14.6056 37.8544 14.1108 39.2233 14.0613C39.4188 14.0613 39.5655 14.0118 39.6144 13.7644C39.3699 13.319 38.9788 13.9623 38.7833 13.7644C38.4899 13.1705 38.9788 12.8242 39.1255 12.3293C38.5388 12.2303 38.2455 12.8736 37.7077 12.6262C37.8544 12.3788 37.9033 12.1314 38.0988 12.0324C38.8322 11.587 38.5388 11.0922 38.1966 10.5974C37.7566 9.85508 36.9255 9.50869 36.4366 8.81591C36.241 8.56849 36.0944 8.81591 35.8988 8.91488C35.1166 9.21178 34.3344 9.50869 33.5522 9.8056C33.3077 9.90457 33.1122 10.053 32.9166 9.65715C32.721 9.21178 32.6722 8.96436 33.2099 8.71694C33.8944 8.42003 34.6766 8.61797 35.3122 8.12312C33.8944 7.13343 33.7966 7.13343 32.1833 7.52931C32.6233 8.56848 32.6233 9.1623 31.9877 9.36024C30.9122 9.65715 29.7388 10.2015 28.7122 9.36024C27.7344 8.56849 26.6099 8.519 25.4855 8.46952C24.801 8.42003 24.2144 8.66745 23.8233 9.36024C23.4322 10.1025 22.6499 10.3994 21.8677 10.5479C21.0366 10.6963 20.1566 10.7953 19.4233 9.95405C19.4722 10.9437 19.4722 10.9437 18.6899 10.6963C18.3477 10.5974 18.0544 10.7458 17.8588 10.9932C17.9566 11.4881 18.641 11.587 18.3966 12.2303C18.3477 12.3788 18.5433 12.6757 18.7877 12.6757C19.081 12.7252 19.3255 12.8736 19.4233 13.0716C19.5699 13.3685 19.0322 13.2695 19.0322 13.5169C19.0322 13.7644 19.1788 13.8138 19.3744 13.7644C19.521 13.7644 19.6677 13.5664 19.9122 13.7644C19.5699 14.2097 19.2277 14.7046 20.2055 14.7046C20.2544 14.7046 20.6944 14.952 20.4988 15.1004C19.4722 15.6943 20.3522 16.0901 20.6944 16.1396C21.281 16.2881 21.1833 16.486 20.8899 16.7829C20.7922 16.8819 20.6944 17.0303 20.6944 17.1293C21.0855 18.02 20.8899 19.0592 21.4766 19.9004C22.3077 21.0881 23.2366 22.2262 24.5566 22.8695C24.8988 23.0675 25.2899 23.1664 25.5833 23.4138C27.2455 24.7499 29.201 24.651 31.1077 24.5025C31.4499 24.453 31.7922 24.2551 32.1344 24.4035C32.7699 24.7004 33.2099 24.4035 33.7477 24.1561C34.3344 23.8592 34.9699 23.6118 35.5077 23.2159C35.801 22.9685 36.1433 22.82 36.5833 23.0675C35.8988 23.7108 35.0677 24.0077 34.1877 24.5025C34.921 24.6015 35.4588 24.453 35.8988 24.2056C36.3388 23.9582 36.8277 23.8592 37.2677 23.8592C38.0499 23.8097 37.7077 23.018 38.0988 22.7211C38.6366 22.4736 38.9299 21.9293 39.321 21.4839C38.9788 21.4839 38.6366 21.6324 38.3433 21.7314C37.561 21.9293 37.9033 22.3747 38.1477 22.7705C37.7566 22.7211 37.3655 22.8695 37.0722 22.4736C37.4144 21.6324 38.3922 21.6324 38.9788 20.8407C37.7566 20.7912 36.9744 21.6324 35.8988 21.6819C36.7299 20.8406 36.9255 20.7417 37.9033 20.5932C38.3433 20.5437 38.7344 20.3953 39.1744 20.2963C39.4188 20.1973 39.7122 20.1974 39.4677 19.653C39.321 19.3066 39.9566 18.9108 40.3477 18.7128C40.5433 18.6138 40.7877 18.7128 40.7388 19.0592C40.6899 19.2571 40.4455 19.5046 40.9344 19.4551C41.2277 19.4056 41.4233 19.6035 41.2277 19.8015C40.4944 20.2468 41.2277 20.5932 41.2277 21.0386C40.0544 21.0881 40.0544 22.4736 39.1744 22.8695C40.4944 22.4242 40.7877 22.1272 41.2277 21.0386ZM9.05882 28.0159C9.49882 27.7685 9.79216 27.818 10.1344 28.2633C10.6233 28.9066 9.54771 28.9066 9.79216 29.451C9.88994 29.6489 9.79216 29.9458 9.49882 29.9458C9.20549 29.9458 9.25438 29.6489 9.20549 29.451C9.1566 29.3025 9.1566 29.1046 8.86327 29.1541C8.66771 29.4015 8.76549 29.6489 8.76549 29.8963C8.7166 31.3809 8.81438 32.8654 8.66771 34.3004C8.52105 35.7355 8.56993 37.1211 8.47216 38.5561C8.47216 39.0015 8.47216 39.2984 9.00993 39.5953C9.74327 39.9912 10.1344 40.7334 10.2322 41.6242C9.5966 41.6242 9.25438 41.2283 8.86327 40.6839C8.91216 41.3767 9.05882 41.9211 9.44993 42.119C10.721 42.8118 12.0899 43.1582 13.5566 43.0592C14.0455 43.0097 14.1922 42.8118 14.241 42.3169C14.7788 38.5561 15.0233 34.7953 14.7788 31.0345C14.681 29.5004 14.4855 27.9664 13.7033 26.5314C12.921 25.0468 11.7966 24.0571 10.1833 23.5623C9.88994 23.4633 9.64549 23.5623 9.54771 23.8592C9.44993 24.1066 9.35216 24.4035 9.84105 24.2551C10.0855 24.2056 10.1833 24.5025 10.1833 24.7499C10.1833 25.4922 10.3299 26.2345 10.0855 27.0262C9.5966 26.7788 9.69438 26.185 9.20549 26.0365C9.10771 26.6798 8.86327 27.2736 9.05882 28.0159ZM8.03216 30.5396C8.17882 28.7582 8.47216 27.0757 8.61882 25.3437C8.76549 23.8592 9.10771 22.5231 10.1344 21.286C10.721 20.5437 11.3566 19.653 11.3077 18.6633C11.2099 17.2283 11.3566 15.8427 11.601 14.4077C11.9433 12.4778 12.0899 10.4984 13.5077 8.96436C13.7033 8.76642 13.801 8.46952 13.7033 8.22209C13.2633 7.33137 12.8233 6.34168 11.8455 5.89632C11.4055 5.69838 10.6722 5.45096 10.3299 5.6489C9.69438 6.04477 9.1566 6.68807 8.76549 7.33137C7.78771 9.01385 7.00549 10.7953 6.76105 12.7747C6.66327 13.7149 6.56549 14.7046 6.36994 15.6943C6.12549 17.0303 5.97882 18.4654 6.46771 19.653C6.9566 20.8407 6.90771 21.8798 6.71216 23.018C6.61438 23.7108 6.56549 24.354 6.61438 24.9973C6.85882 26.9272 7.49438 28.7087 8.03216 30.5396ZM9.54771 4.11488C9.35216 3.52106 9.44993 2.97673 9.54771 2.48189C9.5966 2.28395 9.5966 2.08601 9.35216 2.08601C9.1566 2.08601 9.10771 2.23446 9.05882 2.4324C9.05882 3.32312 8.66771 4.11488 8.42327 5.15405C7.88549 4.21385 8.52105 3.47158 8.22771 2.58086C7.98327 3.32312 7.78771 3.91694 7.59216 4.51075C7.54327 4.70869 7.3966 5.0056 7.15216 4.80766C6.80994 4.46127 6.76105 4.75818 6.66327 5.0056C6.5166 5.25302 6.61438 5.54993 6.36994 5.74787C6.0766 5.59941 6.27216 5.10457 5.78327 5.05508C5.48994 5.54993 4.80549 5.99529 5.58771 6.63859C5.68549 6.73756 5.73438 6.98498 5.68549 7.13343C5.29438 8.37055 5.39216 9.55818 5.58771 10.7953C5.6366 10.9932 5.58771 11.2901 5.29438 11.2901C5.09882 11.2901 4.95216 11.1417 4.95216 10.9932C4.7566 10.053 4.16994 9.1623 4.80549 8.17261C4.90327 8.02416 4.90327 7.72725 4.70771 7.47983C3.77882 9.06333 3.8766 10.6963 4.36549 12.3293C3.82771 12.3293 4.02327 11.6365 3.53438 11.7355C3.19216 12.1314 3.33882 12.6262 3.14327 13.0221C3.04549 13.22 3.09438 13.418 3.38771 13.5664C4.26771 13.9623 4.12105 14.7541 4.3166 15.6448C3.63216 15.1994 3.68105 14.4077 2.9966 13.9128C3.14327 15.4963 3.97438 16.684 4.02327 18.119C3.53438 17.8716 3.63216 17.2283 3.14327 16.9809C2.94771 17.6242 3.04549 18.2675 3.14327 18.8613C3.28994 20.1479 3.48549 20.2468 4.65882 19.9994C4.85438 19.9499 5.00105 19.9004 5.14771 19.851C5.58771 19.8015 5.73438 19.6035 5.6366 19.1087C5.29438 17.8716 5.48994 16.6839 5.78327 15.4468C5.97882 14.6056 6.32105 13.7149 5.88105 12.8736C5.78327 12.6757 5.83216 12.5272 5.92994 12.3788C6.85882 10.8448 7.00549 8.91488 7.98327 7.43034C8.12993 7.2324 8.12993 7.03446 8.03216 6.78704C7.88549 6.44065 7.88549 6.09426 7.98327 5.74787C8.03216 5.6489 8.12994 5.54993 8.17882 5.45096C8.52105 5.54993 8.37438 5.9458 8.66771 6.09426C9.1566 5.79735 9.69438 5.50044 10.1833 5.20354C10.4277 5.05508 10.721 4.90663 10.7699 4.51075C10.8677 3.86745 10.9166 3.17467 11.0144 2.53137C11.0144 2.28395 11.161 1.93756 10.8188 1.88807C10.4277 1.7891 10.3299 2.18498 10.2322 2.4324C10.0366 2.92725 10.0855 3.57055 9.54771 4.11488ZM16.9299 41.9211C17.4677 40.387 17.9077 38.8035 17.9566 37.1705C18.0055 34.251 18.0544 31.2819 17.9077 28.3623C17.8588 26.8283 17.4188 25.2448 16.3922 24.1561C15.1699 22.82 13.6544 21.6324 11.8944 20.9891C11.601 20.8901 11.2588 20.6922 11.1122 21.0881C10.9655 21.4839 11.161 21.7314 11.5033 21.9293C12.0899 22.2262 12.6277 22.5726 13.2144 22.919C14.681 23.7602 15.6588 25.1458 16.1966 26.6798C17.1255 29.352 17.2233 32.1726 16.9299 34.9932C16.7833 37.319 16.3922 39.5953 16.9299 41.9211ZM40.2499 30.5396C40.201 30.4406 40.1522 30.3417 40.1033 30.2922C39.9077 30.1932 39.7122 30.0448 39.5166 29.9953C36.6322 28.8077 33.7477 28.4118 30.6677 29.253C27.441 30.0943 25.241 32.0242 23.5788 34.7953C22.6988 36.2798 22.2099 37.9623 21.281 39.4468C21.0855 39.7932 21.1344 40.2386 21.3299 40.6839C21.8188 40.2881 21.9655 39.7932 22.161 39.3479C23.0899 37.6159 23.8722 35.8345 25.1922 34.3499C26.6588 32.6674 28.4188 31.3809 30.4233 30.3912C32.6233 29.352 34.7744 29.4015 36.9744 30.0448C38.0499 30.2922 39.1255 30.4406 40.2499 30.5396ZM21.1344 44.5437C21.6722 43.4056 22.2099 42.3169 22.6988 41.1788C23.8233 38.5561 25.3388 36.1809 27.0499 33.9046C27.6855 33.0633 28.4188 32.2221 29.4455 31.8262C32.3299 30.787 35.2633 30.5396 38.2455 31.3809C39.2722 31.6778 40.1033 32.1726 40.9833 32.7169C41.1299 32.8159 41.2277 32.8159 41.3255 32.7169C41.4722 32.5685 41.4233 32.3211 41.2766 32.2716C40.5433 31.8757 39.9566 31.1829 39.0277 31.2324C38.5388 31.2324 38.0499 31.1829 37.6099 30.985C36.3877 30.4406 35.0677 30.3912 33.7477 30.1932C32.8188 30.0448 31.8899 30.1437 31.0588 30.6386C30.1788 31.0839 29.2988 31.4798 28.5166 32.0242C26.7566 33.1623 25.3877 34.6963 24.3122 36.5767C23.4322 38.1602 22.601 39.7932 21.7699 41.3767C21.1833 42.3169 20.9388 43.3561 21.1344 44.5437ZM13.0677 23.8592C12.921 24.354 13.2633 24.552 13.4588 24.7994C14.7788 26.3334 15.3166 28.1644 15.3655 30.1932C15.3655 30.4901 15.4633 30.787 15.4633 31.1334C15.561 33.3108 15.6588 35.4881 15.4144 37.6654C15.2188 39.1994 14.9744 40.7334 15.0233 42.3169C15.0233 42.5149 14.9744 42.8118 15.2677 42.8118C15.561 42.8118 15.7566 42.7623 15.8055 42.4159C15.9033 41.8221 16.0499 41.2283 16.0499 40.585C16.001 38.7046 16.1477 36.8736 16.3433 34.9932C16.5877 32.4695 16.5388 29.8963 15.7566 27.4716C15.3166 26.0365 14.5833 24.651 13.0677 23.8592ZM7.8366 36.1314C7.98327 35.4386 7.98327 34.7953 7.8366 34.2015C7.49438 32.3705 7.15216 30.5891 6.76105 28.8077C6.56549 27.9169 6.22327 27.1252 5.48994 26.3334C5.34327 27.0757 5.44105 27.6695 5.24549 28.2633C5.04994 28.8077 5.1966 29.5004 5.1966 30.0943C4.80549 30.0448 4.85438 29.5004 4.46327 29.5994C4.46327 31.3809 5.04994 34.053 5.6366 34.9437C5.73438 34.3004 5.14771 33.7561 5.39216 33.1623C5.6366 32.5685 5.6366 31.9252 5.73438 31.3314C6.46771 31.2819 6.66327 31.7272 6.71216 32.2221C6.71216 32.618 6.17438 32.2716 6.02771 32.5685C6.46771 32.9644 6.46771 33.0138 6.12549 33.6571C6.0766 33.7561 6.02771 33.9046 6.0766 34.053C6.41882 34.8943 6.66327 35.785 7.8366 36.1314ZM27.2944 6.44065C28.5655 7.13343 29.7877 7.13343 30.6677 7.8757C30.7655 7.97467 31.0099 7.8757 31.1566 7.8757C31.3522 7.8757 31.4988 7.72725 31.4988 7.52931C31.4988 7.38086 31.3522 7.2324 31.1566 7.18292C30.7655 7.08395 30.2766 7.33137 30.0322 6.68807C30.8633 6.34168 31.6455 7.2324 32.6233 6.63859C30.9122 6.04477 29.2988 5.89632 27.2944 6.44065ZM12.5299 5.35199C12.6277 4.70869 12.6277 4.31282 12.7255 3.96642C12.8233 3.57055 12.921 3.17467 13.0188 2.82828C13.1655 2.38292 12.921 2.23446 12.6277 2.18498C12.3344 2.1355 11.8944 1.83859 11.6988 2.28395C11.4055 2.92725 11.2099 3.66952 11.3566 4.41178C11.4055 4.95611 12.041 5.0056 12.5299 5.35199ZM19.5699 6.44065C20.1566 4.75818 20.3522 3.22416 21.0855 1.88807C19.7655 3.12519 19.081 5.05508 19.5699 6.44065ZM7.64105 38.8035C7.73882 38.8035 7.8366 38.7541 7.93438 38.7541C7.93438 38.2592 7.93438 37.8138 7.93438 37.319C7.93438 36.8736 7.54327 36.5272 7.34771 36.5767C6.66327 36.7747 6.5166 36.1809 6.12549 35.8345C6.0766 37.1705 7.24994 37.7644 7.64105 38.8035ZM22.3077 9.45921C22.9922 9.36024 23.2855 8.91488 23.5299 8.42003C23.8233 7.82622 24.3122 7.62828 24.9477 7.62828C25.6322 7.62828 26.3166 7.62828 27.001 7.62828C25.0944 7.2324 23.2366 7.13343 22.3077 9.45921ZM5.68549 20.8407C4.80549 20.7912 3.82771 20.4943 3.14327 21.5334C4.12105 21.6324 4.95216 21.4345 5.68549 20.8407ZM13.8499 10.3004C13.2633 11.0427 12.7255 11.8345 12.9699 12.9726C13.5566 12.2798 13.5566 12.2798 13.8499 10.3004ZM4.02327 26.185C4.07216 26.9767 4.16994 27.6695 4.21882 28.4118C4.21882 28.6097 4.36549 28.7582 4.56105 28.7087C4.90327 28.6592 4.85438 28.4613 4.7566 28.2633C4.60994 27.9169 4.36549 27.62 4.56105 27.1252C4.80549 26.7293 4.41438 26.3829 4.02327 26.185ZM5.92994 25.5912C6.12549 24.9973 5.92993 24.5025 5.97882 24.0077C5.97882 23.7108 5.88105 23.4633 5.48994 23.6118C5.24549 23.7108 5.00105 23.8592 5.1966 24.2056C5.39216 24.6015 5.44105 25.0963 5.92994 25.5912ZM43.9655 34.9437C44.6988 34.2015 44.7477 34.152 44.1122 33.7066C43.8188 33.5087 43.6722 33.1623 43.1344 33.1623C43.4277 33.7561 43.6722 34.3004 43.9655 34.9437ZM4.90327 25.7396C5.14771 25.0468 4.56105 24.6015 4.60994 24.0077C4.60994 23.8097 4.41438 23.7602 4.21882 23.8097C4.02327 23.8097 3.92549 24.0077 3.8766 24.1561C3.82771 24.3541 3.82771 24.7004 4.02327 24.7499C4.56105 24.8984 4.46327 25.4922 4.90327 25.7396ZM42.3033 42.3169C42.3033 41.9705 42.1566 41.9705 41.9122 41.9211C41.2277 41.8716 41.4233 42.5149 41.3255 42.8118C41.1788 43.1582 41.7166 43.1582 41.8144 43.1582C42.2544 43.0592 42.3033 42.6633 42.3033 42.3169ZM39.5655 44.0984C38.6855 44.0984 37.9033 43.752 37.2188 44.5932C38.0988 44.7417 38.7833 44.6427 39.5655 44.0984ZM39.5166 26.2345C39.9077 25.9376 40.201 25.6901 40.1033 25.1458C40.0544 24.9479 39.9566 24.7994 39.761 24.7994C39.5655 24.7499 39.4188 24.8984 39.4188 25.0963C39.4677 25.4427 39.2233 25.8386 39.5166 26.2345ZM24.4099 1.83859C24.5077 1.93756 24.6055 2.03653 24.7033 2.08601C24.8499 1.93756 24.9477 1.73962 25.0455 1.54168C25.1433 1.39323 25.2899 1.24477 25.1433 1.09632C24.9477 0.947867 24.7522 0.997351 24.6544 1.24477C24.5566 1.44271 24.5077 1.64065 24.4099 1.83859ZM21.3788 21.385C21.2322 21.4345 21.1833 21.5334 21.2322 21.6819C21.281 21.7809 21.3788 21.8798 21.4766 21.9293C21.6233 21.9788 21.721 21.8798 21.721 21.7314C21.6233 21.5829 21.5744 21.4345 21.3788 21.385ZM11.161 44.4943C11.4055 44.8406 11.6499 45.1376 12.0899 45.0881C11.8455 44.6427 11.4544 44.6427 11.161 44.4943ZM11.2099 22.7211C10.8188 22.7211 10.721 22.2262 10.2322 22.4736C10.5255 22.7705 10.721 22.9685 11.2099 22.7211Z" fill="black"/>
<path d="M24.85 4.41178C24.0189 4.21385 24.0189 4.21385 24.4589 3.62003C24.8011 3.27364 25.0945 2.92725 25.4367 2.58086C25.6322 2.38292 25.8767 2.13549 26.0722 2.33343C26.3656 2.58086 25.9256 2.72931 25.8767 2.97673C25.8767 3.02622 25.8767 3.0757 25.8767 3.12519L25.9255 3.0757C25.2899 3.17467 25.1433 3.62003 25.0945 4.16436C24.9967 4.26333 24.9478 4.3623 24.85 4.41178Z" fill="black"/>
<path d="M22.4056 2.33343C22.4545 1.93756 22.6011 1.64065 22.8456 1.44271C23.1389 1.19529 23.4322 1.09632 23.6767 1.54168C23.6278 1.59116 23.53 1.69013 23.4811 1.73962C23.1389 1.93756 22.7967 2.13549 22.4056 2.33343Z" fill="black"/>
<path d="M34.0899 10.3499C34.5299 9.80561 35.3121 9.90458 35.801 9.55819C35.9477 9.45922 36.3388 9.55819 36.3388 9.75612C36.3877 10.6468 37.6588 10.5974 37.6099 11.3891C37.561 11.884 36.9254 12.2304 36.4854 12.3788C35.4588 12.6757 34.4321 13.2695 33.3565 12.5767C33.8454 11.9334 34.8232 12.1314 35.7032 11.6365C34.8721 11.5871 34.3343 11.884 33.5521 11.5871C34.5299 11.2407 35.4099 11.0922 36.3877 10.3994C35.4099 10.4984 34.7254 10.6963 34.0899 10.3499Z" fill="black"/>
<path d="M34.0899 10.3004C34.041 10.7953 33.8454 11.0922 33.2587 11.0922C32.5254 11.0922 31.7432 11.2901 30.9121 10.9932C31.5965 10.6468 32.1832 10.3499 32.9165 10.5973C33.3076 10.7458 33.7476 10.5973 34.0899 10.3004Z" fill="black"/>
<path d="M28.4677 21.9788C28.1743 22.4242 27.5388 22.2757 27.2454 22.82C27.1477 22.9685 26.7077 23.018 26.6099 22.7211C26.5121 22.4242 26.7565 22.2262 27.001 22.1272C27.3921 21.8798 27.9299 21.8798 28.4677 21.9788Z" fill="black"/>
<path d="M34.5787 14.5066C34.5787 14.3582 34.5787 14.1602 34.6276 14.1107C35.361 13.7644 36.1921 13.5664 36.8765 13.0221C36.681 13.6654 36.3387 14.0613 35.6543 14.1107C35.2632 14.1602 34.8721 14.2097 34.5787 14.5066Z" fill="black"/>
<path d="M22.0144 13.5169C21.6233 13.9623 21.2322 14.3087 20.4989 13.9623C20.9878 13.5169 21.5255 13.5664 22.0144 13.5169Z" fill="black"/>
<path d="M30.8144 22.2757C30.6189 22.3747 30.4722 22.4737 30.2766 22.5726C29.9833 22.6716 29.69 22.82 29.3966 22.6221C29.3477 22.5726 29.2989 22.4242 29.3477 22.3747C29.5433 22.0283 29.8855 22.2262 30.1789 22.1767C30.3744 22.1273 30.6189 22.1273 30.8144 22.1273C30.7655 22.1767 30.7655 22.2262 30.8144 22.2757Z" fill="black"/>
<path d="M37.561 14.4077C37.1699 14.5561 36.7788 14.952 36.1922 14.7046C36.6322 14.1108 37.121 14.4077 37.561 14.4077Z" fill="black"/>
<path d="M22.6988 15.0015C22.4055 15.5458 21.9655 15.6943 21.5255 15.8922C21.721 15.3974 21.721 14.6551 22.6988 15.0015Z" fill="black"/>
<path d="M31.01 23.5128C31.5478 23.3149 32.0366 23.0675 32.5744 22.8695C32.6233 22.919 32.6233 23.018 32.6722 23.0675C32.1833 23.3149 31.6455 23.5128 31.1566 23.7602C31.1077 23.6613 31.0589 23.6118 31.01 23.5128Z" fill="black"/>
<path d="M26.5121 21.4345C26.0721 21.8303 25.5832 21.8798 25.0454 21.8798C25.681 21.4345 25.681 21.4345 26.5121 21.4345Z" fill="black"/>
<path d="M22.7478 16.3376C22.6989 16.684 22.4056 16.7829 22.1611 16.9314C21.9656 17.0304 21.8189 16.8819 21.77 16.7335C21.6723 16.5355 21.8678 16.5355 21.9656 16.486C22.21 16.4365 22.4545 16.0902 22.7478 16.3376Z" fill="black"/>
<path d="M20.5477 13.2695C20.7922 12.8242 21.0366 12.5767 21.5744 12.6262C21.3299 13.1211 21.0366 13.2695 20.5477 13.2695Z" fill="black"/>
<path d="M34.5787 14.5066C34.1387 14.4571 33.7477 14.6056 33.3077 14.7046C33.6499 14.2097 34.0899 14.4077 34.5787 14.5066Z" fill="black"/>
<path d="M34.2854 23.4138C34.1877 23.3644 34.041 23.3149 34.041 23.3149C34.041 23.1169 34.1877 23.018 34.3343 22.9685C34.4321 22.919 34.6277 22.9685 34.6277 23.1169C34.5788 23.2159 34.3832 23.3149 34.2854 23.4138Z" fill="black"/>
<path d="M31.45 43.2572C31.2545 43.6036 30.7167 43.6035 30.6678 44.0984C30.4233 44.0984 30.2767 44.2469 30.13 44.4448C29.4456 45.484 28.4678 45.6324 27.2945 45.3355C27.8322 44.3953 29.4456 45.3355 29.69 43.851C29.0056 43.4551 28.4189 44.0489 27.7833 44.1974C27.1478 44.3458 26.5611 44.6427 25.8278 44.9396C26.1211 44.0984 26.7078 43.9499 27.3433 43.7025C28.7122 43.2077 30.0811 43.2077 31.45 43.2572Z" fill="black"/>
<path d="M36.2899 37.418C36.4854 36.6262 37.0232 36.2798 37.8054 36.1314C38.9787 35.9334 40.1521 36.1314 41.2765 35.7355C40.7387 36.6757 39.5654 35.785 39.0276 36.6757C39.4187 36.9231 39.761 36.7252 40.1032 36.6757C40.4454 36.5767 40.7876 36.5273 41.2276 36.8242C40.3965 37.2695 39.5165 37.2695 38.7343 37.2695C37.9521 37.319 37.121 37.8139 36.2899 37.418Z" fill="black"/>
<path d="M34.8233 39.1994C33.5522 39.2489 32.3299 39.3479 31.0588 39.3479C29.7877 39.3479 28.6633 40.0407 27.3922 39.8922C29.7388 38.853 32.2322 38.853 34.8233 39.1994Z" fill="black"/>
<path d="M28.5167 37.8139C29.3967 37.1211 31.4989 36.7747 33.7967 36.9726C32.7211 37.1706 31.89 37.2695 31.0589 37.418C30.2278 37.6159 29.4456 38.1108 28.5167 37.8139Z" fill="black"/>
<path d="M23.4811 44.5932C23.6766 44.3458 23.9699 44.2468 24.1655 43.9994C24.8988 43.0592 24.8988 43.0592 26.6099 43.1087C25.4366 43.8015 24.7033 44.6922 23.4811 44.5932Z" fill="black"/>
<path d="M41.9122 40.585C41.0811 41.0798 40.4456 41.1788 39.5656 41.1293C40.25 40.387 40.8856 40.2386 41.9122 40.585Z" fill="black"/>
<path d="M26.7077 42.1685C27.3432 41.8221 27.9788 41.6242 28.8588 41.7726C28.1254 42.4159 27.4899 42.5644 26.7077 42.1685Z" fill="black"/>
<path d="M38.7343 38.2592C39.6632 37.9128 40.5921 37.6159 41.8143 37.6159C40.7876 38.6056 39.6632 37.9128 38.7343 38.2592Z" fill="black"/>
<path d="M36.0945 39.051C36.3878 38.853 36.6323 38.7046 36.8278 38.6056C37.0234 38.5066 37.3167 38.3087 37.4145 38.7541C37.4634 39.0015 37.3167 39.1994 37.0234 39.1994C36.7789 39.1994 36.4856 39.3479 36.0945 39.051Z" fill="black"/>
<path d="M29.2011 35.2901C28.9078 35.4386 28.81 35.5376 28.6633 35.587C28.37 35.6365 28.2722 36.0819 27.93 35.9334C27.8811 35.9334 27.8322 35.884 27.8322 35.8345C27.8811 35.3891 28.2722 35.3396 28.5655 35.2407C28.7122 35.1912 28.8589 35.2407 29.2011 35.2901Z" fill="black"/>
<path d="M35.1167 35.0922C34.7256 35.2407 34.4323 35.2407 34.1389 35.0922C34.4812 34.4984 34.7745 34.9932 35.1167 35.0922Z" fill="black"/>
<path d="M34.3343 32.3705C33.9432 32.618 33.6499 32.8159 33.3077 32.7169C33.5521 32.42 33.8455 32.3211 34.3343 32.3705Z" fill="black"/>
<path d="M30.2278 35.686C30.0811 35.8345 29.8855 35.884 29.6411 35.884C29.5922 35.884 29.5433 35.7355 29.5922 35.686C29.69 35.4386 29.9344 35.4881 30.13 35.5376C30.2278 35.5376 30.2766 35.587 30.2278 35.686Z" fill="black"/>
<path d="M19.3743 31.2819C19.2277 29.8963 19.7654 29.0056 20.2054 28.1149C20.1565 29.1046 20.1565 30.1437 19.3743 31.2819Z" fill="black"/>
<path d="M20.0588 22.9685C20.1077 24.0571 19.6677 24.7499 19.4232 25.5417C19.081 25.2448 18.4944 24.9974 19.0321 24.552C19.4721 24.1561 19.4721 23.5623 20.0588 22.9685Z" fill="black"/>
<path d="M19.081 21.2365C19.3744 21.0386 19.6677 20.8407 20.0099 20.5932C20.1566 21.484 19.7166 22.1767 19.4232 22.8695C19.3744 22.9685 19.2277 23.0675 19.081 22.9685C18.9832 22.919 18.8855 22.7705 18.8855 22.6716C18.8855 22.2757 19.1788 22.0283 19.3255 21.7314C19.521 21.4839 19.4722 21.2365 19.081 21.2365Z" fill="black"/>
<path d="M19.6188 41.4757C19.9611 41.8221 19.7655 42.1685 19.8144 42.5149C19.8144 42.7128 19.7166 42.8613 19.5211 42.7623C19.2277 42.6138 19.0322 43.0097 18.8366 42.8118C18.6411 42.6633 18.7388 42.3664 18.8366 42.1685C18.9833 41.8221 19.2277 41.5747 19.6188 41.4757Z" fill="black"/>
<path d="M18.8856 41.0798C18.3967 40.1891 18.9834 39.6448 19.4234 38.8035C19.5211 40.1891 19.5211 40.1891 18.8856 41.0798Z" fill="black"/>
<path d="M16.49 14.1602C16.4411 13.4675 16.3434 12.7747 16.6367 12.0819C17.0278 12.7747 16.7345 13.4675 16.49 14.1602Z" fill="black"/>
<path d="M20.0589 25.7396C20.01 26.4324 20.0589 27.1252 19.57 27.818C19.3255 26.9767 19.7166 26.3829 20.0589 25.7396Z" fill="black"/>
<path d="M16.2943 44.7417C15.6588 44.9396 15.121 44.6922 14.4855 44.2963C15.4143 43.8015 15.7566 44.5437 16.2943 44.7417Z" fill="black"/>
<path d="M16.7343 45.8304C16.7343 45.6819 16.6854 45.6324 16.7343 45.5829C16.9298 45.286 17.1743 45.0881 17.5654 45.0386C17.6143 45.0386 17.6632 45.1871 17.6632 45.2365C17.5654 45.7314 17.2232 45.8304 16.7343 45.8304Z" fill="black"/>
<path d="M17.0765 15.5953C16.9299 15.7932 16.9299 16.0901 16.6365 16.1396C16.5876 16.1396 16.4899 16.0407 16.4899 15.9912C16.5388 15.6943 16.7343 15.4963 17.0276 15.3974C17.0276 15.3974 17.0765 15.4963 17.0765 15.5953Z" fill="black"/>
<path d="M17.5655 17.3767C17.4188 17.3273 17.3699 17.1788 17.4188 17.0798C17.4677 16.9314 17.5655 16.7829 17.7122 16.684C17.8588 16.585 17.9077 16.7334 17.9077 16.8819C17.9077 17.0798 17.8099 17.2778 17.5655 17.3767Z" fill="black"/>
<path d="M10.3788 36.1809C9.35211 35.9829 9.20544 35.7355 9.401 34.4489C9.93877 34.5974 9.841 35.2901 10.2321 35.4881L10.1832 35.4386C10.281 35.686 10.1832 35.9829 10.3788 36.1809Z" fill="black"/>
<path d="M10.2811 34.152C9.64553 33.6077 9.25442 32.9644 9.25442 31.8757C10.0366 32.5685 10.1344 33.3602 10.2811 34.152Z" fill="black"/>
<path d="M10.2321 35.4881C10.2321 35.0427 10.2811 34.5974 10.2811 34.152L10.2322 34.152C10.6722 34.4489 10.6722 34.9438 10.77 35.3891C10.8189 35.5376 10.8189 35.785 10.5744 35.7355C10.4767 35.7355 10.3299 35.5376 10.2321 35.4881Z" fill="black"/>
<path d="M9.93872 38.5561C9.88983 38.8036 9.69427 38.853 9.54761 38.853C9.05872 38.9025 9.10761 38.4077 9.00983 38.1603C8.96094 38.0118 9.10761 37.8633 9.20538 37.8633C9.5965 37.9623 9.74316 38.3087 9.93872 38.5561Z" fill="black"/>
<path d="M10.3788 36.1809C10.4766 36.6757 10.5744 37.1211 10.6722 37.6159C10.0855 37.1705 10.2321 36.6757 10.3788 36.1809Z" fill="black"/>
<path d="M25.0455 25.1953C24.6055 25.6901 24.5077 26.6303 23.481 26.5314C23.6766 25.6901 24.4099 25.5417 25.0455 25.1953Z" fill="black"/>
<path d="M37.9033 25.5417C37.3166 26.185 36.4855 26.3334 35.7033 26.5809C36.3388 25.9376 36.9255 25.3932 37.9033 25.5417Z" fill="black"/>
<path d="M23.3343 31.7768C23.5299 31.2819 23.3343 30.6386 24.0676 30.4407C24.6054 31.2819 23.7743 31.4304 23.3343 31.7768Z" fill="black"/>
<path d="M22.8945 28.9561C23.4323 28.3128 23.8234 28.0159 24.5078 28.0654C24.0678 28.5602 23.6278 28.8077 22.8945 28.9561Z" fill="black"/>
<path d="M36.681 27.8675C37.5611 27.4221 37.5611 27.4221 38.2455 27.9169C37.7566 28.1149 37.3166 28.1149 36.681 27.8675Z" fill="black"/>
<path d="M22.4055 30.886C22.4055 31.1334 22.2589 31.2819 22.1122 31.2819C21.9166 31.2819 21.77 31.1829 21.8188 30.985C21.8677 30.8365 22.0144 30.6881 22.21 30.6881C22.3077 30.6881 22.4055 30.7871 22.4055 30.886Z" fill="black"/>
<path d="M22.9433 33.1623C22.9922 33.6572 22.6989 33.7561 22.5033 33.9541C22.3566 33.5582 22.6011 33.3603 22.9433 33.1623Z" fill="black"/>
<path d="M6.41884 30.5396C5.88106 29.8963 5.88106 29.8963 5.88106 29.1541C6.36995 29.7479 6.36995 29.7479 6.41884 30.5396Z" fill="black"/>
<path d="M14.1432 3.3726C14.681 4.11487 14.3388 4.60972 14.0943 5.15405C13.8988 4.60972 13.8499 4.06539 14.1432 3.3726Z" fill="black"/>
<path d="M15.5122 3.86745C15.5122 4.06539 15.561 4.21384 15.5121 4.41178C15.4632 4.70869 15.3165 5.00559 15.2187 5.35198C14.9254 4.36229 14.9255 4.3623 15.5122 3.86745Z" fill="black"/>
<path d="M16.2944 8.2221C17.1744 8.27159 18.0056 8.2221 18.8367 7.77674C19.3744 7.47984 20.0589 7.38087 20.7922 7.43035C20.7922 7.9252 20.2544 7.97468 20.1078 8.32107C20.01 8.56849 19.6678 8.81592 19.3744 8.32107C19.1789 7.97468 18.8367 8.42004 18.6411 8.56849C17.9567 9.11282 16.93 9.21179 16.2944 8.66746C16.2456 8.61798 16.3433 8.37056 16.2944 8.2221Z" fill="black"/>
<path d="M11.8943 4.31281C11.7477 3.57054 11.7965 2.92724 12.2854 2.13549C12.4321 3.02621 12.5299 3.66951 11.8943 4.31281Z" fill="black"/>
</svg>
