<svg width="48" height="48" viewBox="0 0 48 48" fill="none" xmlns="http://www.w3.org/2000/svg">
<path d="M47.7554 38.9542C47.5416 38.4814 47.4095 37.9732 47.2294 37.4849C47.1609 37.3819 47.1203 37.2634 47.1113 37.1406C47.1023 37.0178 47.1253 36.8948 47.178 36.7832C47.298 36.5678 47.3664 36.3281 47.3782 36.0825C47.3899 35.837 47.3447 35.592 47.2458 35.3664C46.9864 34.2015 46.604 33.0668 46.1048 31.9807C45.704 31.1219 45.2339 30.2964 44.9001 29.4039C44.4292 28.145 43.824 26.9305 43.4222 25.6523C42.7627 23.5545 42.2049 21.4264 41.3843 19.3785C41.2035 18.9274 41.0693 18.4527 40.9217 17.9871C40.4048 16.3573 40.0133 14.6787 39.1151 13.1844C39.0046 12.9299 38.8296 12.7077 38.607 12.5393C38.3844 12.3709 38.1216 12.2619 37.8439 12.223C36.2099 12.1376 34.7167 11.4973 33.1649 11.1036C31.1704 10.5977 31.1889 10.5302 30.2846 8.69449C30.1358 8.3924 29.9821 8.09179 29.8124 7.8009C29.7446 7.62996 29.6265 7.48294 29.4734 7.37873C28.765 7.12154 28.2005 6.48533 27.3436 6.60364C27.0953 6.62196 26.8457 6.59215 26.6089 6.51588C24.5781 5.97328 22.6815 6.40618 20.85 7.28522C20.5669 7.41234 20.3174 7.60226 20.1207 7.84019C19.924 8.07813 19.7856 8.35766 19.7162 8.65705C19.6049 9.13434 19.4045 9.58696 19.1254 9.99176C19.0725 10.0959 18.9956 10.1862 18.9007 10.2555C18.8059 10.3247 18.6959 10.3709 18.5796 10.3903C16.5379 10.7236 14.5069 11.1229 12.4625 11.4377C12.1274 11.4787 11.81 11.6094 11.5447 11.8157C11.2793 12.0221 11.0762 12.2961 10.9573 12.6083C9.75359 15.1904 8.71855 17.8464 7.43226 20.3927C6.47914 22.2795 5.56929 24.1875 4.62758 26.0799C4.35544 26.6268 4.00197 27.1359 3.75129 27.6911C3.07073 29.1987 2.44712 30.7314 1.7585 32.2352C1.4879 32.7316 1.31992 33.2761 1.26434 33.8371C1.20875 34.3981 1.26668 34.9645 1.43474 35.5032C1.48095 35.666 1.49341 35.8364 1.47136 36.0041C1.44932 36.1718 1.39323 36.3334 1.30645 36.4792C1.06978 37.0123 0.773057 37.5173 0.421891 37.9848C0.291887 38.0984 0.206866 38.2539 0.18193 38.4235C0.156994 38.5932 0.193756 38.7661 0.285689 38.9115C0.506666 39.3182 0.821573 39.6678 1.20488 39.9319C2.04805 40.3757 2.85678 40.8833 3.70184 41.3143C4.9431 41.9473 5.25941 41.8018 6.06572 40.6927C6.63778 39.9059 6.94998 38.8835 8.03093 38.5302C8.17001 38.4114 8.27832 38.2614 8.34684 38.0929C8.84249 37.4095 8.98465 36.5703 9.37233 35.8377C10.1174 34.4297 10.9239 33.0518 11.5379 31.5786C11.5499 31.5434 11.5692 31.5111 11.5945 31.4837C11.6198 31.4563 11.6506 31.4343 11.685 31.4193C11.7193 31.4042 11.7564 31.3963 11.794 31.3961C11.8316 31.3959 11.8688 31.4033 11.9033 31.418C11.9571 31.8294 12.0109 32.2728 12.0739 32.7149C12.2158 33.711 12.2179 34.7547 12.7738 35.6366C13.1992 36.357 13.3602 37.2 13.2297 38.0239C13.2158 38.4519 13.1717 38.8784 13.0977 39.3003C13.0383 39.4916 13.0369 39.6958 13.0937 39.8879C13.1504 40.0799 13.2629 40.2513 13.4171 40.381C13.7879 40.7058 14.2111 40.967 14.6692 41.1539C16.6835 41.9419 18.7986 42.4505 20.9542 42.6651C22.8153 42.781 24.6639 42.6349 26.5175 42.721C27.2449 42.7549 27.9866 42.4168 28.7193 42.4269C30.6976 42.4538 32.5546 41.7091 34.5093 41.623C34.6928 41.5936 34.8736 41.5493 35.0499 41.4908C35.2671 41.4584 35.4625 41.3425 35.5934 41.1684C35.7244 40.9942 35.7803 40.776 35.7488 40.5613C35.747 40.1327 35.6871 39.7064 35.5705 39.2937C35.3209 38.3815 35.2439 37.58 35.914 36.7411C36.5634 35.9281 36.7847 34.864 37.2011 33.7907C37.3645 34.1068 37.4772 34.2892 37.5569 34.4846C37.9954 35.5597 38.4291 36.6367 38.8579 37.7157C38.9768 38.0981 39.1929 38.444 39.4855 38.7206C39.778 38.9972 40.1374 39.1953 40.5294 39.2959C40.7159 39.3237 40.8858 39.4177 41.0072 39.5603C41.1286 39.7029 41.1933 39.8842 41.1891 40.0705C41.2119 40.6491 41.606 41.086 41.7549 41.6159C41.7732 41.6749 41.8033 41.7296 41.8434 41.7769C41.8834 41.8242 41.9327 41.8631 41.9882 41.8914C42.0437 41.9196 42.1044 41.9366 42.1666 41.9414C42.2289 41.9461 42.2914 41.9385 42.3507 41.9191C43.8552 41.7207 45.3068 41.2377 46.6262 40.4966C46.9581 40.2742 47.27 40.0239 47.5583 39.7485C47.69 39.668 47.7844 39.5397 47.8212 39.3911C47.8581 39.2426 47.8344 39.0857 47.7554 38.9542ZM3.5019 39.1796L3.50042 39.1819C3.32105 39.5518 3.051 39.8716 2.71478 40.1123C2.68437 40.1277 2.65096 40.1363 2.61683 40.1378C2.58271 40.1392 2.54867 40.1334 2.51705 40.1206C2.48543 40.1079 2.45696 40.0885 2.4336 40.0639C2.41025 40.0393 2.39254 40.01 2.3817 39.978C2.34677 39.9505 2.32268 39.9119 2.31359 39.8687C2.2901 39.7134 2.30423 39.5548 2.35481 39.406C2.4054 39.2572 2.49099 39.1223 2.60457 39.0125C2.92458 38.3558 3.44737 37.4881 3.82093 38.0656C3.85431 38.1185 3.8751 38.1782 3.88173 38.2402C3.89225 38.2657 3.89866 38.2927 3.90073 38.3202C3.89634 38.4826 3.85875 38.6425 3.79021 38.7901C3.72167 38.9378 3.62361 39.0703 3.5019 39.1796V39.1796ZM5.28731 40.2117C5.05989 40.5456 4.74844 40.8152 4.38356 40.9942C4.34429 41.0044 4.30299 41.0042 4.2638 40.9938C4.2246 40.9833 4.18887 40.9628 4.16015 40.9345C4.13144 40.9061 4.11074 40.8708 4.10013 40.8321C4.08952 40.7934 4.08936 40.7526 4.09966 40.7138C4.30593 39.9739 4.97365 39.5463 5.39647 38.9414C5.4233 38.9048 5.45997 38.8763 5.50235 38.8592C5.54472 38.842 5.5911 38.8369 5.63625 38.8445C5.68139 38.852 5.72351 38.8719 5.75783 38.9018C5.79216 38.9317 5.81732 38.9705 5.83048 39.0138C5.85303 39.0347 5.87011 39.0606 5.88025 39.0894C5.89039 39.1182 5.89329 39.149 5.88871 39.1792C5.8025 39.577 5.59217 39.9381 5.28731 40.2117ZM11.6982 28.3052C11.6942 28.4861 11.6593 28.6651 11.5949 28.8344C10.8206 30.9233 9.87745 32.9472 8.77456 34.8867C8.35136 35.5985 7.99966 36.3494 7.72446 37.1288C7.69331 37.2793 7.63084 37.4218 7.54102 37.5472C7.4512 37.6726 7.33598 37.7782 7.20267 37.8573C7.06935 37.9364 6.92085 37.9873 6.76658 38.0067C6.6123 38.0262 6.45561 38.0138 6.30645 37.9703C5.29683 37.7901 4.36536 37.3143 3.63297 36.6048C3.50255 36.4387 3.35401 36.2872 3.19004 36.1532C2.37823 35.6339 2.26908 34.8341 2.33581 33.9861C2.3463 33.6797 2.40986 33.3774 2.52372 33.0923C3.23542 31.4998 3.88733 29.8795 4.649 28.311C5.48908 26.581 6.45382 24.9118 7.24787 23.1566C7.92761 21.654 8.7298 20.2031 9.35893 18.6814C9.86078 17.4676 10.3883 16.2661 10.9414 15.0771C11.0145 14.7829 11.2016 14.5288 11.4624 14.3694C11.492 15.4972 11.5742 16.4963 11.532 17.4904C11.4552 19.2986 11.602 21.0952 11.7073 22.895C11.8128 24.6987 11.6885 26.5018 11.6982 28.3052ZM30.2805 10.9601C29.4483 10.5388 29.5186 9.63311 28.9206 9.12275C29.486 9.16094 29.9023 9.74074 30.2805 10.9601ZM28.4147 9.63505C28.6325 10.1991 28.9374 10.7265 29.3186 11.1984C29.4183 11.333 29.4719 11.4669 29.3103 11.586C29.2471 11.629 29.1697 11.6466 29.0938 11.6352C29.018 11.6239 28.9493 11.5844 28.9018 11.5249C28.3264 11.0471 28.2211 10.3375 27.9868 9.69439C27.9361 9.55523 28.0764 9.49447 28.2304 9.47465C28.3039 9.51285 28.3671 9.56785 28.4147 9.63505ZM27.8989 12.0336C27.4332 12.2336 27.3523 11.667 27.2457 11.3581C27.0604 10.8483 26.9664 10.3105 26.9677 9.76884C27.4996 10.2287 27.4928 10.8143 27.7166 11.2795C27.8279 11.511 28.2433 11.8857 27.8989 12.0336ZM28.2113 8.17342C27.1323 9.45554 22.6146 9.51905 21.0025 8.3745C22.0626 7.67307 23.302 7.28201 24.5775 7.24643C25.853 7.21085 27.1128 7.53221 28.2113 8.17342H28.2113ZM26.3191 12.3935C26.0788 12.4018 25.8696 12.365 25.8779 12.072C25.8948 11.4739 25.93 10.8763 25.9576 10.2784L26.151 10.2538C26.3453 10.8208 26.5066 11.3982 26.6341 11.9834C26.7316 12.2373 26.6034 12.3837 26.3191 12.3935ZM24.8298 12.3338C24.659 11.6008 24.7546 10.8317 25.0997 10.1612C25.2351 11.3647 25.1893 11.6942 24.8298 12.3338ZM23.9023 12.1352C23.8368 12.3753 23.7281 12.5508 23.4678 12.4898C23.2161 12.4309 23.2854 12.1845 23.3346 12.0362C23.5402 11.4162 23.4458 10.706 23.9681 10.1682C24.0843 10.8213 24.0619 11.4911 23.9023 12.1352V12.1352ZM22.9432 10.3986C22.806 10.8986 22.7123 11.4102 22.5731 11.9095C22.5008 12.1687 22.407 12.4963 22.0233 12.3578C21.6941 12.239 21.8348 11.964 21.8998 11.7322C22.0645 11.1454 22.2272 10.5582 22.4118 9.89514C22.7412 9.92569 23.0783 9.90595 22.9432 10.3986ZM21.4743 9.62803L21.7256 9.69589C21.5535 10.3822 21.3801 11.0683 21.2103 11.7552C21.1785 11.8837 21.1277 11.9857 20.9723 11.9539C20.9352 11.9489 20.8998 11.9354 20.8689 11.9146C20.838 11.8937 20.8124 11.8661 20.7942 11.8338C20.7759 11.8015 20.7656 11.7654 20.7639 11.7285C20.7622 11.6916 20.7692 11.6547 20.7843 11.621C20.9172 10.9276 21.1495 10.2566 21.4743 9.62803ZM19.736 10.8491C20.009 10.3687 20.2468 9.86961 20.4475 9.35562C20.4852 9.2396 20.5614 9.12437 20.7081 9.22152C20.7673 9.27883 20.8152 9.34658 20.8493 9.42128C20.5866 10.0998 20.3363 10.7569 20.0754 11.4097C20.0639 11.4294 20.0483 11.4465 20.0295 11.4597C20.0107 11.4729 19.9893 11.4819 19.9667 11.4862C19.9441 11.4905 19.9208 11.49 19.8984 11.4846C19.876 11.4792 19.8551 11.4691 19.837 11.4551C19.7559 11.4156 19.6883 11.3536 19.6423 11.2767C19.6213 11.2033 19.6188 11.1259 19.6352 11.0514C19.6515 10.9768 19.6861 10.9074 19.736 10.8491ZM20.3112 20.0078C20.5878 20.0381 20.8667 20.0441 21.1444 20.0255C23.1908 19.8235 25.2193 20.2002 27.2578 20.1976C29.6672 20.1946 32.0734 20.5053 34.4883 20.202C35.3284 20.0965 36.1756 20.4009 37.0629 20.3117C37.001 20.6736 36.86 20.6659 36.7479 20.6748C35.2434 20.8763 33.7195 20.8931 32.2108 20.725C31.7553 20.7386 31.3013 20.784 30.8522 20.8608C28.8447 20.7962 26.8334 20.8613 24.824 20.8366C23.0641 20.815 21.3052 20.707 19.5455 20.6936C18.3401 20.6844 17.1385 20.8483 15.9291 20.8468C14.9048 20.8455 13.9063 20.6013 12.8848 20.5929C12.8225 20.6027 12.7587 20.597 12.6991 20.5765C12.6395 20.5559 12.586 20.5211 12.5434 20.4751C12.5008 20.4291 12.4705 20.3734 12.455 20.313C12.4395 20.2525 12.4395 20.1892 12.4549 20.1288C12.4737 19.9816 12.4727 19.8377 12.7104 19.8557C15.2408 20.047 17.7804 19.8067 20.3111 20.0078L20.3112 20.0078ZM13.3673 19.0417C13.7451 18.546 13.7799 18.0704 14.2846 17.9043L15.068 18.9258C14.5304 19.1595 14.045 18.8625 13.3673 19.0417ZM16.8844 18.9656C17.1646 18.4731 17.3791 17.9034 17.9556 17.908C18.4737 17.912 18.536 18.5224 18.8615 18.9989C18.2029 19.0507 17.5408 19.0395 16.8844 18.9656ZM20.6541 19.1232C21.2122 18.0913 21.3464 18.0869 22.0136 19.1176C21.5653 19.0232 21.1016 19.0251 20.6541 19.1232H20.6541ZM23.9692 18.9627C24.0959 18.7995 24.257 18.6655 24.4414 18.5699C24.4642 18.5395 24.4946 18.5153 24.5296 18.4999C24.5646 18.4844 24.6031 18.4782 24.6413 18.4819C24.6795 18.4855 24.7161 18.4989 24.7475 18.5206C24.7789 18.5424 24.804 18.5718 24.8205 18.606C24.8773 18.6549 24.9199 18.7179 24.9438 18.7885C24.9676 18.8591 24.9719 18.9347 24.9562 19.0075C24.9253 19.0592 24.8776 19.0992 24.821 19.121C24.7643 19.1428 24.7019 19.1452 24.6436 19.1278C24.5263 19.1588 24.4028 19.16 24.2849 19.1311C24.1669 19.1022 24.0583 19.0443 23.9692 18.9627L23.9692 18.9627ZM27.2747 19.1845C27.8566 18.5934 28.1275 18.5522 28.4254 19.0038C28.5417 19.1801 28.5519 19.3504 28.2773 19.3838C28.1561 19.3978 28.0333 19.3935 27.9134 19.3711C27.7997 19.3984 27.6808 19.3955 27.5686 19.3627C27.4564 19.33 27.355 19.2685 27.2747 19.1845L27.2747 19.1845ZM30.224 18.839C30.3884 18.7058 30.5622 18.5477 30.7858 18.7327C30.8945 18.7883 30.9841 18.8745 31.0431 18.9804C31.1021 19.0864 31.1279 19.2073 31.1172 19.3277C30.9169 19.4034 30.6998 19.4256 30.488 19.3921C30.3986 19.4143 30.3043 19.407 30.2196 19.3712C30.1348 19.3355 30.0644 19.2732 30.0189 19.194C30.0053 19.1204 30.0184 19.0445 30.0559 18.9795C30.0934 18.9146 30.1529 18.8648 30.2239 18.839L30.224 18.839ZM32.8528 19.2986C32.882 19.1811 32.9359 19.0711 33.0112 18.9757C33.0865 18.8803 33.1813 18.8017 33.2895 18.7451C33.3196 18.7216 33.3545 18.7047 33.3918 18.6957C33.4291 18.6867 33.4679 18.6858 33.5056 18.6929C33.5433 18.7001 33.579 18.7152 33.6103 18.7372C33.6416 18.7592 33.6677 18.7876 33.6868 18.8204C33.7521 18.859 33.8032 18.9171 33.8328 18.9863C33.8624 19.0555 33.8689 19.1323 33.8514 19.2054C33.8253 19.2607 33.7822 19.3065 33.7284 19.3364C33.6745 19.3663 33.6124 19.3787 33.551 19.3719C33.3171 19.4338 33.0682 19.4077 32.8527 19.2986L32.8528 19.2986ZM35.4745 19.1235C35.8292 18.6572 36.042 18.8013 36.3021 19.1214C36.1763 19.1931 36.0338 19.231 35.8886 19.2314C35.7434 19.2318 35.6006 19.1945 35.4745 19.1235ZM34.4614 23.3865L33.9081 24.4484L33.1241 23.3882C33.5596 23.2553 34.0255 23.2547 34.4614 23.3865H34.4614ZM12.5368 21.9429C12.5332 21.8969 12.54 21.8507 12.5567 21.8077C12.5735 21.7647 12.5998 21.726 12.6338 21.6944C12.6677 21.6627 12.7084 21.639 12.7528 21.6249C12.7972 21.6108 12.8443 21.6068 12.8905 21.613C13.2906 21.6026 13.691 21.6247 14.0874 21.6791C15.9045 21.816 17.73 21.7995 19.5442 21.6297C20.8754 21.5754 22.2088 21.6069 23.5359 21.7241C25.4251 21.8633 27.3113 21.7781 29.1982 21.7572C30.4275 21.7274 31.6554 21.8562 32.8509 22.1404C30.531 22.2092 28.2212 21.7448 25.9117 21.9902C23.4347 22.2534 20.9615 22.0149 18.4895 22.12C17.8407 22.1476 17.1954 22.2492 16.5473 22.303C15.9017 22.4004 15.2431 22.3717 14.6086 22.2188C14.3054 22.1531 13.9917 22.1501 13.6873 22.2101C13.4099 22.2302 13.1314 22.2284 12.8544 22.2046C12.8159 22.2098 12.7766 22.207 12.7392 22.1964C12.7018 22.1858 12.6671 22.1676 12.6372 22.1429C12.6073 22.1183 12.5829 22.0878 12.5656 22.0533C12.5484 22.0189 12.5385 21.9813 12.5368 21.9429ZM31.0995 23.7823C31.086 23.8184 31.0627 23.85 31.0321 23.8737C31.0015 23.8975 30.9649 23.9124 30.9263 23.9168C30.8877 23.9213 30.8485 23.9151 30.8133 23.8989C30.778 23.8827 30.7479 23.8572 30.7264 23.8252C30.5129 23.5808 30.1173 23.5179 30.0233 23.1235C30.4551 22.9876 30.849 23.3023 31.2179 23.1081C31.2696 23.2191 31.2859 23.343 31.2648 23.4634C31.2436 23.5838 31.186 23.695 31.0995 23.7823L31.0995 23.7823ZM28.3732 23.0894C28.3777 23.1979 28.3593 23.3061 28.3193 23.4073C28.2792 23.5084 28.2183 23.6002 28.1404 23.6768C27.7927 24.061 27.7058 24.0661 27.294 23.6862C27.0014 23.5081 26.7595 23.2595 26.5909 22.9638C27.1861 22.8549 27.7996 22.8981 28.3732 23.0894ZM24.7314 24.1385C24.3189 23.8871 23.9694 23.5467 23.7092 23.1429C24.1812 23.0751 24.659 23.0546 25.1352 23.0817C25.1306 23.4699 24.9877 23.8441 24.7314 24.1385ZM21.7847 23.1517C21.6604 23.84 21.1755 24.1245 20.8326 24.615L19.9872 23.4339C20.5809 23.3087 21.1809 23.2145 21.7847 23.1517H21.7847ZM18.3232 23.6601C17.6346 24.5715 17.4362 24.5645 16.8089 23.6377C17.3091 23.5335 17.8265 23.5412 18.3232 23.6601H18.3232ZM14.2544 23.9311C13.9148 24.0238 13.8935 23.7364 13.8191 23.5197C13.9153 23.4539 14.0319 23.4236 14.1484 23.4345C14.265 23.4453 14.3739 23.4964 14.4559 23.5788C14.4757 23.6519 14.4656 23.7297 14.4279 23.7956C14.3903 23.8614 14.328 23.9101 14.2544 23.9311H14.2544ZM13.9738 39.307C13.99 38.6878 14.1044 38.0749 14.3129 37.4907C15.0672 38.325 14.4617 39.1944 14.7882 39.9789C14.1817 39.9639 13.9373 39.7929 13.9738 39.307ZM15.9683 40.485C15.7241 39.7469 15.1857 39.0332 15.8102 38.0686C16.3099 38.94 15.9244 39.7303 15.9683 40.485ZM17.5193 40.745C17.5217 40.7751 17.5179 40.8054 17.5083 40.834C17.4986 40.8627 17.4831 40.8891 17.4629 40.9117C17.4427 40.9343 17.418 40.9527 17.3904 40.9657C17.3628 40.9787 17.3329 40.9861 17.3023 40.9874C17.2413 40.9959 17.1793 40.983 17.1269 40.9508C17.0746 40.9187 17.0354 40.8694 17.0161 40.8116C16.9063 40.1866 16.8842 39.5495 16.9506 38.9185C16.9518 38.8964 16.9581 38.8749 16.969 38.8555C16.9798 38.8362 16.995 38.8196 17.0134 38.8069C17.0317 38.7942 17.0528 38.7858 17.0749 38.7823C17.097 38.7789 17.1196 38.7804 17.1411 38.7869C17.2176 38.7859 17.2925 38.8087 17.3552 38.8522C17.4178 38.8957 17.4649 38.9576 17.4898 39.0291C17.5328 39.3262 17.5368 39.6289 17.5572 39.9292L17.522 39.9302C17.522 40.2018 17.5284 40.4737 17.5193 40.745ZM18.9666 40.9757C18.9738 41.0507 18.9516 41.1255 18.9047 41.1849C18.8578 41.2443 18.7896 41.2837 18.7143 41.295C18.4598 41.3133 18.4035 41.1458 18.413 40.9445C18.3507 40.372 18.42 39.7929 18.6159 39.2506C18.7531 39.8304 19.0968 40.3589 18.9666 40.9757V40.9757ZM20.179 41.1697C19.8205 40.6414 19.8158 40.5109 19.9014 39.6496C20.5829 40.0838 19.976 40.7055 20.179 41.1697ZM21.48 41.5475C21.2836 41.3572 21.1622 41.104 21.1377 40.8334C21.1131 40.5627 21.1869 40.2923 21.3459 40.0705C21.4757 40.2923 21.5549 40.5393 21.578 40.7944C21.6012 41.0495 21.5677 41.3065 21.48 41.5475L21.48 41.5475ZM22.6965 41.7655C22.492 41.3044 22.4412 40.7911 22.5515 40.2996C22.5574 40.2617 22.5712 40.2253 22.5919 40.1927C22.6126 40.1602 22.6398 40.1322 22.6719 40.1104C22.704 40.0886 22.7402 40.0736 22.7784 40.0662C22.8166 40.0588 22.8559 40.0591 22.8939 40.0673C22.9238 40.0741 22.952 40.0868 22.9767 40.1047C23.0015 40.1227 23.0222 40.1454 23.0378 40.1715C23.0533 40.1976 23.0633 40.2266 23.0671 40.2566C23.0709 40.2867 23.0684 40.3172 23.0599 40.3463C23.1032 40.5948 23.0932 40.8495 23.0306 41.094C22.968 41.3385 22.8542 41.5672 22.6965 41.7655V41.7655ZM24.3609 41.4608C24.3596 41.5062 24.3404 41.5493 24.3074 41.5808C24.2743 41.6124 24.23 41.6299 24.1841 41.6296C24.1228 41.6338 24.0621 41.616 24.0131 41.5796C23.964 41.5431 23.9299 41.4904 23.917 41.4312C23.7798 40.9643 24.0179 40.551 24.0739 40.0302C24.5446 40.5048 24.38 40.9971 24.3609 41.4608L24.3609 41.4608ZM25.795 41.6653C25.7348 41.6792 25.672 41.6785 25.612 41.6633C25.5521 41.648 25.4968 41.6187 25.4508 41.5777C25.4048 41.5368 25.3696 41.4854 25.3481 41.4281C25.3265 41.3708 25.3194 41.3092 25.3272 41.2485C25.3251 41.1273 25.3118 41.0062 25.2999 40.8288C25.3158 40.6665 25.3414 40.5053 25.3763 40.346C25.3952 40.2553 25.4486 40.1751 25.5255 40.1221C25.6024 40.0691 25.6969 40.0472 25.7897 40.0609C25.8647 40.0789 25.9302 40.1238 25.9737 40.1867C26.0171 40.2497 26.0353 40.3264 26.0248 40.4019C26.0584 40.6723 26.0939 40.9435 26.1051 41.2153C26.1138 41.4278 26.1135 41.6522 25.795 41.6653L25.795 41.6653ZM27.5918 40.5882C27.5846 40.6861 27.5714 40.7833 27.5521 40.8796C27.4942 41.0958 27.666 41.4712 27.3489 41.496C27.0094 41.5226 27.0001 41.162 26.9888 40.8915C26.981 40.8009 26.9813 40.7098 26.9897 40.6192C27.0226 40.382 26.8589 40.0031 27.3209 40.039C27.6816 40.067 27.5733 40.3839 27.5917 40.5882L27.5918 40.5882ZM29.2724 40.3842C29.2723 40.4197 29.2701 40.4551 29.2659 40.4903C29.2023 40.8248 29.3105 41.3411 28.7683 41.2889C28.2655 41.2404 28.54 40.7754 28.5064 40.4836C28.503 40.4541 28.5161 40.4231 28.5148 40.3931C28.4991 40.036 28.6241 39.7769 29.0309 39.8239C29.4089 39.8675 29.2254 40.1917 29.2724 40.3842L29.2724 40.3842ZM30.4185 41.1174C30.2074 41.1366 30.1665 40.9934 30.1706 40.8347C30.1684 40.4309 30.2719 40.0335 30.471 39.6808C30.5868 40.0658 30.629 40.4687 30.5957 40.8689C30.6054 40.897 30.6082 40.9269 30.604 40.9563C30.5997 40.9856 30.5885 41.0136 30.5712 41.0378C30.5539 41.062 30.5311 41.0819 30.5045 41.0957C30.478 41.1096 30.4485 41.117 30.4185 41.1174L30.4185 41.1174ZM32.0903 40.4871C32.1106 40.6928 32.1981 40.9569 31.8602 40.9494C31.8072 40.9409 31.7564 40.9222 31.7108 40.8943C31.6651 40.8664 31.6255 40.8299 31.5942 40.7868C31.5629 40.7438 31.5405 40.6951 31.5283 40.6434C31.516 40.5918 31.5143 40.5383 31.523 40.486C31.5139 40.396 31.5173 40.3046 31.5169 40.2138C31.5153 39.859 31.5536 39.2917 31.8422 39.314C32.2628 39.3464 32.1026 39.8754 32.0889 40.2163C32.0888 40.3066 32.0815 40.3976 32.0903 40.4871L32.0903 40.4871ZM33.3217 40.6969C32.9401 40.1035 32.9297 40.0071 33.138 38.7568C33.358 39.0267 33.4927 39.3545 33.5254 39.6995C33.5581 40.0445 33.4873 40.3914 33.3217 40.6969ZM34.6518 40.3488C34.2783 39.8433 34.5954 39.2439 34.4029 38.7139C34.6601 39.2187 34.7473 39.7915 34.6518 40.3487L34.6518 40.3488ZM37.0368 27.8316C36.754 29.0915 36.7517 30.3806 36.5618 31.6502C36.3543 32.9485 36.0077 34.2213 35.5279 35.4473C34.9227 37.045 33.5768 37.7198 32.0292 38.1632C29.1076 39.0003 26.1215 39.0992 23.1041 39.1217C20.967 39.0578 18.8615 38.595 16.8987 37.7576C16.6386 37.66 16.3928 37.5235 16.1304 37.4338C14.1446 36.7549 13.359 35.1892 13.089 33.3052C12.9987 32.6747 12.9486 32.0274 12.8394 31.4004C12.6041 29.4848 12.5506 27.5516 12.6795 25.6261C12.5991 24.9844 12.6147 24.3346 12.7258 23.6974C13.0747 24.1594 13.3346 24.5261 13.6182 24.874C14.0568 25.4119 14.2689 25.4127 14.7128 24.9091C15.6308 23.8677 15.6311 23.8673 16.5902 24.844C16.7197 24.9759 16.8352 25.1223 16.9721 25.2459C17.0371 25.3217 17.1167 25.3839 17.2063 25.4289C17.2959 25.474 17.3936 25.5009 17.4939 25.5082C17.5941 25.5155 17.6948 25.503 17.7901 25.4715C17.8855 25.4399 17.9734 25.3899 18.049 25.3244C18.4943 25.0058 18.8937 24.6288 19.236 24.2037C19.5009 24.3837 19.7166 24.6258 19.8637 24.9082C20.5021 25.7152 21.2138 25.7151 21.8357 24.9137C21.9111 24.8165 21.9729 24.7085 22.0532 24.6157C22.7054 23.8624 22.9821 23.8543 23.6828 24.5674C23.7907 24.6772 23.8793 24.8058 23.9906 24.9117C24.0758 25.0319 24.1904 25.1287 24.3237 25.1934C24.457 25.258 24.6048 25.2882 24.7531 25.2812C24.9015 25.2742 25.0456 25.2303 25.1721 25.1534C25.2986 25.0766 25.4034 24.9694 25.4766 24.8418C25.6776 24.6133 25.8611 24.3698 26.0679 24.1142C26.4863 24.2968 26.8703 24.5485 27.2033 24.8583C27.8704 25.3006 27.9959 25.3067 28.5141 24.7438C29.3508 23.8352 29.3508 23.8352 30.1945 24.7558C30.2768 24.8672 30.3843 24.9582 30.5084 25.0216C30.6325 25.0849 30.7698 25.1188 30.9095 25.1206C31.0492 25.1224 31.1873 25.092 31.3131 25.0319C31.4388 24.9718 31.5486 24.8836 31.6338 24.7743C31.8296 24.5126 31.9993 24.2329 32.1406 23.939C32.2787 23.9783 32.4052 24.0499 32.5094 24.1475C32.6137 24.2452 32.6927 24.3661 32.7398 24.5002C32.9054 24.7595 33.1316 24.9757 33.3994 25.1307C34.1245 25.5571 34.2406 25.5361 34.7347 24.8517C34.8607 24.6772 34.9954 24.5084 35.1356 24.3449C35.2122 24.2736 35.2951 24.2092 35.3834 24.1525C35.831 24.6118 36.2203 25.149 36.926 25.2465C36.9976 25.2782 37.055 25.3344 37.0877 25.4048C37.1203 25.4752 37.1259 25.555 37.1034 25.6291C37.1589 26.3636 37.1366 27.1017 37.0368 27.8316H37.0368ZM36.3462 23.5577C36.3443 23.5364 36.3472 23.515 36.3546 23.495C36.3619 23.4749 36.3736 23.4567 36.3888 23.4415C36.404 23.4264 36.4224 23.4147 36.4427 23.4072C36.4629 23.3998 36.4846 23.3968 36.5061 23.3985C36.6245 23.3984 36.7529 23.4072 36.7626 23.5519C36.7636 23.6108 36.7428 23.6681 36.7041 23.7129C36.6655 23.7577 36.6115 23.787 36.5525 23.7954C36.4949 23.787 36.4423 23.7583 36.4043 23.7146C36.3664 23.6709 36.3458 23.6152 36.3462 23.5577ZM36.9706 22.3205C36.0133 22.3939 35.0508 22.3649 34.0998 22.2341C34.6027 21.9882 35.1687 22.1344 35.6978 21.9895C36.0747 21.8862 36.4948 22.0449 36.8709 21.823C37.0413 21.7224 37.153 21.8568 37.1945 22.0212C37.211 22.0557 37.2177 22.094 37.2139 22.132C37.2102 22.17 37.1961 22.2062 37.1731 22.2369C37.1501 22.2676 37.1192 22.2916 37.0835 22.3063C37.0479 22.321 37.0089 22.3259 36.9706 22.3205ZM37.0012 18.4165C36.7041 18.2755 36.4528 18.0553 36.2758 17.7807C36.241 17.7021 36.1855 17.634 36.1152 17.5835C36.0449 17.533 35.9623 17.5018 35.8758 17.4933C35.7893 17.4847 35.7021 17.499 35.623 17.5346C35.5439 17.5703 35.4759 17.6262 35.4259 17.6964C35.404 17.7181 35.3802 17.7379 35.3565 17.7576C35.0999 17.9716 34.9112 18.3608 34.5735 18.3581C34.2231 18.3552 34.0629 17.9549 33.8414 17.7037C33.7862 17.6386 33.7174 17.586 33.6396 17.5497C33.5619 17.5133 33.4771 17.494 33.3911 17.493C33.3051 17.4921 33.2199 17.5096 33.1414 17.5442C33.0629 17.5789 32.9929 17.63 32.9363 17.6939C32.5909 17.9509 32.2693 18.2391 31.9057 18.5402C31.5794 18.3171 31.2847 18.0522 31.0293 17.7523C30.9746 17.6768 30.9028 17.6151 30.8195 17.572C30.7363 17.5289 30.644 17.5057 30.55 17.5042C30.4561 17.5028 30.3631 17.5231 30.2785 17.5635C30.1939 17.6039 30.1201 17.6634 30.063 17.7371C29.9763 17.8244 29.8885 17.9111 29.7951 17.9913C29.1888 18.512 29.1882 18.5114 28.6368 17.9783C27.9956 17.3584 27.6234 17.3738 27.0298 18.0401C26.9146 18.1831 26.7861 18.3151 26.6459 18.4345C26.1508 18.8141 25.975 18.7809 25.5981 18.2671C24.6902 17.0294 24.6184 17.0089 23.4476 18.0617C22.9497 18.5094 22.7576 18.6744 22.3007 17.9948C22.1606 17.7914 21.9834 17.6154 21.7783 17.4758C21.6351 17.3532 21.4501 17.2891 21.2608 17.2963C21.0715 17.3036 20.8921 17.3818 20.7591 17.515C20.5151 17.7538 20.2365 17.9452 19.9844 18.1674C19.6409 18.47 19.4318 18.3127 19.2332 18.0326C19.1097 17.8584 19.0346 17.649 18.9025 17.4827C18.7944 17.3145 18.6461 17.1751 18.4706 17.0768C18.2951 16.9785 18.0978 16.9244 17.8961 16.9192C17.6945 16.914 17.4946 16.9579 17.3142 17.047C17.1337 17.1362 16.9782 17.2677 16.8614 17.4302C16.6085 17.6993 16.3535 17.9677 16.0827 18.2188C16.0439 18.2681 15.9928 18.3067 15.9344 18.3307C15.876 18.3548 15.8123 18.3635 15.7495 18.3561C15.6867 18.3486 15.6269 18.3253 15.5759 18.2883C15.5249 18.2514 15.4845 18.202 15.4585 18.145C15.288 17.8902 15.1418 17.6194 14.969 17.3662C14.5028 16.6832 14.0775 16.6167 13.4561 17.176C13.1228 17.5153 12.8093 17.873 12.5171 18.2474C12.3036 16.7234 12.2545 15.1814 12.3704 13.6472C12.3998 13.2438 12.0523 12.7638 12.4743 12.4381C12.836 12.2608 13.2327 12.1639 13.6363 12.1544C15.085 11.8344 16.5429 11.5702 18.0174 11.3913C18.3821 11.347 18.6905 11.2681 18.7469 11.7783C18.7652 11.8702 18.8076 11.9557 18.8698 12.0264C18.9321 12.097 19.012 12.1502 19.1017 12.1807C20.4196 12.684 21.6537 13.4817 23.1306 13.4529C24.364 13.4711 25.5972 13.4095 26.8225 13.2686C28.1426 13.1017 29.4131 12.6653 30.5532 11.9871C30.7109 11.8909 30.8983 11.8539 31.0814 11.8829C32.0072 11.9362 32.9211 12.1163 33.7968 12.418C34.5346 12.6459 35.29 12.8139 36.0556 12.9205C36.2368 12.9605 36.4245 12.9752 36.6024 13.0253C37.2872 13.2181 37.3824 13.3366 37.4083 14.047C37.4323 14.9954 37.3576 15.9437 37.1854 16.877C37.0975 17.3837 37.3953 17.9241 37.0012 18.4165L37.0012 18.4165ZM42.2952 40.4042C42.5887 40.5873 42.7878 40.7115 42.9946 40.8405C42.5093 41.1138 42.5093 41.1138 42.2952 40.4043L42.2952 40.4042ZM43.9801 40.4952C43.9362 40.4874 43.8947 40.47 43.8584 40.4445C43.8222 40.4189 43.7921 40.3857 43.7703 40.3473C43.5674 40.0565 43.4641 39.7093 43.4755 39.3564C43.5049 39.3254 43.5416 39.3021 43.5824 39.2886C43.6231 39.2751 43.6666 39.2718 43.709 39.279C44.1291 39.4461 44.1187 39.9074 44.344 40.1875C44.3508 40.2342 44.3456 40.2819 44.3288 40.3261C44.3119 40.3703 44.2841 40.4095 44.2478 40.4402C44.2115 40.471 44.1679 40.4921 44.1211 40.5017C44.0743 40.5113 44.0258 40.5091 43.9801 40.4952ZM44.7508 38.9637C44.7479 38.9218 44.7557 38.8798 44.7735 38.8417C44.7914 38.8035 44.8187 38.7705 44.8529 38.7455C44.8938 38.7348 44.9368 38.7347 44.9777 38.7453C45.0186 38.7558 45.056 38.7766 45.0864 38.8057C45.2719 39.1413 45.4358 39.4886 45.6067 39.8321C45.3927 39.7879 45.197 39.6816 45.0445 39.5269C44.892 39.3722 44.7897 39.1761 44.7508 38.9637H44.7508ZM46.0091 36.7745C44.9625 37.464 43.9941 38.2881 42.6708 38.489C41.0418 38.7364 40.277 38.3122 39.6648 36.7985C39.0566 35.2948 38.3941 33.8124 37.7396 32.3274C37.5818 32.0036 37.5198 31.6424 37.561 31.2853C37.9233 28.5281 38.1221 25.7524 38.1567 22.9723C38.1508 22.2047 38.117 21.4331 38.0677 20.6698C38.0179 19.9082 38.0102 19.1446 38.0447 18.3822C38.1006 17.1604 38.2475 15.9433 38.2412 14.7176C38.2634 14.5992 38.3061 14.4854 38.3676 14.3814L38.5544 14.3307C38.7766 14.8924 39.0466 15.4407 39.2122 16.0182C39.6933 17.6969 40.3473 19.3158 40.906 20.967C41.5233 22.7916 42.028 24.6535 42.6551 26.4745C43.2282 28.2465 43.9314 29.9749 44.759 31.646C45.4115 32.9612 45.9151 34.3435 46.2607 35.7678C46.333 35.9401 46.3476 36.1308 46.3023 36.312C46.2571 36.4931 46.1543 36.6552 46.0091 36.7745H46.0091Z" fill="black"/>
</svg>
