<svg xmlns="http://www.w3.org/2000/svg" viewBox="0 0 379.84 379.03"><defs><style>.cls-1{fill:#4b575f;}</style></defs><g id="Layer_2" data-name="Layer 2"><g id="Layer_1-2" data-name="Layer 1"><path class="cls-1" d="M353.84,0,113,0C-2.39,0,0,106,0,106V351c.05,30.16,26,28,26,28l326.84-.11s27,2.16,27-28V28C379.8-2.12,353.84,0,353.84,0Zm-336,132.06V105.14C18.34,59,55.89,17.07,102.88,17.07l252.54.13a5.64,5.64,0,0,1,1.76.28c-9.62,15.75-27,27.46-47.33,37.05l-1.86,1c-41.14,16.62-90.34,24.85-124.37,28.82-7.7.9-15.3,1.71-22.66,2.49C125.23,90.6,91.48,94.2,62.22,106a139.58,139.58,0,0,0-26.57,14.07l-.81.53c-5.37,3.42-10.74,7.25-17,11.47ZM361,354.41a5.67,5.67,0,0,1-5.68,5.67H23.58a5.67,5.67,0,0,1-5.67-5.67l-.07-175.56c9.52-8.82,21.8-20.17,35.74-29l1.28-.84.23-.16a105.87,105.87,0,0,1,20.13-10.64c24.76-10,56.16-13.35,89.42-16.88,7.44-.79,15.13-1.61,23-2.53,36.14-4.22,88.61-13,133.34-31.12a176.94,176.94,0,0,0,40.09-22.37Z"/><path class="cls-1" d="M195.49,327.12c-8.49,0-13-1.72-15.45-3.56a15.62,15.62,0,0,1-5.32-8.18A49.61,49.61,0,0,1,173,301.09V244.31H143.16l20.22,82.8h-39l-3.75-24.64H91.43l-3.75,24.64H49.24L83,186.36h46.13l8.36,34.1H173V189.12h35.49v31.34h14v23.85h-14v50.86c0,3,.69,5.16,2.07,6.41s3.51,1.87,6.4,1.87h16l-.05-117.09h55.24q19.71,0,29.08,9.56t9.37,25.52a45.12,45.12,0,0,1-1.28,10.75,32,32,0,0,1-3.95,9.46,25.2,25.2,0,0,1-6.8,7.2A25.8,25.8,0,0,1,304.53,253v.39A26.3,26.3,0,0,1,316.35,257a27.23,27.23,0,0,1,8.09,7.59,32.22,32.22,0,0,1,4.63,9.95,41.31,41.31,0,0,1,1.48,10.94,56.67,56.67,0,0,1-2.37,16.76,34.18,34.18,0,0,1-7.39,13.21,33.17,33.17,0,0,1-13.11,8.57q-8.08,3.06-19.52,3.06H195.49Zm-89.67-112-10,59.73h20.5l-10-59.73Zm172.49,26.41a9.89,9.89,0,0,0,8.67-4.24,16.94,16.94,0,0,0,3-9.95,17.76,17.76,0,0,0-3-10.25,9.83,9.83,0,0,0-8.67-4.34h-8.87v28.78Zm1.38,59.14a12.08,12.08,0,0,0,9.06-4.23q3.94-4.24,3.95-13.11,0-8.28-3.95-12.62a12,12,0,0,0-9.06-4.34H269.44v34.3Z"/></g></g></svg>