<svg xmlns="http://www.w3.org/2000/svg" viewBox="0 0 343.11 342.94"><defs><style>.cls-1{fill:#4b575f;}.cls-2{fill:#fff;}</style></defs><g id="Layer_2" data-name="Layer 2"><g id="Layer_1-2" data-name="Layer 1"><path class="cls-1" d="M169.3,111.71c-7.87.92-15.57,1.74-23,2.53-33.25,3.54-64.66,6.88-89.41,16.89a104.83,104.83,0,0,0-20.14,10.64l-.22.15-1.29.85c-14.16,9-26.61,20.56-35.19,29.44L.11,337.27a5.66,5.66,0,0,0,5.66,5.67H337.44a5.67,5.67,0,0,0,5.67-5.67V58A177.72,177.72,0,0,1,302.64,80.6C257.92,98.67,205.45,107.49,169.3,111.71Z"/><path class="cls-1" d="M340.83,0c-7.48,21.18-24.69,35.87-49.33,47.46l-1.85,1C248.5,65.05,199.31,73.28,165.28,77.25c-7.7.9-15.3,1.71-22.66,2.49C106.89,83.54,73.14,87.13,43.88,99A139.1,139.1,0,0,0,17.3,113l-.8.53A196.72,196.72,0,0,0,0,125.33L0,85.09a85,85,0,0,1,85-85Z"/><path class="cls-2" d="M177.15,308.32c-8.49,0-13-1.72-15.45-3.56a15.63,15.63,0,0,1-5.33-8.18,50,50,0,0,1-1.67-14.29V225.51H124.82L145,308.31H106l-3.75-24.64H73.08l-3.74,24.64H30.9L64.61,167.56h46.13l8.35,34.1H154.7V170.32h35.48v31.34h14v23.85h-14v50.86c0,3,.69,5.16,2.07,6.41s3.52,1.87,6.41,1.87h16l-.06-117.09h55.25q19.71,0,29.08,9.56t9.36,25.53A45.1,45.1,0,0,1,307,213.39a32.2,32.2,0,0,1-3.94,9.46,25.34,25.34,0,0,1-6.8,7.2,25.85,25.85,0,0,1-10.06,4.14v.39A26.47,26.47,0,0,1,298,238.23a27.19,27.19,0,0,1,8.08,7.59,32.24,32.24,0,0,1,4.64,10,41.71,41.71,0,0,1,1.47,10.94,56.67,56.67,0,0,1-2.36,16.76,34.31,34.31,0,0,1-7.39,13.21,33.31,33.31,0,0,1-13.11,8.57q-8.08,3.06-19.52,3.06H177.15Zm-89.67-112L77.42,256.07h20.5l-10-59.73ZM260,222.75a9.9,9.9,0,0,0,8.68-4.24,16.94,16.94,0,0,0,2.95-9.95,17.76,17.76,0,0,0-2.95-10.25A9.85,9.85,0,0,0,260,194h-8.87v28.78Zm1.38,59.14a12.08,12.08,0,0,0,9.07-4.23q3.94-4.25,3.94-13.11,0-8.28-3.94-12.62a12,12,0,0,0-9.07-4.34H251.09v34.3Z"/></g></g></svg>